if (_typeface_js && _typeface_js.loadFace) _typeface_js.loadFace({"glyphs":{"ᴴ":{"x_min":213,"x_max":623,"ha":836,"o":"m 213 1020 l 339 1020 l 339 804 l 498 804 l 498 1020 l 623 1020 l 623 453 l 498 453 l 498 706 l 339 706 l 339 453 l 213 453 l 213 1020 "},"⟆":{"x_min":173.25,"x_max":661,"ha":836,"o":"m 173 -227 l 173 -76 q 228 -71 202 -76 q 302 -63 254 -67 q 473 111 473 -48 q 341 535 473 216 q 227 928 209 854 q 432 1067 260 1067 q 658 941 582 1067 l 512 873 q 452 918 492 918 q 403 863 403 918 q 532 511 403 833 q 661 65 661 189 q 355 -219 661 -163 q 248 -227 317 -227 q 173 -227 179 -227 "},"ₑ":{"x_min":193,"x_max":644,"ha":836,"o":"m 624 20 q 535 -3 581 4 q 439 -11 490 -11 q 256 45 319 -11 q 193 210 193 102 q 254 374 193 314 q 420 435 315 435 q 585 379 526 435 q 644 221 644 323 l 644 176 l 320 176 q 352 101 320 125 q 451 77 385 77 q 536 87 494 77 q 624 122 578 98 l 624 20 m 518 259 q 493 326 518 303 q 420 349 469 349 q 351 325 377 349 q 321 259 326 301 l 518 259 "},"ȋ":{"x_min":97,"x_max":790,"ha":836,"o":"m 149 760 l 543 760 l 543 153 l 790 153 l 790 0 l 97 0 l 97 153 l 344 153 l 344 607 l 149 607 l 149 760 m 193 888 q 252 1037 193 985 q 418 1089 311 1089 q 584 1037 525 1089 q 644 888 644 985 l 548 888 q 507 960 540 935 q 417 985 473 985 q 327 959 361 985 q 286 888 293 934 l 193 888 "},"➛":{"x_min":31,"x_max":804.78125,"ha":836,"o":"m 31 509 l 391 509 l 304 673 q 804 478 484 542 q 304 282 484 413 l 391 447 l 31 447 l 31 509 "},"⇜":{"x_min":45,"x_max":792,"ha":836,"o":"m 235 457 l 352 457 l 403 402 l 534 542 l 665 402 l 717 457 l 792 457 l 792 305 l 745 305 l 665 219 l 534 367 l 403 219 l 323 305 l 235 305 l 323 216 l 242 135 l 45 332 l 45 429 l 242 626 l 323 545 l 235 457 "},"Ƹ":{"x_min":7,"x_max":830,"ha":836,"o":"m 434 159 q 580 211 530 159 q 614 298 614 247 l 830 298 q 732 59 830 146 q 414 -19 643 -19 q 28 167 103 -19 q 7 289 7 222 q 55 456 7 387 q 183 556 108 533 q 335 572 236 572 l 63 846 l 63 1012 l 748 1012 l 748 836 l 364 836 l 617 586 l 617 438 l 443 438 q 242 297 242 438 q 335 172 242 203 q 434 159 376 159 "},"ˌ":{"x_min":354,"x_max":482,"ha":836,"o":"m 482 264 l 482 -112 l 354 -112 l 354 264 l 482 264 "},"დ":{"x_min":18,"x_max":818,"ha":836,"o":"m 638 421 q 628 487 638 459 q 606 534 619 515 q 581 562 594 553 q 561 572 568 572 l 496 572 q 480 565 486 572 q 474 547 474 559 l 474 345 q 474 270 474 307 q 481 206 474 234 q 503 160 489 177 q 543 144 518 144 q 584 155 566 144 q 613 187 602 167 q 631 237 625 208 q 638 300 638 266 l 638 421 m 83 -155 q 95 -128 87 -144 q 114 -98 104 -113 q 139 -71 125 -83 q 167 -56 152 -59 q 94 38 123 -11 q 48 143 66 87 q 24 260 31 198 q 18 393 18 321 q 82 634 18 552 q 278 716 147 716 q 392 669 341 716 q 546 716 443 716 q 664 698 613 716 q 749 644 715 681 q 800 549 783 607 q 818 409 818 490 l 818 321 q 801 172 818 234 q 752 72 785 111 q 670 16 719 34 q 556 -1 621 -1 q 478 11 512 -1 q 417 46 444 24 q 371 96 390 68 q 340 155 352 124 q 322 216 328 185 q 317 273 317 247 l 317 552 q 310 566 316 560 q 293 572 305 572 l 248 572 q 229 565 239 572 q 213 549 220 559 q 201 524 205 538 q 197 495 197 510 l 197 241 q 217 122 197 171 q 272 36 238 72 q 349 -23 305 1 q 436 -68 392 -48 q 524 -106 481 -88 q 601 -147 567 -124 q 655 -199 634 -169 q 676 -273 676 -230 l 473 -273 q 461 -242 473 -258 q 430 -214 449 -227 q 387 -190 411 -200 q 337 -173 362 -179 q 287 -168 311 -168 q 242 -174 262 -168 q 209 -195 222 -181 q 194 -234 196 -210 l 83 -155 "},"ط":{"x_min":6.609375,"x_max":817,"ha":836,"o":"m 406 152 l 494 152 q 576 173 546 152 q 619 232 619 202 q 604 274 619 254 q 555 294 591 294 q 461 232 502 294 q 406 152 413 160 m 520 -1 l 154 -1 l 6 -1 l 6 152 l 154 152 l 154 1055 l 351 1055 l 351 333 q 559 450 438 450 q 757 379 688 450 q 817 235 817 317 q 692 49 817 123 q 520 -1 606 -1 "},"ϼ":{"x_min":31,"x_max":775,"ha":836,"o":"m 300 107 l 300 -82 l 599 -82 l 599 -213 l 300 -213 l 300 -289 l 102 -289 l 102 -213 l 31 -213 l 31 -82 l 102 -82 l 102 374 q 440 778 102 778 q 703 673 631 778 q 775 379 775 569 q 702 83 775 186 q 494 -20 629 -20 q 385 11 433 -20 q 300 107 336 43 m 539 208 q 576 380 576 270 q 539 552 576 490 q 438 615 503 615 q 337 552 374 615 q 300 380 300 490 q 337 208 300 270 q 438 146 374 146 q 539 208 503 146 "},"ȡ":{"x_min":5,"x_max":830,"ha":836,"o":"m 648 146 q 682 142 651 142 q 753 187 753 142 q 724 233 753 233 q 648 146 689 233 m 581 239 q 725 399 640 399 q 830 236 830 399 q 664 -20 830 -20 q 583 -13 585 -20 l 554 -95 l 457 -95 q 494 18 478 -29 q 406 119 448 37 q 362 22 386 46 q 268 -20 320 -20 q 76 84 148 -20 q 5 379 5 189 q 77 674 5 571 q 273 778 150 778 q 346 746 313 778 q 383 697 366 727 l 383 1055 l 581 1055 l 581 239 m 226 549 q 203 377 203 487 q 226 205 203 267 q 290 143 249 143 q 354 205 330 143 q 377 377 377 267 q 354 549 377 487 q 290 612 330 612 q 226 549 249 612 "},"◦":{"x_min":174,"x_max":663,"ha":836,"o":"m 223 517 q 237 441 223 476 q 279 378 252 406 q 342 334 307 349 q 416 320 378 320 q 492 334 456 320 q 555 378 527 349 q 599 441 584 406 q 614 517 614 477 q 599 591 614 555 q 555 654 584 626 q 493 696 528 681 q 418 711 457 711 q 344 696 378 711 q 280 654 309 682 q 237 592 252 627 q 223 517 223 556 m 174 517 q 192 611 174 566 q 246 689 211 655 q 326 741 282 723 q 418 760 369 760 q 512 741 467 760 q 590 689 556 723 q 644 610 626 654 q 663 517 663 566 q 644 423 663 467 q 590 343 625 378 q 511 289 555 308 q 416 271 466 271 q 323 289 367 271 q 244 343 279 308 q 192 422 210 378 q 174 517 174 466 "},"ņ":{"x_min":117,"x_max":727,"ha":836,"o":"m 356 -107 l 548 -107 l 427 -315 l 295 -315 l 356 -107 m 727 493 l 727 0 l 530 0 l 530 462 q 506 580 530 545 q 429 616 482 616 q 345 568 376 616 q 314 434 314 520 l 314 0 l 117 0 l 117 760 l 314 760 l 314 645 q 386 743 335 709 q 508 778 437 778 q 671 706 616 778 q 727 493 727 634 "},"ỳ":{"x_min":39.890625,"x_max":797.40625,"ha":836,"o":"m 293 1115 l 485 860 l 351 860 l 102 1115 l 293 1115 m 482 -82 q 386 -238 442 -189 q 250 -288 330 -288 l 86 -288 l 86 -137 l 166 -137 q 256 -116 227 -137 q 313 -20 284 -95 l 328 20 l 39 759 l 248 759 l 422 265 l 588 759 l 797 759 l 482 -82 "},"қ":{"x_min":118,"x_max":812,"ha":836,"o":"m 721 142 l 812 142 l 812 -194 l 616 -194 l 616 0 l 592 0 l 384 355 l 316 290 l 316 0 l 118 0 l 118 760 l 316 760 l 316 501 l 555 760 l 795 760 l 508 476 l 721 142 "},"ѕ":{"x_min":117,"x_max":724,"ha":836,"o":"m 672 735 l 672 561 q 558 615 617 597 q 439 633 498 633 q 338 613 372 633 q 305 556 305 594 q 450 468 305 502 l 457 466 l 514 452 q 673 369 623 426 q 724 214 724 312 q 647 38 724 97 q 415 -20 570 -20 q 275 -8 347 -20 q 129 27 203 3 l 129 200 q 263 143 195 163 q 395 124 331 124 q 501 144 465 124 q 537 203 537 164 q 511 261 537 241 q 390 305 486 282 l 335 317 q 169 398 221 343 q 117 545 117 453 q 196 716 117 655 q 419 777 275 777 q 548 766 483 777 q 672 735 612 756 "},"Ḏ":{"x_min":93,"x_max":774,"ha":836,"o":"m 293 833 l 293 181 l 347 181 q 515 255 465 181 q 566 508 566 329 q 515 759 566 685 q 347 833 465 833 l 293 833 m 93 1013 l 307 1013 q 664 894 555 1013 q 774 508 774 776 q 664 119 774 238 q 307 1 555 1 l 93 1 l 93 1013 m 170 -147 l 598 -147 l 598 -275 l 170 -275 l 170 -147 "},"ℂ":{"x_min":95,"x_max":728,"ha":836,"o":"m 348 89 q 496 52 412 52 q 617 73 564 52 q 728 125 671 95 l 728 36 q 654 6 721 32 q 496 -19 586 -19 q 206 124 317 -19 q 95 505 95 268 q 205 893 95 756 q 504 1031 315 1031 q 637 1013 588 1031 q 728 975 686 995 l 728 887 q 623 935 666 915 q 502 955 580 955 q 348 922 423 955 l 348 89 m 277 869 q 264 854 271 864 q 171 505 171 734 q 262 167 171 296 q 277 148 270 156 l 277 869 "},"ŭ":{"x_min":108,"x_max":719,"ha":836,"o":"m 108 264 l 108 759 l 306 759 l 306 295 q 329 178 306 213 q 406 143 352 143 q 490 190 459 143 q 520 323 520 237 l 520 760 l 719 760 l 719 0 l 520 0 l 520 112 q 448 14 499 49 q 327 -20 398 -20 q 163 51 218 -20 q 108 264 108 123 m 192 1089 l 285 1089 q 327 1016 293 1042 q 417 991 360 991 q 507 1016 473 991 q 548 1089 540 1041 l 643 1089 q 583 939 643 991 q 417 887 524 887 q 251 939 310 887 q 192 1089 192 991 "},"ﺴ":{"x_min":-13,"x_max":852.5625,"ha":836,"o":"m 527 406 l 368 406 q 357 205 368 251 q 319 132 343 132 q 250 188 264 132 q 237 300 237 239 l 237 407 l 74 407 l 74 276 q 48 175 74 202 q 5 152 23 152 l -13 152 l -13 -1 l 23 -1 q 107 24 78 -1 q 147 89 123 37 q 204 15 152 60 q 318 -12 234 -12 q 418 25 392 -12 q 449 102 449 71 q 502 13 457 62 q 584 -20 534 -20 q 676 0 628 -20 q 734 47 713 13 q 799 -1 764 -1 l 852 -1 l 852 152 l 836 152 q 809 163 820 152 q 780 304 780 192 l 780 508 l 617 508 l 617 308 q 584 124 617 124 q 548 176 562 124 q 527 406 527 266 "},"◴":{"x_min":3.96875,"x_max":832,"ha":836,"o":"m 210 2 q 3 360 3 122 q 210 719 3 599 q 417 778 313 778 q 624 719 520 778 q 832 360 832 599 q 624 2 832 122 q 417 -57 520 -57 q 210 2 313 -57 m 379 692 q 252 647 315 683 q 88 399 103 561 l 379 399 l 379 692 m 88 322 q 252 74 104 160 q 417 26 334 26 q 582 74 500 26 q 749 360 749 170 q 582 647 749 551 q 456 692 519 683 l 456 322 l 88 322 "},"໊":{"x_min":34,"x_max":1016,"ha":836,"o":"m 272 1339 q 369 1287 317 1339 q 433 1250 410 1250 q 504 1290 454 1250 q 624 1335 564 1335 q 809 1106 809 1335 q 745 997 809 1038 q 844 1014 825 997 q 865 1083 865 1035 l 1016 1083 q 929 903 1016 969 q 674 875 893 875 l 508 875 l 508 992 q 665 1121 665 1062 q 624 1210 665 1220 q 571 1175 612 1207 q 439 1132 514 1132 q 319 1169 351 1132 q 250 1209 289 1206 q 180 1061 207 1216 q 237 970 180 970 q 231 1018 231 989 q 317 1096 231 1096 q 415 1006 415 1096 q 360 889 415 926 q 232 859 315 859 q 34 1061 34 859 q 272 1339 34 1339 "},"≷":{"x_min":60,"x_max":777,"ha":836,"o":"m 777 283 l 275 141 l 777 0 l 777 -164 l 60 63 l 60 222 l 777 449 l 777 283 m 60 784 l 60 950 l 777 723 l 777 564 l 60 336 l 60 501 l 561 643 l 60 784 "},"⍈":{"x_min":4,"x_max":832,"ha":836,"o":"m 832 -159 l 4 -159 l 4 1171 l 832 1171 l 832 -159 m 734 -61 l 734 457 l 547 270 l 465 351 l 553 440 l 102 440 l 102 -61 l 734 -61 m 102 592 l 553 592 l 465 680 l 547 761 l 734 574 l 734 1073 l 102 1073 l 102 592 "},"ɭ":{"x_min":76.90625,"x_max":757.75,"ha":836,"o":"m 279 15 l 279 902 l 76 902 l 76 1055 l 477 1055 l 477 15 q 505 -111 477 -74 q 599 -149 532 -149 l 757 -149 l 757 -302 l 543 -302 q 340 -228 402 -302 q 279 15 279 -155 "},"ﺽ":{"x_min":-193,"x_max":825,"ha":836,"o":"m 227 607 l 380 607 l 380 454 l 227 454 l 227 607 m 415 153 l 502 153 q 584 166 565 153 q 627 220 627 196 q 612 262 627 242 q 563 281 598 281 q 469 226 515 281 q 415 153 432 181 m 281 243 q 370 349 326 302 q 567 443 459 443 q 765 373 709 443 q 825 229 825 298 q 714 30 825 95 q 527 0 662 0 l 379 0 q 318 20 354 0 q 289 48 289 38 q 269 -105 288 -7 q 183 -271 254 -179 q 32 -334 134 -334 q -125 -266 -56 -334 q -193 -43 -193 -200 q -157 201 -193 103 l -2 201 q -32 -43 -32 57 q -6 -165 -32 -124 q 31 -190 8 -190 q 84 -153 56 -190 q 117 -65 103 -130 q 126 121 138 30 q 109 248 118 184 l 101 304 l 260 304 q 281 243 272 278 "},"ຂ":{"x_min":73,"x_max":845.8125,"ha":836,"o":"m 252 588 q 208 632 252 632 q 165 588 165 632 q 208 545 165 545 q 252 588 252 545 m 227 465 q 73 578 73 465 q 157 722 73 655 q 429 789 242 789 q 759 557 759 789 q 516 297 759 376 l 392 257 q 268 175 268 217 q 322 122 268 122 q 468 157 416 122 q 604 192 521 192 q 845 78 731 192 l 745 -54 q 561 38 656 38 q 462 13 505 38 q 281 -12 419 -12 q 77 156 77 -12 q 354 420 77 329 l 475 459 q 572 561 572 490 q 424 649 572 649 q 348 619 386 649 q 227 465 348 465 "},"۰":{"x_min":307,"x_max":531,"ha":836,"o":"m 307 517 l 531 517 l 531 263 l 307 263 l 307 517 "},"ἣ":{"x_min":92,"x_max":734.828125,"ha":836,"o":"m 543 1111 l 734 856 l 601 856 l 351 1111 l 543 1111 m 92 1000 l 92 1119 l 309 1119 l 309 1000 l 186 1000 q 310 907 186 893 l 310 825 q 92 1000 92 825 m 726 493 l 726 -288 l 529 -288 l 529 462 q 505 580 529 545 q 429 616 482 616 q 344 568 375 616 q 314 434 314 520 l 314 0 l 117 0 l 117 760 l 314 760 l 314 645 q 385 743 335 709 q 508 778 436 778 q 671 706 616 778 q 726 493 726 634 "},"☝":{"x_min":96,"x_max":741,"ha":836,"o":"m 116 78 l 650 28 q 692 44 675 28 q 710 82 710 61 l 710 322 q 672 374 710 359 l 672 921 q 622 978 672 978 q 573 921 573 978 l 573 402 l 521 411 l 521 651 q 469 707 521 707 q 421 651 421 707 l 421 437 l 367 443 l 367 594 q 315 651 367 651 q 267 594 267 651 l 267 476 l 216 489 l 216 531 q 165 588 216 588 q 116 531 116 588 l 116 78 m 96 550 q 166 613 96 613 q 237 550 237 613 l 237 499 l 247 497 l 247 613 q 317 676 247 676 q 388 613 388 676 l 388 459 l 401 457 l 401 670 q 472 733 401 733 q 542 670 542 733 l 542 425 l 553 422 l 553 941 q 623 1004 553 1004 q 694 941 694 1004 l 694 390 q 741 324 741 368 l 741 70 q 720 21 741 42 q 669 0 699 0 l 96 51 l 96 503 l 96 550 "},"ﭬ":{"x_min":-13,"x_max":598,"ha":836,"o":"m 380 395 q 397 444 397 413 q 369 488 397 468 q 339 498 356 498 q 301 481 319 498 q 285 443 285 462 q 307 396 285 410 q 340 386 324 386 q 380 395 369 386 m -13 153 l 150 153 q 347 173 311 153 q 404 211 394 200 q 418 262 430 241 q 327 239 402 239 q 152 284 209 239 q 86 431 86 339 q 91 496 86 461 q 208 643 106 596 q 346 668 261 668 q 488 634 435 668 q 564 550 528 608 q 598 420 598 496 q 551 149 598 246 q 376 26 517 76 q 204 0 302 0 l -13 0 l -13 153 m 255 1157 l 408 1157 l 408 1004 l 255 1004 l 255 1157 m 373 919 l 526 919 l 526 766 l 373 766 l 373 919 m 136 919 l 289 919 l 289 766 l 136 766 l 136 919 "},"Ɲ":{"x_min":20,"x_max":815,"ha":836,"o":"m 313 0 q 212 -253 313 -192 q 52 -289 155 -289 l 20 -289 l 20 -136 l 60 -136 q 129 -85 100 -136 q 142 27 142 -65 l 142 1013 l 356 1013 l 639 276 l 639 1013 l 815 1013 l 815 0 l 602 0 l 318 736 l 318 0 l 313 0 "},"ﻯ":{"x_min":0,"x_max":836,"ha":836,"o":"m 800 -32 q 659 -174 729 -135 q 351 -237 547 -237 q 135 -196 217 -237 q 0 83 0 -129 q 42 239 0 162 l 234 239 q 191 83 191 150 q 251 -40 191 -24 q 359 -54 302 -54 q 514 -30 453 -54 q 602 31 572 -7 q 638 110 638 76 q 627 160 638 142 q 531 207 604 196 q 378 392 378 229 q 460 559 378 511 q 609 600 531 600 q 799 533 764 600 q 836 382 836 461 l 654 382 q 644 432 654 423 q 595 456 619 456 q 561 438 578 456 q 542 397 542 418 q 627 329 542 346 q 814 208 758 303 q 836 105 836 171 q 800 -32 836 19 "},"✉":{"x_min":43,"x_max":794,"ha":836,"o":"m 498 415 l 726 571 l 110 571 l 338 415 q 345 424 341 420 q 379 447 360 438 q 418 455 397 455 q 457 447 439 455 q 491 424 479 437 q 498 415 495 419 m 519 332 l 742 181 l 742 519 l 519 369 q 521 351 521 360 q 519 332 521 340 m 338 286 l 110 130 l 726 130 l 497 286 q 491 277 494 281 q 457 255 476 263 q 418 248 439 248 q 379 255 397 248 q 345 277 360 263 q 338 286 342 281 m 316 369 l 95 519 l 95 181 l 316 331 q 315 351 315 340 q 316 369 315 360 m 43 78 l 43 623 l 794 623 l 794 78 l 43 78 "},"⇱":{"x_min":27,"x_max":802.296875,"ha":836,"o":"m 788 762 l 788 692 l 97 692 l 97 0 l 27 0 l 27 762 l 788 762 m 182 526 l 262 607 l 541 607 l 541 480 l 414 480 l 802 91 l 696 -14 l 309 374 l 309 247 l 182 247 l 182 526 "},"⁸":{"x_min":191,"x_max":643,"ha":836,"o":"m 492 682 q 417 706 463 706 q 342 682 371 706 q 314 619 314 659 q 342 556 314 580 q 417 533 371 533 q 491 557 462 533 q 520 619 520 581 q 492 682 520 659 m 315 754 q 235 801 262 769 q 209 878 209 832 q 264 990 209 950 q 417 1031 320 1031 q 569 990 514 1031 q 626 878 626 948 q 599 801 626 832 q 521 754 572 769 q 611 701 578 739 q 643 613 643 665 q 584 487 643 530 q 417 443 525 443 q 249 487 308 443 q 191 613 191 531 q 224 702 191 663 q 315 754 257 739 m 330 869 q 353 816 330 836 q 417 797 376 797 q 481 816 458 797 q 505 869 505 836 q 481 921 505 902 q 417 941 458 941 q 353 921 377 941 q 330 869 330 902 "},"k":{"x_min":118,"x_max":812.453125,"ha":836,"o":"m 118 1055 l 316 1055 l 316 501 l 555 760 l 796 760 l 508 476 l 812 0 l 592 0 l 384 355 l 316 290 l 316 0 l 118 0 l 118 1055 "},"ȇ":{"x_min":62,"x_max":779,"ha":836,"o":"m 746 36 q 605 -5 677 8 q 453 -20 533 -20 q 162 82 263 -20 q 62 376 62 184 q 159 670 62 562 q 423 778 256 778 q 685 677 592 778 q 779 395 779 577 l 779 315 l 264 315 q 316 181 264 225 q 472 137 368 137 q 608 156 541 137 q 746 219 674 176 l 746 36 m 578 464 q 538 583 578 542 q 423 624 499 624 q 314 582 355 624 q 266 464 273 540 l 578 464 m 219 888 q 278 1037 219 985 q 444 1089 337 1089 q 610 1037 551 1089 q 670 888 670 985 l 574 888 q 533 960 567 935 q 443 985 500 985 q 353 959 387 985 q 312 888 319 934 l 219 888 "},"ί":{"x_min":182.6875,"x_max":700.796875,"ha":836,"o":"m 517 760 l 517 247 q 542 175 517 197 q 624 153 567 153 l 663 153 l 663 0 l 610 0 q 378 54 439 0 q 319 257 319 107 l 319 607 l 182 607 l 182 760 l 517 760 m 509 1111 l 700 1111 l 451 856 l 317 856 l 509 1111 "},"Ù":{"x_min":72,"x_max":764,"ha":836,"o":"m 72 373 l 72 1012 l 272 1012 l 272 323 q 310 204 272 247 q 417 161 349 161 q 525 204 486 161 q 564 323 564 247 l 564 1012 l 764 1012 l 764 373 q 681 73 764 167 q 417 -20 599 -20 q 154 73 236 -20 q 72 373 72 167 m 384 1287 l 519 1109 l 386 1109 l 192 1287 l 384 1287 "},"ᵗ":{"x_min":212,"x_max":624.125,"ha":836,"o":"m 460 998 l 460 878 l 624 878 l 624 793 l 460 793 l 460 591 q 475 550 460 562 q 527 538 491 538 l 624 538 l 624 453 l 518 453 q 373 483 411 453 q 335 596 335 513 l 335 793 l 212 793 l 212 878 l 335 878 l 335 998 l 460 998 "},"ὓ":{"x_min":51.109375,"x_max":784,"ha":836,"o":"m 542 1111 l 734 856 l 600 856 l 351 1111 l 542 1111 m 92 1000 l 92 1119 l 309 1119 l 309 1000 l 186 1000 q 310 907 186 893 l 310 825 q 92 1000 92 825 m 454 0 q 222 54 283 0 q 163 257 163 107 l 163 607 l 51 607 l 51 760 l 361 760 l 361 247 q 386 175 361 197 q 452 153 412 153 q 567 249 524 153 q 584 434 584 287 q 565 616 584 504 q 499 760 550 708 l 696 760 l 696 760 q 759 615 733 711 q 784 432 784 523 q 697 117 784 232 q 454 0 609 0 "},"≚":{"x_min":60,"x_max":777,"ha":836,"o":"m 60 361 l 777 361 l 777 200 l 60 200 l 60 361 m 60 669 l 777 669 l 777 510 l 60 510 l 60 669 m 205 1144 l 340 1144 l 419 942 l 500 1144 l 631 1144 l 473 736 l 363 736 l 205 1144 "},"☈":{"x_min":40,"x_max":789.828125,"ha":836,"o":"m 82 1016 l 749 1016 q 789 959 789 1016 q 772 918 789 936 l 405 530 l 716 201 l 784 346 l 784 51 l 501 51 l 648 136 l 311 498 q 302 540 302 508 q 335 593 302 558 l 644 918 l 132 918 l 132 47 q 85 0 132 0 q 40 46 40 0 l 40 976 q 82 1016 40 1016 "},"ჳ":{"x_min":66,"x_max":770.4375,"ha":836,"o":"m 770 10 q 412 -272 770 -272 q 66 14 66 -272 l 95 114 l 297 93 l 265 10 q 305 -95 265 -61 q 415 -130 345 -130 q 529 -90 486 -130 q 571 20 571 -51 l 571 41 q 521 161 571 123 q 383 200 470 200 l 265 200 l 265 332 l 383 332 q 497 393 460 332 q 535 567 535 454 l 293 567 l 293 426 l 94 426 l 94 712 l 770 712 q 727 458 770 565 q 601 283 684 351 q 728 179 686 242 q 770 31 770 116 l 770 10 "},"∝":{"x_min":120,"x_max":716,"ha":836,"o":"m 454 430 q 393 542 418 514 q 335 571 368 571 q 269 531 294 571 q 244 427 244 491 q 266 324 244 363 q 326 286 289 286 q 395 321 364 286 q 454 430 427 356 m 716 151 q 619 184 665 151 q 529 290 572 217 q 444 185 492 220 q 336 151 395 151 q 181 229 243 151 q 120 427 120 307 q 178 629 120 554 q 335 705 237 705 q 446 669 397 705 q 529 563 495 634 q 607 670 560 635 q 716 705 654 705 l 716 571 q 659 533 692 571 q 603 426 626 496 q 663 316 635 347 q 716 286 690 286 l 716 151 "},"Ẹ":{"x_min":114,"x_max":744.625,"ha":836,"o":"m 744 1 l 114 1 l 114 1013 l 744 1013 l 744 837 l 314 837 l 314 618 l 703 618 l 703 442 l 314 442 l 314 177 l 744 177 l 744 1 m 346 -146 l 533 -146 l 533 -313 l 346 -313 l 346 -146 "},"▎":{"x_min":-13,"x_max":203,"ha":836,"o":"m -13 -347 l -13 1069 l 203 1069 l 203 -347 l -13 -347 "},"≠":{"x_min":53,"x_max":783,"ha":836,"o":"m 53 669 l 499 669 l 670 875 l 772 791 l 673 669 l 783 669 l 783 510 l 569 510 l 451 361 l 783 361 l 783 200 l 336 200 l 165 -6 l 63 79 l 162 200 l 53 200 l 53 361 l 270 361 l 389 510 l 53 510 l 53 669 "},"ƀ":{"x_min":8,"x_max":775,"ha":836,"o":"m 300 651 q 385 746 336 714 q 494 778 433 778 q 702 674 629 778 q 775 379 775 571 q 703 84 775 189 q 501 -20 631 -20 q 382 13 432 -20 q 300 112 331 46 l 300 0 l 102 0 l 102 862 l 8 862 l 8 973 l 102 973 l 102 1055 l 300 1055 l 300 973 l 502 973 l 502 862 l 300 862 l 300 651 m 539 205 q 576 377 576 267 q 539 549 576 487 q 438 612 503 612 q 337 549 374 612 q 300 377 300 487 q 337 205 300 267 q 438 143 374 143 q 539 205 503 143 "},"ɼ":{"x_min":126,"x_max":708.84375,"ha":836,"o":"m 708 550 q 632 595 676 580 q 536 610 589 610 q 426 587 474 610 q 353 523 379 565 q 331 461 337 498 q 325 350 325 424 l 325 -289 l 126 -289 l 126 760 l 325 760 l 325 641 q 414 742 353 707 q 555 778 474 778 q 634 768 596 778 q 708 739 673 758 l 708 550 "},"ﺢ":{"x_min":60,"x_max":863.328125,"ha":836,"o":"m 637 447 q 710 449 665 453 l 710 580 q 379 617 577 617 q 60 574 247 617 l 60 422 q 215 463 120 449 q 295 470 269 470 q 170 352 204 398 q 73 46 73 216 q 161 -207 73 -104 q 540 -340 276 -340 q 812 -272 710 -340 l 812 -116 q 537 -193 675 -193 q 339 -139 410 -193 q 255 40 255 -75 q 405 352 255 213 q 482 401 455 398 q 509 244 482 309 q 623 84 550 152 q 829 0 718 0 l 863 0 l 863 153 l 836 153 q 705 227 771 153 q 631 390 631 312 q 637 447 631 420 "},"ᵸ":{"x_min":213,"x_max":623,"ha":836,"o":"m 213 1020 l 339 1020 l 339 804 l 498 804 l 498 1020 l 623 1020 l 623 453 l 498 453 l 498 706 l 339 706 l 339 453 l 213 453 l 213 1020 "},"ﻌ":{"x_min":-13,"x_max":850,"ha":836,"o":"m 541 205 q 701 155 600 155 l 850 155 l 850 0 l 599 0 q 417 89 529 0 q 236 0 307 0 l -13 0 l -13 155 l 135 155 q 292 202 229 155 q 187 321 234 260 q 167 378 167 348 q 191 458 167 427 q 277 520 219 495 q 417 551 348 551 q 558 520 488 551 q 645 460 624 491 q 670 378 670 426 q 650 321 670 344 q 541 205 593 258 m 418 301 q 473 364 473 353 q 456 387 473 381 q 418 392 442 392 q 380 387 391 392 q 364 364 364 379 q 418 301 364 353 "},"ﮔ":{"x_min":-13,"x_max":725,"ha":836,"o":"m 273 0 l -13 0 l -13 153 l 260 153 q 391 215 363 153 q 402 264 402 239 q 365 336 402 291 l 191 549 q 114 692 114 644 q 120 738 114 712 q 219 845 140 812 l 725 1055 l 725 874 l 381 735 q 321 682 317 710 q 374 597 324 656 l 524 417 q 594 250 594 335 q 551 105 594 173 q 273 0 488 0 m 725 1164 l 98 890 l 98 1062 l 725 1336 l 725 1164 "},"ϴ":{"x_min":62,"x_max":773,"ha":836,"o":"m 560 441 l 274 441 q 302 241 274 305 q 417 160 338 160 q 532 241 496 160 q 560 441 560 304 m 274 617 l 560 617 q 529 768 551 717 q 417 851 494 851 q 305 768 340 851 q 274 617 284 719 m 62 505 q 151 898 62 765 q 417 1031 241 1031 q 683 898 593 1031 q 773 505 773 765 q 683 112 773 245 q 417 -20 593 -20 q 151 112 241 -20 q 62 505 62 245 "},"ʔ":{"x_min":112.265625,"x_max":723,"ha":836,"o":"m 233 499 l 289 499 q 474 576 421 499 q 509 676 509 628 q 474 786 509 741 q 304 864 414 864 q 207 849 256 864 q 112 805 159 834 l 112 1007 q 207 1042 158 1031 q 367 1055 257 1055 q 642 911 514 1055 q 723 675 723 821 q 628 421 723 519 q 451 336 566 357 l 451 0 l 233 0 l 233 499 "},"ᾞ":{"x_min":-320,"x_max":743,"ha":836,"o":"m 532 -289 l 410 -289 q 351 -165 351 -289 l 351 -62 l 484 -62 l 484 -166 q 518 -237 484 -237 l 532 -237 l 532 -289 m -82 1203 l -119 1228 q -128 1234 -121 1230 q -175 1254 -157 1254 q -212 1232 -199 1254 q -225 1171 -225 1211 l -225 1166 l -320 1166 q -285 1308 -320 1258 q -186 1359 -250 1359 q -137 1349 -161 1359 q -85 1320 -113 1340 l -43 1291 q -16 1275 -29 1280 q 6 1270 -3 1270 q 44 1291 31 1270 q 58 1352 58 1312 l 58 1357 l 153 1357 q 118 1215 153 1265 q 19 1165 83 1165 q -27 1173 -5 1165 q -82 1203 -50 1181 m 25 1000 q -192 825 25 825 l -192 907 q -69 1000 -69 893 l -192 1000 l -192 1119 l 25 1119 l 25 1000 m 93 1013 l 293 1013 l 293 627 l 543 627 l 543 1013 l 743 1013 l 743 0 l 543 0 l 543 451 l 293 451 l 293 0 l 93 0 l 93 1013 "},"∸":{"x_min":45,"x_max":790,"ha":836,"o":"m 45 516 l 790 516 l 790 355 l 45 355 l 45 516 m 305 859 l 531 859 l 531 611 l 305 611 l 305 859 "},"⇶":{"x_min":45,"x_max":792,"ha":836,"o":"m 675 216 l 792 100 l 792 3 l 594 -193 l 513 -112 l 601 -24 l 45 -24 l 45 128 l 601 128 l 513 216 l 601 304 l 45 304 l 45 456 l 601 456 l 513 544 l 601 633 l 45 633 l 45 785 l 601 785 l 513 873 l 594 954 l 792 757 l 792 660 l 675 544 l 792 428 l 792 331 l 675 216 "},"∕":{"x_min":76.640625,"x_max":759.546875,"ha":836,"o":"m 609 1013 l 759 1013 l 226 -129 l 76 -129 l 609 1013 "},"Ᾰ":{"x_min":22.375,"x_max":813.796875,"ha":836,"o":"m 417 829 l 323 415 l 512 415 l 417 829 m 295 1012 l 540 1012 l 813 0 l 613 0 l 551 250 l 283 250 l 222 0 l 22 0 l 295 1012 m 190 1288 l 286 1288 q 332 1226 299 1247 q 417 1206 366 1206 q 502 1226 469 1206 q 548 1288 535 1246 l 645 1288 q 576 1154 635 1200 q 417 1109 518 1109 q 259 1154 318 1109 q 190 1288 200 1200 "},"⎢":{"x_min":157,"x_max":354,"ha":836,"o":"m 157 1306 l 354 1306 l 354 -350 l 157 -350 l 157 1306 "},"∺":{"x_min":32,"x_max":807,"ha":836,"o":"m 32 285 l 258 285 l 258 37 l 32 37 l 32 285 m 33 838 l 259 838 l 259 590 l 33 590 l 33 838 m 581 285 l 807 285 l 807 37 l 581 37 l 581 285 m 579 838 l 805 838 l 805 590 l 579 590 l 579 838 m 45 517 l 790 517 l 790 356 l 45 356 l 45 517 "},"⇿":{"x_min":3.84375,"x_max":833.171875,"ha":836,"o":"m 277 305 l 277 94 l 3 381 l 277 667 l 277 457 l 560 457 l 560 667 l 833 381 l 560 94 l 560 305 l 277 305 m 210 506 l 98 381 l 210 255 l 210 506 m 627 506 l 627 255 l 738 381 l 627 506 "},"ອ":{"x_min":60,"x_max":788.703125,"ha":836,"o":"m 215 230 q 181 219 191 230 q 172 186 172 208 q 182 152 172 161 q 215 143 193 143 q 249 154 240 143 q 259 186 259 166 q 248 220 259 210 q 215 230 237 230 m 423 371 q 60 579 60 371 q 423 790 60 790 q 788 584 788 790 l 788 158 q 426 -12 788 -12 q 153 36 268 -12 q 63 191 63 75 q 210 337 63 337 q 368 176 368 337 q 477 129 411 129 q 590 208 590 129 l 590 387 q 423 371 573 371 m 591 581 q 423 648 591 648 q 257 581 257 648 q 423 511 257 511 q 591 581 591 511 "},"Ϋ":{"x_min":5.296875,"x_max":830.703125,"ha":836,"o":"m 472 1288 l 632 1288 l 632 1121 l 472 1121 l 472 1288 m 204 1288 l 364 1288 l 364 1121 l 204 1121 l 204 1288 m 5 1012 l 220 1012 l 417 605 l 615 1012 l 830 1012 l 518 398 l 518 0 l 318 0 l 318 398 l 5 1012 "},"ː":{"x_min":278.734375,"x_max":557.453125,"ha":836,"o":"m 417 502 l 278 760 l 557 760 l 417 502 m 418 257 l 557 0 l 278 0 l 418 257 "},"ö":{"x_min":66,"x_max":769,"ha":836,"o":"m 472 1059 l 632 1059 l 632 892 l 472 892 l 472 1059 m 204 1059 l 364 1059 l 364 892 l 204 892 l 204 1059 m 417 616 q 305 553 346 616 q 264 378 264 490 q 305 204 264 266 q 417 141 346 141 q 529 204 488 141 q 570 378 570 266 q 529 553 570 490 q 417 616 488 616 m 66 378 q 161 669 66 562 q 417 777 256 777 q 673 669 578 777 q 769 378 769 562 q 673 87 769 194 q 417 -20 578 -20 q 161 87 256 -20 q 66 378 66 194 "},"↲":{"x_min":125.265625,"x_max":733,"ha":836,"o":"m 315 301 l 581 301 l 581 936 l 733 936 l 733 149 l 315 149 l 403 60 l 321 -20 l 125 176 l 125 273 l 321 470 l 403 389 l 315 301 "},"▥":{"x_min":4,"x_max":832,"ha":836,"o":"m 4 -53 l 4 774 l 832 774 l 832 -53 l 4 -53 m 679 24 l 754 24 l 754 697 l 679 697 l 679 24 m 530 24 l 602 24 l 602 697 l 530 697 l 530 24 m 381 24 l 453 24 l 453 697 l 381 697 l 381 24 m 230 24 l 304 24 l 304 697 l 230 697 l 230 24 m 81 24 l 153 24 l 153 697 l 81 697 l 81 24 "},"ẉ":{"x_min":0.15625,"x_max":836.84375,"ha":836,"o":"m 0 760 l 165 760 l 255 177 l 337 561 l 499 561 l 579 177 l 671 760 l 836 760 l 699 0 l 510 0 l 418 395 l 326 0 l 137 0 l 0 760 m 325 -146 l 512 -146 l 512 -313 l 325 -313 l 325 -146 "},"Ȧ":{"x_min":22.53125,"x_max":814.453125,"ha":836,"o":"m 418 829 l 323 415 l 513 415 l 418 829 m 295 1012 l 541 1012 l 814 0 l 614 0 l 552 250 l 283 250 l 222 0 l 22 0 l 295 1012 m 325 1288 l 512 1288 l 512 1121 l 325 1121 l 325 1288 "},"Ḽ":{"x_min":153,"x_max":780.9375,"ha":836,"o":"m 153 0 l 153 1012 l 353 1012 l 353 176 l 780 176 l 780 0 l 153 0 m 370 -74 l 534 -74 l 707 -328 l 586 -328 l 452 -176 l 317 -328 l 197 -328 l 370 -74 "},"8":{"x_min":87,"x_max":748,"ha":836,"o":"m 417 451 q 308 408 349 451 q 267 296 267 366 q 308 184 267 226 q 417 141 349 141 q 526 184 484 141 q 568 296 568 228 q 526 408 568 366 q 417 451 485 451 m 268 535 q 151 619 191 562 q 112 757 112 675 q 194 957 112 883 q 417 1030 276 1030 q 640 957 558 1030 q 723 757 723 883 q 683 619 723 676 q 569 535 644 563 q 700 443 653 510 q 748 284 748 377 q 661 59 748 138 q 417 -20 575 -20 q 173 59 259 -20 q 87 284 87 138 q 135 444 87 377 q 268 535 183 510 m 290 741 q 324 646 290 681 q 417 612 358 612 q 510 646 476 612 q 545 741 545 681 q 510 834 545 800 q 417 869 476 869 q 324 834 359 869 q 290 741 290 799 "},"ﻱ":{"x_min":0,"x_max":836,"ha":836,"o":"m 426 -295 l 579 -295 l 579 -448 l 426 -448 l 426 -295 m 189 -295 l 342 -295 l 342 -448 l 189 -448 l 189 -295 m 800 -32 q 659 -174 729 -135 q 351 -237 547 -237 q 135 -196 217 -237 q 0 83 0 -129 q 42 239 0 162 l 234 239 q 191 83 191 150 q 251 -40 191 -24 q 359 -54 302 -54 q 514 -30 453 -54 q 602 31 572 -7 q 638 110 638 76 q 627 160 638 142 q 531 207 604 196 q 378 392 378 229 q 460 559 378 511 q 609 600 531 600 q 799 533 764 600 q 836 382 836 461 l 654 382 q 644 432 654 423 q 595 456 619 456 q 561 438 578 456 q 542 397 542 418 q 627 329 542 346 q 814 208 758 303 q 836 105 836 171 q 800 -32 836 19 "},"ƿ":{"x_min":55,"x_max":772,"ha":836,"o":"m 269 -89 l 269 -289 l 55 -289 l 55 760 l 269 760 l 269 648 q 372 748 320 723 q 549 778 434 778 q 717 702 671 778 q 772 521 772 616 q 269 -89 772 236 m 269 98 q 552 436 552 325 q 518 557 552 513 q 409 602 484 602 q 269 464 356 602 l 269 98 "},"ﺅ":{"x_min":52,"x_max":795,"ha":836,"o":"m 366 518 l 366 602 l 422 621 q 382 657 401 633 q 360 724 360 689 q 372 794 360 770 q 416 842 392 831 q 498 861 462 861 q 590 840 547 861 l 590 758 q 502 778 550 778 q 473 768 484 778 q 458 725 458 754 q 519 653 458 685 l 604 674 l 604 586 l 366 518 m 517 287 q 464 263 481 287 q 448 216 448 240 q 500 168 448 187 q 608 153 540 153 q 567 270 608 242 q 517 287 542 287 m 795 125 q 678 -192 795 -68 q 556 -280 624 -249 q 52 -339 429 -339 l 52 -173 q 442 -132 367 -173 q 598 2 570 -63 q 487 8 563 2 q 328 54 388 17 q 249 213 249 103 q 391 442 249 381 q 503 459 430 459 q 678 424 629 459 q 783 245 763 362 q 795 125 795 176 "},"⁆":{"x_min":205.875,"x_max":550,"ha":836,"o":"m 550 1055 l 550 -184 l 205 -184 l 205 -55 l 370 -55 l 370 371 l 205 371 l 205 500 l 370 500 l 370 926 l 205 926 l 205 1055 l 550 1055 "},"≭":{"x_min":59,"x_max":777,"ha":836,"o":"m 365 497 q 59 599 241 513 l 59 754 q 424 643 288 643 l 545 944 l 680 890 l 595 680 q 776 754 675 707 l 776 599 q 525 506 630 531 l 470 372 q 777 269 595 355 l 777 114 q 412 227 545 227 l 291 -75 l 156 -21 l 241 189 q 60 114 161 162 l 60 269 q 310 362 203 338 l 365 497 "},"☊":{"x_min":10,"x_max":826,"ha":836,"o":"m 728 262 q 662 293 701 293 q 597 262 624 293 q 571 188 571 232 q 597 114 571 144 q 663 84 624 84 q 728 114 701 84 q 755 188 755 144 q 728 262 755 232 m 172 293 q 107 263 134 293 q 80 188 80 232 q 107 113 80 144 q 172 83 134 83 q 237 113 210 83 q 264 188 264 144 q 237 263 264 232 q 172 293 210 293 m 753 344 q 777 320 766 334 q 826 188 826 265 q 778 58 826 112 q 663 4 730 4 q 549 58 596 4 q 502 189 502 112 q 548 320 502 266 q 647 373 590 368 q 711 533 711 442 q 624 715 711 640 q 412 791 537 791 q 200 715 287 791 q 114 532 114 639 q 176 373 114 441 q 287 320 242 373 q 334 188 334 266 q 286 57 334 111 q 172 3 239 3 q 57 57 105 3 q 10 188 10 111 q 57 320 10 266 q 76 339 67 330 q 13 531 13 423 q 129 783 13 679 q 412 887 245 887 q 696 783 580 887 q 813 532 813 679 q 753 344 813 426 "},"ħ":{"x_min":8,"x_max":726,"ha":836,"o":"m 726 493 l 726 0 l 529 0 l 529 462 q 505 579 529 544 q 429 615 482 615 q 344 566 375 615 q 314 434 314 519 l 314 0 l 117 0 l 117 862 l 8 862 l 8 973 l 117 973 l 117 1055 l 314 1055 l 314 973 q 502 973 408 973 l 502 862 l 314 862 l 314 645 q 385 743 335 708 q 508 778 436 778 q 671 706 616 778 q 726 493 726 634 "},"◉":{"x_min":4,"x_max":832,"ha":836,"o":"m 283 127 q 149 360 149 205 q 283 593 149 515 q 417 632 350 632 q 551 593 484 632 q 687 360 687 515 q 551 127 687 205 q 417 89 484 89 q 283 127 350 89 m 252 646 q 87 360 87 551 q 252 74 87 169 q 417 26 334 26 q 583 74 500 26 q 749 360 749 169 q 583 646 749 551 q 417 695 500 695 q 252 646 334 695 m 210 2 q 4 360 4 121 q 210 718 4 599 q 417 778 313 778 q 624 718 520 778 q 832 360 832 599 q 624 2 832 121 q 417 -57 520 -57 q 210 2 313 -57 "},"≇":{"x_min":60,"x_max":777,"ha":836,"o":"m 172 41 l 60 41 l 60 202 l 237 202 l 300 356 l 60 356 l 60 516 l 365 516 l 422 658 q 328 691 367 681 q 258 700 293 700 q 158 680 205 700 q 60 618 110 660 l 60 773 q 162 832 112 813 q 268 851 211 851 q 421 814 333 851 l 422 814 l 442 804 q 476 790 458 797 l 548 965 l 696 905 l 643 775 q 680 788 662 780 q 777 852 726 808 l 777 693 q 677 635 726 654 q 578 617 630 617 l 537 516 l 777 516 l 777 356 l 472 356 l 409 202 l 777 202 l 777 41 l 344 41 l 288 -96 l 140 -36 l 172 41 "},"ᶜ":{"x_min":227,"x_max":609,"ha":836,"o":"m 609 474 q 540 450 577 458 q 462 442 504 442 q 289 501 351 442 q 227 665 227 560 q 289 829 227 770 q 463 889 352 889 q 537 881 501 889 q 609 856 573 873 l 609 754 q 548 786 581 775 q 480 798 516 798 q 386 763 419 798 q 354 665 354 728 q 386 567 354 601 q 480 533 419 533 q 548 543 517 533 q 609 577 580 554 l 609 474 "},"⚈":{"x_min":32,"x_max":805,"ha":836,"o":"m 418 773 q 608 723 515 773 q 752 580 700 673 q 805 386 805 487 q 754 193 805 285 q 610 51 703 102 q 418 0 518 0 q 226 51 318 0 q 82 193 133 102 q 32 386 32 285 q 83 580 32 487 q 228 723 135 673 q 418 773 320 773 m 614 322 q 646 330 631 322 q 670 354 661 338 q 680 386 680 370 q 671 419 680 403 q 646 443 662 435 q 614 452 631 452 q 582 443 597 452 q 557 419 566 435 q 549 386 549 403 q 558 354 549 370 q 582 330 567 338 q 614 322 597 322 "},"ﻝ":{"x_min":1,"x_max":789,"ha":836,"o":"m 573 48 q 594 288 594 120 l 594 1055 l 789 1055 l 789 287 q 755 -21 789 102 q 618 -203 722 -140 q 380 -252 536 -252 q 135 -201 208 -252 q 1 50 1 -108 q 24 206 1 143 l 228 206 q 196 50 196 128 q 261 -54 196 -21 q 380 -84 318 -84 q 500 -53 452 -84 q 573 48 553 -18 "},"ἵ":{"x_min":140,"x_max":789.953125,"ha":836,"o":"m 598 1111 l 789 1111 l 540 856 l 406 856 l 598 1111 m 140 1000 l 140 1119 l 357 1119 l 357 1000 l 234 1000 q 358 907 234 893 l 358 825 q 140 1000 140 825 m 518 760 l 518 247 q 543 175 518 197 q 625 153 568 153 l 664 153 l 664 0 l 611 0 q 379 54 440 0 q 320 257 320 107 l 320 607 l 183 607 l 183 760 l 518 760 "},"ນ":{"x_min":51.25,"x_max":784,"ha":836,"o":"m 177 642 q 220 599 177 599 q 263 642 263 599 q 219 685 263 685 q 177 642 177 685 m 51 -20 l 51 130 q 164 191 114 130 q 193 276 193 225 l 193 498 q 65 637 65 498 q 218 789 65 789 q 391 641 391 789 l 391 189 q 524 141 470 141 q 587 261 587 141 l 587 759 l 784 759 l 784 206 q 526 -20 784 -20 q 352 32 390 -20 q 51 -20 290 -20 "},"˙":{"x_min":325,"x_max":512,"ha":836,"o":"m 325 1075 l 512 1075 l 512 908 l 325 908 l 325 1075 "},"„":{"x_min":101.53125,"x_max":733,"ha":836,"o":"m 521 249 l 733 249 l 733 65 l 600 -195 l 454 -195 l 521 65 l 521 249 m 168 249 l 380 249 l 380 65 l 247 -195 l 101 -195 l 168 65 l 168 249 "},"ӷ":{"x_min":151,"x_max":692.5,"ha":836,"o":"m 348 0 l 151 0 l 151 760 l 692 760 l 692 618 l 348 618 l 348 142 l 544 142 l 544 -194 l 348 -194 l 348 0 "},"δ":{"x_min":66,"x_max":769,"ha":836,"o":"m 221 721 q 123 867 123 764 q 208 1011 123 958 q 444 1064 293 1064 q 568 1055 512 1064 q 575 1054 572 1055 q 679 1031 596 1051 l 679 885 q 662 890 671 888 q 570 916 596 912 q 455 927 510 927 q 345 903 384 927 l 330 893 q 307 846 307 876 q 417 777 307 777 q 673 669 578 777 q 769 378 769 562 q 673 87 769 194 q 417 -20 578 -20 q 161 87 256 -20 q 66 379 66 195 q 160 670 66 557 q 221 721 203 721 m 417 616 q 305 553 346 616 q 264 378 264 490 q 305 204 264 266 q 417 141 346 141 q 529 204 488 141 q 570 378 570 266 q 529 553 570 490 q 417 616 488 616 "},"٢":{"x_min":85.1875,"x_max":780,"ha":836,"o":"m 376 611 q 402 471 394 547 q 424 0 424 268 l 231 0 q 205 471 231 345 q 85 950 156 718 l 272 950 q 319 841 317 844 q 452 752 360 752 q 562 838 530 752 q 589 950 583 895 l 780 950 q 752 793 780 863 q 470 601 672 601 q 376 611 391 601 "},"ᶪ":{"x_min":203.1875,"x_max":630,"ha":836,"o":"m 330 630 l 330 958 l 203 958 l 203 1043 l 455 1043 l 455 630 q 472 559 455 580 q 531 538 490 538 l 630 538 l 630 452 q 592 331 630 371 q 464 292 554 292 l 413 292 l 413 377 l 429 377 q 489 395 472 377 q 506 453 506 414 l 497 453 q 368 493 407 453 q 330 630 330 534 "},"˞":{"x_min":-211.859375,"x_max":629,"ha":836,"o":"m -211 599 l 212 727 l 348 727 l 348 612 q 373 455 348 493 q 470 418 399 418 l 629 418 l 629 296 l 434 296 q 256 371 309 296 q 212 545 212 432 l -211 424 l -211 599 "},"‷":{"x_min":10.84375,"x_max":825.328125,"ha":836,"o":"m 825 760 l 715 760 l 519 1013 l 708 1013 l 825 760 m 574 760 l 464 760 l 268 1013 l 457 1013 l 574 760 m 316 760 l 206 760 l 10 1013 l 199 1013 l 316 760 "},"შ":{"x_min":2,"x_max":775,"ha":836,"o":"m 574 356 q 563 449 574 413 q 532 507 552 485 q 483 536 511 528 q 417 545 454 545 q 355 536 382 545 q 308 506 328 528 q 279 450 289 485 q 270 359 270 414 q 282 264 270 305 q 318 197 295 224 q 376 158 342 171 q 452 145 410 145 q 542 197 510 145 q 574 356 574 250 m 775 332 q 448 0 775 0 q 165 90 259 0 q 72 362 72 181 q 93 514 72 451 q 158 615 115 576 q 267 671 202 653 q 420 689 332 689 q 502 671 465 689 q 569 622 538 654 l 569 799 q 552 882 569 855 q 498 910 536 910 q 459 906 473 910 q 437 898 445 903 q 428 883 430 892 q 426 862 426 874 l 426 788 l 313 788 l 313 863 q 311 884 313 875 q 303 899 309 893 q 284 907 296 904 q 251 911 272 911 q 217 901 230 911 q 197 874 204 892 q 191 829 191 856 q 191 765 191 801 l 2 765 q 191 1051 2 1051 q 296 1022 252 1051 q 365 940 340 993 q 431 1022 389 994 q 528 1051 472 1051 q 775 819 775 1051 l 775 332 "},"⇓":{"x_min":172.5,"x_max":663.5,"ha":836,"o":"m 467 163 l 467 747 l 536 747 l 536 232 l 582 278 l 663 197 l 467 0 l 370 0 l 172 197 l 253 278 l 300 232 l 300 747 l 369 747 l 369 163 l 418 114 l 467 163 "},"р":{"x_min":102,"x_max":775.703125,"ha":836,"o":"m 300 107 l 300 -289 l 102 -289 l 102 760 l 300 760 l 300 645 q 382 744 331 711 q 501 778 433 778 q 703 673 631 778 q 775 379 775 569 q 702 83 775 186 q 494 -20 629 -20 q 385 11 433 -20 q 300 107 336 43 m 577 380 q 540 552 577 490 q 439 615 503 615 q 337 552 374 615 q 300 380 300 490 q 337 208 300 270 q 439 146 374 146 q 540 208 503 146 q 577 380 577 270 "},"⧻":{"x_min":45,"x_max":790,"ha":836,"o":"m 101 516 l 101 808 l 248 808 l 248 516 l 345 516 l 345 808 l 492 808 l 492 516 l 589 516 l 589 808 l 736 808 l 736 516 l 790 516 l 790 355 l 736 355 l 736 62 l 589 62 l 589 355 l 492 355 l 492 62 l 345 62 l 345 355 l 248 355 l 248 62 l 101 62 l 101 355 l 45 355 l 45 516 l 101 516 "},"Ö":{"x_min":62,"x_max":773,"ha":836,"o":"m 417 851 q 305 769 340 851 q 270 505 270 687 q 305 241 270 323 q 417 160 340 160 q 529 241 494 160 q 565 505 565 323 q 529 769 565 687 q 417 851 494 851 m 62 505 q 151 898 62 765 q 417 1031 241 1031 q 683 898 593 1031 q 773 505 773 765 q 683 112 773 245 q 417 -20 593 -20 q 151 112 241 -20 q 62 505 62 245 m 472 1288 l 632 1288 l 632 1121 l 472 1121 l 472 1288 m 204 1288 l 364 1288 l 364 1121 l 204 1121 l 204 1288 "},"ﹸ":{"x_min":202,"x_max":633,"ha":836,"o":"m 486 1071 q 492 1100 492 1085 q 466 1129 492 1129 q 443 1105 443 1129 q 486 1071 443 1080 m 421 985 q 364 1024 385 1001 q 332 1105 332 1059 q 374 1200 332 1167 q 461 1227 409 1227 q 558 1201 526 1227 q 601 1097 601 1166 q 595 1057 601 1078 q 633 1057 607 1057 l 633 949 q 570 949 622 949 q 543 951 556 949 q 475 889 516 918 q 202 811 375 811 l 202 908 q 338 942 280 920 q 421 985 386 959 "},"⊡":{"x_min":34,"x_max":804,"ha":836,"o":"m 304 553 l 530 553 l 530 305 l 304 305 l 304 553 m 687 166 l 687 706 l 149 706 l 149 166 l 687 166 m 34 821 l 804 821 l 804 51 l 34 51 l 34 821 "},"Θ":{"x_min":62,"x_max":773,"ha":836,"o":"m 331 441 l 331 617 l 503 617 l 503 441 l 331 441 m 417 851 q 305 769 340 851 q 270 505 270 687 q 305 241 270 323 q 417 160 340 160 q 529 241 494 160 q 565 505 565 323 q 529 769 565 687 q 417 851 494 851 m 62 505 q 151 898 62 765 q 417 1031 241 1031 q 683 898 593 1031 q 773 505 773 765 q 683 112 773 245 q 417 -20 593 -20 q 151 112 241 -20 q 62 505 62 245 "},"Ř":{"x_min":90,"x_max":835.5625,"ha":836,"o":"m 546 477 q 598 449 576 471 q 652 364 620 427 l 835 0 l 615 0 l 493 255 q 479 285 488 266 q 353 400 426 400 l 290 400 l 290 0 l 90 0 l 90 1013 l 378 1013 q 658 943 573 1013 q 744 718 744 874 q 693 551 744 613 q 546 477 642 490 m 290 845 l 290 568 l 384 568 q 501 600 465 568 q 537 706 537 632 q 501 813 537 781 q 384 845 466 845 l 290 845 m 291 1109 l 141 1288 l 262 1288 l 396 1178 l 530 1288 l 651 1288 l 500 1109 l 291 1109 "},"⍗":{"x_min":4,"x_max":832,"ha":836,"o":"m 4 -159 l 4 1171 l 832 1171 l 832 -159 l 4 -159 m 473 -61 l 734 -61 l 734 1073 l 494 1073 l 494 122 l 581 210 l 663 129 l 473 -61 m 342 1073 l 102 1073 l 102 -61 l 363 -61 l 172 129 l 253 210 l 342 122 l 342 1073 "},"ﭰ":{"x_min":-13,"x_max":598,"ha":836,"o":"m 380 395 q 397 444 397 413 q 370 488 397 468 q 339 498 356 498 q 302 481 319 498 q 285 443 285 462 q 308 396 285 410 q 341 386 324 386 q 380 395 370 386 m -13 153 l 150 153 q 348 173 311 153 q 404 211 394 200 q 418 262 430 241 q 327 239 402 239 q 152 284 209 239 q 86 431 86 339 q 91 496 86 461 q 208 643 107 596 q 346 668 261 668 q 488 634 435 668 q 564 550 528 608 q 598 420 598 496 q 551 149 598 246 q 377 26 518 76 q 204 0 303 0 l -13 0 l -13 153 m 150 753 l 150 906 l 303 906 l 303 753 l 150 753 m 387 753 l 387 906 l 540 906 l 540 753 l 387 753 m 387 990 l 387 1143 l 540 1143 l 540 990 l 387 990 m 150 990 l 150 1143 l 303 1143 l 303 990 l 150 990 "},"ϙ":{"x_min":66,"x_max":769,"ha":836,"o":"m 417 616 q 305 553 346 616 q 264 379 264 491 q 305 204 264 267 q 417 142 346 142 q 529 204 488 142 q 570 379 570 267 q 529 553 570 491 q 417 616 488 616 m 517 -7 l 517 -289 l 319 -289 l 319 -7 q 160 88 224 16 q 66 379 66 195 q 161 670 66 563 q 417 778 256 778 q 673 670 578 778 q 769 379 769 563 q 673 88 769 197 q 517 -7 611 17 "},"✔":{"x_min":50,"x_max":786,"ha":836,"o":"m 178 442 q 213 404 201 442 q 246 333 236 333 q 263 345 254 333 q 571 693 429 590 q 689 738 632 738 q 779 733 764 738 q 786 718 786 731 q 772 691 786 708 q 317 122 390 254 q 202 77 292 77 q 140 92 172 77 q 92 183 126 100 q 50 368 50 289 q 91 416 50 397 q 178 442 149 442 "},"ᾝ":{"x_min":-517,"x_max":744,"ha":836,"o":"m -58 1111 l 132 1111 l -116 856 l -250 856 l -58 1111 m -517 1000 l -517 1119 l -299 1119 l -299 1000 l -423 1000 q -298 907 -423 893 l -298 825 q -517 1000 -517 825 m 94 1013 l 294 1013 l 294 627 l 544 627 l 544 1013 l 744 1013 l 744 0 l 544 0 l 544 451 l 294 451 l 294 0 l 94 0 l 94 1013 m 533 -289 l 411 -289 q 352 -165 352 -289 l 352 -62 l 485 -62 l 485 -166 q 519 -237 485 -237 l 533 -237 l 533 -289 "},"ṅ":{"x_min":117,"x_max":727,"ha":836,"o":"m 727 493 l 727 0 l 530 0 l 530 462 q 506 580 530 545 q 429 616 482 616 q 345 568 376 616 q 314 434 314 520 l 314 0 l 117 0 l 117 760 l 314 760 l 314 645 q 386 743 335 709 q 509 778 437 778 q 672 706 617 778 q 727 493 727 634 m 325 1075 l 512 1075 l 512 908 l 325 908 l 325 1075 "},"ᶼ":{"x_min":174.09375,"x_max":661.265625,"ha":836,"o":"m 185 879 l 567 879 l 567 791 l 315 536 l 567 536 l 567 468 q 583 397 567 418 q 644 376 602 376 l 661 376 l 661 291 l 609 291 q 480 332 519 291 q 444 453 444 369 l 174 453 l 174 539 l 426 796 l 185 796 l 185 879 "},"и":{"x_min":103,"x_max":740,"ha":836,"o":"m 740 760 l 740 0 l 543 0 l 543 485 l 300 0 l 103 0 l 103 760 l 300 760 l 300 274 l 543 760 l 740 760 "},"³":{"x_min":194.15625,"x_max":653,"ha":836,"o":"m 394 707 l 319 707 l 319 806 l 394 806 q 473 822 444 806 q 502 869 502 839 q 475 917 502 900 q 400 935 448 935 q 307 927 354 935 q 214 904 260 920 l 214 1007 q 308 1024 261 1018 q 401 1031 355 1031 q 573 991 511 1031 q 636 883 636 952 q 600 802 636 834 q 497 759 564 770 q 613 711 573 749 q 653 611 653 673 q 587 486 653 529 q 397 443 522 443 q 295 450 346 443 q 194 470 244 457 l 194 575 q 291 547 239 557 q 396 538 342 538 q 486 559 454 538 q 519 619 519 581 q 485 683 519 660 q 394 707 452 707 "},"⇀":{"x_min":45,"x_max":792,"ha":836,"o":"m 792 305 l 45 305 l 45 457 l 601 457 l 513 545 l 594 626 l 792 429 l 792 305 "},"ن":{"x_min":13,"x_max":814,"ha":836,"o":"m 814 172 q 757 -73 814 27 q 613 -193 716 -145 q 395 -225 544 -225 q 195 -182 284 -225 q 13 84 13 -95 q 46 325 13 201 l 241 325 q 214 110 214 229 q 299 -27 214 22 q 396 -57 350 -57 q 495 -43 467 -57 q 596 62 572 -6 q 620 194 620 129 q 588 466 620 398 l 786 466 q 814 172 814 358 m 308 645 l 461 645 l 461 492 l 308 492 l 308 645 "},"≅":{"x_min":60,"x_max":777,"ha":836,"o":"m 777 852 l 777 693 q 677 635 726 654 q 575 617 629 617 q 437 651 514 617 q 415 660 422 658 q 328 691 363 683 q 258 700 293 700 q 158 680 205 700 q 60 618 110 660 l 60 773 q 162 832 112 813 q 268 851 211 851 q 421 814 333 851 l 422 814 l 442 804 q 586 768 521 768 q 680 788 634 768 q 777 852 726 808 m 60 516 l 777 516 l 777 356 l 60 356 l 60 516 m 60 202 l 777 202 l 777 41 l 60 41 l 60 202 "},"♬":{"x_min":12,"x_max":825,"ha":836,"o":"m 822 922 l 825 919 l 825 211 q 679 91 825 91 q 539 176 549 91 q 669 258 539 258 q 773 228 729 258 l 776 228 l 776 598 l 295 598 l 295 219 q 157 84 295 103 l 155 84 q 12 184 12 84 q 143 256 12 256 q 248 225 199 256 l 248 922 l 822 922 m 297 807 l 297 720 l 776 720 l 776 807 l 297 807 "},"͘":{"x_min":646,"x_max":833,"ha":836,"o":"m 646 1075 l 833 1075 l 833 908 l 646 908 l 646 1075 "},"ᶣ":{"x_min":226,"x_max":611,"ha":836,"o":"m 226 601 l 226 877 l 351 877 l 351 618 q 365 552 351 572 q 413 533 380 533 q 467 559 448 533 q 486 634 486 586 l 486 878 l 611 878 l 611 287 l 486 287 l 486 516 q 440 461 473 480 q 363 442 408 442 q 260 482 295 442 q 226 601 226 522 "},"▱":{"x_min":4.0625,"x_max":832.109375,"ha":836,"o":"m 586 240 l 714 482 l 249 482 l 122 240 l 586 240 m 623 163 l 4 163 l 212 559 l 832 559 l 623 163 "},"˨":{"x_min":185.9375,"x_max":650,"ha":836,"o":"m 650 963 l 650 0 l 523 0 l 523 209 l 185 209 l 185 337 l 523 337 l 523 963 l 650 963 "},"؛":{"x_min":271,"x_max":510.4375,"ha":836,"o":"m 465 503 l 271 503 l 271 660 l 384 884 l 510 884 l 465 660 l 465 503 m 465 0 l 271 0 l 271 212 l 465 212 l 465 0 "},"ḥ":{"x_min":117,"x_max":727,"ha":836,"o":"m 727 493 l 727 0 l 530 0 l 530 462 q 506 579 530 544 q 429 615 482 615 q 344 567 375 615 q 314 434 314 519 l 314 0 l 117 0 l 117 1055 l 314 1055 l 314 645 q 386 743 335 708 q 509 778 437 778 q 672 706 617 778 q 727 493 727 634 m 325 -146 l 512 -146 l 512 -313 l 325 -313 l 325 -146 "},"Ἅ":{"x_min":-311,"x_max":814.5,"ha":836,"o":"m 147 1110 l 339 1110 l 89 856 l -44 856 l 147 1110 m -311 1000 l -311 1119 l -93 1119 l -93 1000 l -217 1000 q -92 907 -217 893 l -92 825 q -311 1000 -311 825 m 418 829 l 324 415 l 513 415 l 418 829 m 296 1012 l 541 1012 l 814 0 l 614 0 l 552 250 l 284 250 l 223 0 l 23 0 l 296 1012 "},"Ρ":{"x_min":110,"x_max":778,"ha":836,"o":"m 310 844 l 310 547 l 392 547 q 530 580 490 547 q 570 695 570 613 q 530 810 570 777 q 392 844 490 844 l 310 844 m 110 1012 l 384 1012 q 686 937 594 1012 q 778 695 778 862 q 686 453 778 528 q 384 379 594 379 l 310 379 l 310 0 l 110 0 l 110 1012 "},"ῌ":{"x_min":93,"x_max":743,"ha":836,"o":"m 532 -289 l 410 -289 q 351 -165 351 -289 l 351 -62 l 484 -62 l 484 -166 q 518 -237 484 -237 l 532 -237 l 532 -289 m 93 1013 l 293 1013 l 293 627 l 543 627 l 543 1013 l 743 1013 l 743 0 l 543 0 l 543 451 l 293 451 l 293 0 l 93 0 l 93 1013 "},"Ṙ":{"x_min":90,"x_max":835.5625,"ha":836,"o":"m 546 477 q 598 449 576 471 q 652 364 620 427 l 835 0 l 615 0 l 493 255 q 479 285 488 266 q 353 400 426 400 l 290 400 l 290 0 l 90 0 l 90 1012 l 378 1012 q 658 942 573 1012 q 744 717 744 873 q 693 551 744 613 q 546 477 642 490 m 290 844 l 290 568 l 384 568 q 501 600 465 568 q 537 706 537 632 q 501 812 537 780 q 384 844 466 844 l 290 844 m 290 1288 l 477 1288 l 477 1121 l 290 1121 l 290 1288 "},"ª":{"x_min":174,"x_max":666,"ha":836,"o":"m 533 711 l 533 732 l 464 732 q 356 714 390 732 q 323 658 323 696 q 343 606 323 625 q 400 587 364 587 q 495 622 458 587 q 533 711 533 657 m 533 548 q 458 491 499 510 q 364 473 417 473 q 225 519 276 473 q 174 645 174 566 q 236 781 174 736 q 426 827 299 827 l 533 827 l 533 844 q 502 894 533 877 q 409 911 471 911 q 305 899 354 911 q 213 865 257 888 l 213 993 q 313 1021 263 1012 q 415 1031 363 1031 q 603 972 543 1031 q 664 790 664 914 l 664 486 l 533 486 l 533 548 m 199 405 l 666 405 l 666 290 l 199 290 l 199 405 "},"Ἓ":{"x_min":-561,"x_max":745.640625,"ha":836,"o":"m -109 1111 l 81 856 l -51 856 l -300 1111 l -109 1111 m -561 1000 l -561 1119 l -343 1119 l -343 1000 l -467 1000 q -342 907 -467 893 l -342 825 q -561 1000 -561 825 m 745 0 l 115 0 l 115 1013 l 745 1013 l 745 837 l 315 837 l 315 618 l 704 618 l 704 442 l 315 442 l 315 176 l 745 176 l 745 0 "},"ﻅ":{"x_min":6.609375,"x_max":817,"ha":836,"o":"m 429 703 l 582 703 l 582 550 l 429 550 l 429 703 m 406 152 l 494 152 q 576 173 546 152 q 619 232 619 202 q 604 274 619 254 q 554 294 590 294 q 461 232 502 294 q 406 152 413 160 m 520 -1 l 154 -1 l 6 -1 l 6 152 l 154 152 l 154 1055 l 351 1055 l 351 333 q 559 450 437 450 q 757 379 688 450 q 817 235 817 317 q 692 49 817 123 q 520 -1 606 -1 "},"š":{"x_min":117,"x_max":724,"ha":836,"o":"m 672 735 l 672 561 q 558 615 617 597 q 439 633 498 633 q 338 613 372 633 q 305 556 305 594 q 450 468 305 502 l 457 466 l 514 452 q 673 369 623 426 q 724 214 724 312 q 647 38 724 97 q 415 -20 570 -20 q 275 -8 347 -20 q 129 27 203 3 l 129 200 q 263 143 195 163 q 395 124 331 124 q 501 144 465 124 q 537 203 537 164 q 511 261 537 241 q 390 305 486 282 l 335 317 q 169 398 221 343 q 117 545 117 453 q 196 716 117 655 q 419 777 275 777 q 548 766 483 777 q 672 735 612 756 m 336 856 l 163 1111 l 283 1111 l 418 957 l 553 1111 l 673 1111 l 500 856 l 336 856 "},"➺":{"x_min":37,"x_max":800.171875,"ha":836,"o":"m 523 349 q 800 440 648 399 q 623 249 684 380 q 606 224 617 234 q 581 207 594 214 q 552 201 568 201 q 523 207 536 201 q 498 224 509 214 q 481 249 487 234 q 476 279 476 262 q 481 307 476 294 q 498 332 487 322 q 523 349 509 343 m 44 401 q 37 441 37 420 q 44 480 37 462 q 66 513 53 500 q 100 535 81 527 q 138 544 117 544 q 177 536 159 544 q 799 455 356 455 q 177 345 344 427 q 138 339 159 339 q 100 346 117 339 q 66 368 79 355 q 44 401 51 385 m 523 533 q 498 549 509 539 q 481 574 487 560 q 476 603 476 588 q 481 633 476 619 q 498 657 487 647 q 523 674 509 668 q 552 680 536 680 q 581 674 568 680 q 606 657 594 668 q 623 633 615 649 q 800 442 684 501 q 523 533 615 492 "},"ჟ":{"x_min":66,"x_max":771,"ha":836,"o":"m 771 13 q 413 -273 771 -273 q 153 -201 240 -273 q 66 14 66 -130 l 264 14 q 303 -94 264 -58 q 409 -130 342 -130 q 482 -121 450 -130 q 537 -94 515 -112 q 572 -49 560 -76 q 585 14 585 -22 l 585 584 q 498 575 542 579 q 412 567 454 571 q 397 565 403 565 q 384 564 390 565 q 372 562 379 563 q 356 560 365 562 l 356 556 q 416 517 393 539 q 451 466 438 494 q 468 405 464 438 q 473 332 473 371 q 450 235 473 277 q 379 166 428 194 q 253 124 330 138 q 66 110 176 110 l 66 270 q 310 333 310 270 q 66 529 310 481 l 66 652 l 771 747 l 771 13 "},"ნ":{"x_min":66,"x_max":771,"ha":836,"o":"m 571 359 q 531 524 571 469 q 418 579 492 579 q 307 526 347 579 q 267 365 267 474 q 305 199 267 255 q 416 144 344 144 q 530 197 490 144 q 571 359 571 250 m 771 365 q 415 0 771 0 q 153 84 241 0 q 66 340 66 169 l 66 785 q 132 972 66 910 q 333 1035 199 1035 l 688 1035 l 688 884 l 321 884 q 280 866 294 884 q 267 804 267 848 l 267 652 q 334 704 299 686 q 416 723 369 723 q 771 365 771 723 "},"Ƕ":{"x_min":17,"x_max":819,"ha":836,"o":"m 17 1013 l 187 1013 l 187 626 l 338 626 l 338 1013 l 508 1013 l 508 373 l 508 323 q 519 194 508 220 q 573 161 535 161 q 634 200 619 161 q 649 323 649 238 l 649 626 l 819 626 l 819 373 q 749 73 819 167 q 573 -20 679 -20 q 407 73 477 -20 q 338 373 338 167 l 338 450 l 187 450 l 187 0 l 17 0 l 17 1013 "},"ﮊ":{"x_min":-35,"x_max":837,"ha":836,"o":"m 565 872 l 718 872 l 718 719 l 565 719 l 565 872 m 684 634 l 837 634 l 837 481 l 684 481 l 684 634 m 447 634 l 600 634 l 600 481 l 447 481 l 447 634 m 588 104 q 595 192 595 143 q 558 370 595 277 l 751 370 q 786 200 786 289 q 780 102 786 151 q 493 -244 755 -107 q -35 -342 319 -342 l -35 -176 q 415 -89 272 -176 q 588 104 571 5 "},"1":{"x_min":127,"x_max":769,"ha":836,"o":"m 127 176 l 351 176 l 351 833 l 142 781 l 142 962 l 352 1012 l 546 1012 l 546 176 l 769 176 l 769 0 l 127 0 l 127 176 "},"♏":{"x_min":33.828125,"x_max":802.59375,"ha":836,"o":"m 581 153 q 604 57 581 92 q 668 23 627 23 l 709 23 l 709 88 l 710 88 l 802 -7 l 710 -104 l 709 -102 l 709 -37 l 668 -37 q 545 29 576 -37 q 519 135 519 70 l 519 569 q 495 744 519 744 q 437 684 469 744 q 377 514 406 624 l 377 3 l 309 3 l 309 511 q 301 717 309 688 q 278 747 294 747 q 217 684 260 747 q 174 504 174 622 l 174 4 l 103 4 l 103 603 q 33 814 103 708 l 98 814 q 167 672 151 770 q 219 776 178 724 q 292 828 260 828 q 347 773 320 828 q 374 648 374 718 q 437 770 392 713 q 515 828 482 828 q 562 781 543 828 q 581 615 581 735 l 581 504 l 581 153 l 581 153 "},"ᵈ":{"x_min":206,"x_max":630,"ha":836,"o":"m 505 817 l 505 1044 l 630 1044 l 630 453 l 505 453 l 505 516 q 453 460 485 479 q 378 442 421 442 q 251 500 296 442 q 206 665 206 558 q 251 830 206 772 q 382 888 297 888 q 451 870 420 888 q 505 817 481 852 m 354 761 q 331 664 331 726 q 354 567 331 602 q 417 533 377 533 q 481 567 458 533 q 505 664 505 602 q 481 761 505 726 q 417 796 458 796 q 354 761 377 796 "},"ɩ":{"x_min":98.046875,"x_max":738,"ha":836,"o":"m 292 607 l 98 607 l 98 760 l 491 760 l 491 311 q 516 183 491 215 q 611 153 542 153 l 738 153 l 738 -2 l 579 -2 q 366 77 440 -2 q 292 311 292 159 l 292 607 "},"ǒ":{"x_min":66,"x_max":769,"ha":836,"o":"m 417 616 q 305 553 346 616 q 264 378 264 490 q 305 204 264 266 q 417 141 346 141 q 529 204 488 141 q 570 378 570 266 q 529 553 570 490 q 417 616 488 616 m 66 378 q 161 669 66 562 q 417 777 256 777 q 673 669 578 777 q 769 378 769 562 q 673 87 769 194 q 417 -20 578 -20 q 161 87 256 -20 q 66 378 66 194 m 335 856 l 162 1110 l 283 1110 l 417 956 l 552 1110 l 672 1110 l 499 856 l 335 856 "},"ӡ":{"x_min":74.328125,"x_max":761,"ha":836,"o":"m 210 307 l 475 611 l 91 611 l 91 760 l 698 760 l 698 604 l 432 293 q 584 276 531 293 q 712 174 660 252 q 761 8 761 105 q 657 -219 761 -141 q 353 -298 553 -298 q 213 -285 283 -298 q 74 -247 143 -272 l 74 -46 q 204 -101 139 -82 q 332 -120 269 -120 q 476 -84 426 -120 q 526 18 526 -48 q 475 123 526 87 q 324 158 424 158 l 210 158 l 210 307 "},"ḽ":{"x_min":60.578125,"x_max":741.46875,"ha":836,"o":"m 262 316 l 262 902 l 60 902 l 60 1055 l 460 1055 l 460 316 q 488 189 460 226 q 582 152 516 152 l 741 152 l 741 -1 l 527 -1 q 323 72 385 -1 q 262 316 262 145 m 335 -75 l 499 -75 l 672 -329 l 552 -329 l 417 -177 l 283 -329 l 162 -329 l 335 -75 "},"ī":{"x_min":97,"x_max":790,"ha":836,"o":"m 204 1055 l 632 1055 l 632 927 l 204 927 l 204 1055 m 149 759 l 543 759 l 543 152 l 790 152 l 790 -1 l 97 -1 l 97 152 l 344 152 l 344 606 l 149 606 l 149 759 "},"̢":{"x_min":113,"x_max":459.890625,"ha":836,"o":"m 113 28 l 113 112 l 310 112 l 310 28 q 337 -98 310 -62 q 433 -136 366 -136 l 459 -136 l 459 -289 l 377 -289 q 174 -215 235 -289 q 113 28 113 -141 "},"ӹ":{"x_min":21,"x_max":814.703125,"ha":836,"o":"m 472 1059 l 632 1059 l 632 892 l 472 892 l 472 1059 m 204 1059 l 364 1059 l 364 892 l 204 892 l 204 1059 m 218 325 l 218 149 l 236 149 q 306 169 270 149 q 342 237 342 190 q 306 305 342 285 q 236 325 270 325 l 218 325 m 218 760 l 218 474 l 232 474 q 458 415 376 474 q 541 237 541 357 q 458 59 541 118 q 232 0 376 0 l 21 0 l 21 760 l 218 760 m 616 0 l 616 760 l 814 760 l 814 0 l 616 0 "},"ℙ":{"x_min":50,"x_max":796,"ha":836,"o":"m 121 931 l 121 81 l 227 81 l 227 931 l 121 931 m 50 1012 l 447 1012 q 706 926 616 1012 q 796 682 796 840 q 705 437 796 523 q 447 352 615 352 l 298 352 l 298 0 l 50 0 l 50 1012 m 298 433 l 447 433 q 515 437 483 433 l 515 927 q 447 931 483 931 l 298 931 l 298 433 m 590 907 l 590 456 q 660 500 631 472 q 725 682 725 561 q 660 864 725 803 q 590 907 631 891 "},"ʲ":{"x_min":264,"x_max":572,"ha":836,"o":"m 572 423 q 532 286 572 327 q 401 246 493 246 l 264 246 l 264 331 l 366 331 q 426 351 408 331 q 444 422 444 372 l 444 747 l 315 747 l 315 832 l 572 832 l 572 423 m 572 909 l 444 909 l 444 1039 l 572 1039 l 572 909 "},"ˣ":{"x_min":174.296875,"x_max":661.890625,"ha":836,"o":"m 647 879 l 483 674 l 661 453 l 513 453 l 417 596 l 322 453 l 174 453 l 354 674 l 188 879 l 337 879 l 417 752 l 499 879 l 647 879 "},"ŏ":{"x_min":66,"x_max":769,"ha":836,"o":"m 417 616 q 305 553 346 616 q 264 378 264 490 q 305 204 264 266 q 417 141 346 141 q 529 204 488 141 q 570 378 570 266 q 529 553 570 490 q 417 616 488 616 m 66 378 q 161 669 66 562 q 417 777 256 777 q 673 669 578 777 q 769 378 769 562 q 673 87 769 194 q 417 -20 578 -20 q 161 87 256 -20 q 66 378 66 194 m 192 1089 l 285 1089 q 327 1016 293 1042 q 417 991 360 991 q 506 1016 473 991 q 547 1089 540 1041 l 643 1089 q 583 939 643 991 q 417 887 524 887 q 251 939 310 887 q 192 1089 192 991 "},"❉":{"x_min":23,"x_max":813,"ha":836,"o":"m 500 466 q 535 384 535 432 q 500 301 535 336 q 418 267 466 267 q 335 301 369 267 q 301 384 301 336 q 335 466 301 432 q 418 501 369 501 q 500 466 466 501 m 121 131 l 275 285 l 320 241 l 166 87 l 121 131 m 515 525 l 669 679 l 714 635 l 560 481 l 515 525 m 166 679 l 320 525 l 275 481 l 121 635 l 166 679 m 560 285 l 714 131 l 669 87 l 515 241 l 560 285 m 502 703 q 512 649 512 678 q 502 594 512 619 q 471 548 491 566 q 418 527 447 527 q 365 548 389 527 q 334 594 345 566 q 325 649 325 619 q 334 703 325 678 q 365 750 345 732 q 418 771 389 771 q 471 750 447 771 q 502 703 491 732 m 502 157 q 512 102 512 132 q 502 48 512 73 q 471 1 491 19 q 418 -19 447 -19 q 365 1 389 -19 q 334 48 345 19 q 325 102 325 73 q 334 157 325 132 q 365 203 345 185 q 418 225 389 225 q 471 203 447 225 q 502 157 491 185 m 90 460 q 144 470 115 470 q 199 460 174 470 q 245 429 227 449 q 267 376 267 405 q 245 323 267 347 q 199 292 227 303 q 144 283 174 283 q 90 292 115 283 q 43 323 61 303 q 23 376 23 347 q 43 429 23 405 q 90 460 61 449 m 636 460 q 691 470 661 470 q 745 460 720 470 q 792 429 774 449 q 813 376 813 405 q 792 323 813 347 q 745 292 774 303 q 691 283 720 283 q 636 292 661 283 q 590 323 608 303 q 569 376 569 347 q 590 429 569 405 q 636 460 608 449 "},"ý":{"x_min":39.890625,"x_max":797.40625,"ha":836,"o":"m 482 -82 q 386 -238 442 -189 q 250 -288 330 -288 l 86 -288 l 86 -137 l 166 -137 q 256 -116 227 -137 q 313 -20 284 -95 l 328 20 l 39 759 l 248 759 l 422 265 l 588 759 l 797 759 l 482 -82 m 509 1111 l 701 1111 l 451 856 l 317 856 l 509 1111 "},"ﭥ":{"x_min":-22,"x_max":858,"ha":836,"o":"m 217 542 l 217 695 l 370 695 l 370 542 l 217 542 m 454 542 l 454 695 l 607 695 l 607 542 l 454 542 m 454 780 l 454 933 l 607 933 l 607 780 l 454 780 m 217 780 l 217 933 l 370 933 l 370 780 l 217 780 m 410 48 q 213 0 367 0 l -22 0 l -22 153 l 140 153 q 279 182 250 153 q 313 287 313 216 l 313 435 l 510 435 l 510 287 q 543 182 510 216 q 683 153 573 153 l 858 153 l 858 0 l 610 0 q 410 48 456 0 "},"❒":{"x_min":33,"x_max":804,"ha":836,"o":"m 715 41 l 715 683 l 74 683 l 74 41 l 715 41 m 755 1 l 33 1 l 33 723 l 96 772 l 804 772 l 804 64 l 755 1 "},"∇":{"x_min":-4.0625,"x_max":841.609375,"ha":836,"o":"m 604 815 l 231 815 l 417 258 l 604 815 m 330 0 l -4 965 l 841 965 l 505 0 l 330 0 "},"꜒":{"x_min":186,"x_max":651.046875,"ha":836,"o":"m 186 964 l 651 964 l 651 836 l 314 836 l 314 0 l 186 0 l 186 964 "},"ⱽ":{"x_min":179.03125,"x_max":657.140625,"ha":836,"o":"m 417 546 l 530 1020 l 657 1020 l 505 453 l 330 453 l 179 1020 l 305 1020 l 417 546 "},"Ί":{"x_min":-224.109375,"x_max":720,"ha":836,"o":"m -32 1111 l 158 1111 l -90 856 l -224 856 l -32 1111 m 117 837 l 117 1013 l 720 1013 l 720 837 l 518 837 l 518 176 l 720 176 l 720 0 l 117 0 l 117 176 l 318 176 l 318 837 l 117 837 "},"ӛ":{"x_min":62,"x_max":779,"ha":836,"o":"m 472 1059 l 632 1059 l 632 892 l 472 892 l 472 1059 m 204 1059 l 364 1059 l 364 892 l 204 892 l 204 1059 m 62 361 l 62 442 l 576 442 l 576 448 q 523 579 576 538 q 367 620 471 620 q 233 600 299 620 q 93 537 166 580 l 93 720 q 234 762 163 748 q 386 777 306 777 q 678 675 577 777 q 779 381 779 573 q 682 87 779 195 q 417 -20 585 -20 q 155 79 248 -20 q 62 361 62 179 m 263 293 q 302 174 263 214 q 417 134 341 134 q 526 175 485 134 q 574 293 567 216 l 263 293 "},"ἒ":{"x_min":98.578125,"x_max":726.890625,"ha":836,"o":"m 535 1110 l 726 856 l 593 856 l 344 1110 l 535 1110 m 316 1000 q 98 825 316 825 l 98 907 q 222 1000 222 893 l 98 1000 l 98 1119 l 316 1119 l 316 1000 m 100 211 q 154 344 100 293 q 311 409 208 395 q 171 465 220 422 q 122 576 122 508 q 207 720 122 667 q 444 773 292 773 q 556 766 516 773 q 678 740 596 760 l 678 594 q 556 626 607 617 q 466 636 506 636 q 346 613 386 636 q 306 554 306 591 q 345 502 306 524 q 454 481 384 481 l 557 481 l 557 330 l 454 330 q 327 297 372 330 q 282 221 282 265 q 327 151 282 179 q 463 123 372 123 q 579 131 531 123 q 707 171 627 139 l 707 23 q 561 -8 616 -1 q 431 -15 505 -15 q 189 43 279 -15 q 100 211 100 101 "}," ":{"x_min":0,"x_max":0,"ha":836},"‴":{"x_min":10.84375,"x_max":825.328125,"ha":836,"o":"m 519 760 l 636 1013 l 825 1013 l 629 760 l 519 760 m 10 760 l 128 1013 l 316 1013 l 120 760 l 10 760 m 265 760 l 382 1013 l 571 1013 l 375 760 l 265 760 "},"ἑ":{"x_min":101,"x_max":708.21875,"ha":836,"o":"m 309 1000 l 309 1119 l 526 1119 l 526 1000 l 403 1000 q 527 907 403 893 l 527 825 q 309 1000 309 825 m 101 211 q 155 344 101 293 q 312 409 209 395 q 171 465 220 422 q 123 576 123 508 q 208 720 123 667 q 445 773 293 773 q 557 766 517 773 q 679 740 597 760 l 679 594 q 557 626 608 617 q 467 636 507 636 q 347 613 387 636 q 307 554 307 591 q 346 502 307 524 q 455 481 385 481 l 558 481 l 558 330 l 455 330 q 328 297 373 330 q 283 221 283 265 q 328 151 283 179 q 464 123 373 123 q 580 131 532 123 q 708 171 628 139 l 708 23 q 562 -8 617 -1 q 432 -15 506 -15 q 190 43 280 -15 q 101 211 101 101 "},"ᴝ":{"x_min":27.546875,"x_max":807,"ha":836,"o":"m 522 0 l 27 0 l 27 199 l 491 199 q 608 222 573 199 q 644 299 644 245 q 596 383 644 353 q 463 413 549 413 l 28 413 l 28 612 l 788 612 l 788 413 l 674 413 q 772 341 738 392 q 807 220 807 290 q 735 55 807 111 q 522 0 663 0 "},"Ь":{"x_min":84,"x_max":752,"ha":836,"o":"m 284 160 l 366 160 q 509 192 470 160 q 549 305 549 225 q 509 427 549 394 q 366 460 470 460 l 284 460 l 284 160 m 84 0 l 84 1012 l 284 1012 l 284 619 l 358 619 q 660 544 568 619 q 752 305 752 469 q 660 74 752 149 q 358 0 568 0 l 84 0 "},"ƽ":{"x_min":74.328125,"x_max":761,"ha":836,"o":"m 419 307 q 593 274 512 307 q 712 175 664 244 q 761 9 761 105 q 657 -219 761 -141 q 354 -298 552 -298 q 213 -285 284 -298 q 74 -247 143 -272 l 74 -46 q 205 -101 138 -82 q 333 -120 271 -120 q 476 -84 426 -120 q 526 18 526 -48 q 474 123 526 87 q 323 159 423 159 l 210 159 l 150 159 l 150 760 l 691 760 l 691 618 l 347 618 l 347 307 l 419 307 "},"↢":{"x_min":45,"x_max":791.65625,"ha":836,"o":"m 627 381 l 791 216 l 710 135 l 540 305 l 235 305 l 323 216 l 242 135 l 45 332 l 45 429 l 242 626 l 323 545 l 235 457 l 540 457 l 710 626 l 791 545 l 627 381 "},"̅":{"x_min":0,"x_max":836,"ha":836,"o":"m 836 1049 l 836 920 l 0 920 l 0 1049 l 836 1049 "},"̸":{"x_min":-4.0625,"x_max":828.046875,"ha":836,"o":"m 105 -42 l -4 34 l 718 1057 l 828 979 l 105 -42 "},"ᾯ":{"x_min":-262,"x_max":775,"ha":836,"o":"m 533 -289 l 411 -289 q 352 -165 352 -289 l 352 -62 l 485 -62 l 485 -166 q 519 -237 485 -237 l 533 -237 l 533 -289 m -24 1203 l -62 1228 q -70 1234 -64 1230 q -117 1254 -99 1254 q -154 1232 -142 1254 q -167 1171 -167 1211 l -167 1166 l -262 1166 q -227 1308 -262 1258 q -128 1359 -192 1359 q -79 1349 -104 1359 q -27 1320 -55 1340 l 14 1291 q 41 1275 28 1280 q 64 1270 53 1270 q 102 1291 89 1270 q 116 1352 116 1312 l 116 1357 l 211 1357 q 175 1215 211 1265 q 77 1165 140 1165 q 30 1173 52 1165 q -24 1203 7 1181 m -135 1000 l -135 1119 l 82 1119 l 82 1000 l -41 1000 q 83 907 -41 893 l 83 825 q -135 1000 -135 825 m 61 143 l 223 143 q 104 308 141 216 q 68 530 68 400 q 162 865 68 741 q 416 990 257 990 q 673 865 577 990 q 769 530 769 741 q 732 308 769 400 q 614 143 695 216 l 775 143 l 775 0 l 456 0 l 456 181 q 537 314 511 235 q 564 507 564 394 q 525 731 564 652 q 417 810 487 810 q 310 731 348 810 q 272 507 272 652 q 299 314 272 394 q 382 181 326 233 l 382 0 l 61 0 l 61 143 "},"¤":{"x_min":126.234375,"x_max":758.765625,"ha":836,"o":"m 561 436 q 527 519 561 485 q 443 553 493 553 q 359 519 393 553 q 325 436 325 485 q 359 351 325 386 q 443 317 393 317 q 527 351 493 317 q 561 436 561 386 m 555 636 l 672 751 l 758 664 l 643 548 q 666 492 659 521 q 674 435 674 464 q 666 375 674 403 q 642 323 658 348 l 758 208 l 669 119 l 554 236 q 502 211 529 219 q 443 204 475 204 q 388 211 416 204 q 329 233 359 218 l 213 119 l 126 206 l 241 322 q 218 379 226 350 q 211 435 211 407 q 218 494 211 466 q 242 547 226 521 l 126 662 l 215 751 l 327 635 q 383 659 355 651 q 443 667 411 667 q 496 659 469 667 q 555 636 524 652 "},"p":{"x_min":102,"x_max":775.703125,"ha":836,"o":"m 300 107 l 300 -289 l 102 -289 l 102 760 l 300 760 l 300 645 q 382 744 331 711 q 501 778 433 778 q 703 673 631 778 q 775 379 775 569 q 702 83 775 186 q 494 -20 629 -20 q 385 11 433 -20 q 300 107 336 43 m 577 380 q 540 552 577 490 q 439 615 503 615 q 337 552 374 615 q 300 380 300 490 q 337 208 300 270 q 439 146 374 146 q 540 208 503 146 q 577 380 577 270 "},"Ἤ":{"x_min":-490.421875,"x_max":744,"ha":836,"o":"m -72 1111 l 119 1111 l -130 856 l -264 856 l -72 1111 m -273 1000 q -490 825 -273 825 l -490 907 q -367 1000 -367 893 l -490 1000 l -490 1119 l -273 1119 l -273 1000 m 94 1013 l 294 1013 l 294 627 l 544 627 l 544 1013 l 744 1013 l 744 0 l 544 0 l 544 451 l 294 451 l 294 0 l 94 0 l 94 1013 "},"ﭩ":{"x_min":-22,"x_max":858,"ha":836,"o":"m 421 599 l 459 599 q 496 607 482 599 q 514 634 514 620 q 507 651 514 643 q 486 660 501 660 q 445 634 463 660 q 421 599 424 603 m 470 531 l 309 531 l 244 531 l 244 599 l 310 599 l 310 911 l 397 911 l 397 677 q 488 729 435 729 q 575 697 544 729 q 601 635 601 670 q 546 554 601 586 q 470 531 508 531 m 410 48 q 213 0 367 0 l -22 0 l -22 153 l 140 153 q 279 182 249 153 q 313 287 313 216 l 313 435 l 510 435 l 510 287 q 542 182 510 216 q 683 153 572 153 l 858 153 l 858 0 l 610 0 q 410 48 456 0 "},"►":{"x_min":4,"x_max":832.046875,"ha":836,"o":"m 4 91 l 4 630 l 832 360 l 4 91 "},"Ӭ":{"x_min":103,"x_max":734,"ha":836,"o":"m 439 1288 l 599 1288 l 599 1121 l 439 1121 l 439 1288 m 171 1288 l 331 1288 l 331 1121 l 171 1121 l 171 1288 m 521 593 q 307 851 493 851 q 103 759 202 851 l 103 982 q 312 1031 194 1031 q 626 895 518 1031 q 734 505 734 760 q 626 115 734 250 q 312 -20 518 -20 q 103 28 198 -20 l 103 251 q 308 160 202 160 q 521 417 493 160 l 153 417 l 153 593 l 521 593 "},"῭":{"x_min":134.828125,"x_max":632,"ha":836,"o":"m 326 1361 l 518 1107 l 384 1107 l 134 1361 l 326 1361 m 472 1075 l 632 1075 l 632 908 l 472 908 l 472 1075 m 204 1075 l 364 1075 l 364 908 l 204 908 l 204 1075 "},"ບ":{"x_min":85,"x_max":751.703125,"ha":836,"o":"m 288 638 q 245 682 288 682 q 202 638 202 682 q 245 595 202 595 q 288 638 288 595 m 85 216 q 190 497 85 384 q 85 645 85 523 q 240 778 85 778 q 401 649 401 778 q 341 430 401 520 q 282 227 282 341 q 412 146 282 146 q 553 289 553 146 l 553 759 l 751 759 l 751 290 q 412 -12 751 -12 q 85 216 85 -12 "},"ђ":{"x_min":14,"x_max":775,"ha":836,"o":"m 14 607 l 14 760 l 130 760 l 130 1055 l 327 1055 l 327 760 l 624 760 l 624 607 l 327 607 l 327 406 q 398 504 348 469 q 539 539 449 539 q 706 467 637 539 q 775 199 775 395 q 699 -117 775 18 q 380 -287 623 -253 l 380 -134 q 535 -31 492 -119 q 578 189 578 55 q 550 341 578 306 q 460 376 522 376 q 358 329 389 376 q 327 195 327 282 l 327 0 l 130 0 l 130 607 l 14 607 "},"ϕ":{"x_min":39,"x_max":796,"ha":836,"o":"m 140 669 q 319 765 199 741 l 319 1055 l 517 1055 l 517 765 q 694 669 626 743 q 796 378 796 562 q 694 88 796 214 q 517 -7 637 16 l 517 -289 l 319 -289 l 319 -7 q 140 88 209 14 q 39 378 39 195 q 140 669 39 545 m 319 592 q 271 553 291 582 q 224 378 224 488 q 271 204 224 302 q 319 165 282 182 l 319 592 m 517 592 l 517 165 q 563 204 542 175 q 610 378 610 267 q 563 553 610 458 q 517 592 552 575 "},"y":{"x_min":39.890625,"x_max":797.40625,"ha":836,"o":"m 482 -82 q 386 -238 442 -189 q 250 -288 330 -288 l 86 -288 l 86 -137 l 166 -137 q 256 -116 227 -137 q 313 -20 284 -95 l 328 20 l 39 759 l 248 759 l 422 265 l 588 759 l 797 759 l 482 -82 "},"‗":{"x_min":0,"x_max":836,"ha":836,"o":"m 836 -199 l 836 -328 l 0 -328 l 0 -199 l 836 -199 m 836 -13 l 836 -142 l 0 -142 l 0 -13 l 836 -13 "},"ḓ":{"x_min":61,"x_max":734,"ha":836,"o":"m 536 651 l 536 1055 l 734 1055 l 734 0 l 536 0 l 536 112 q 453 13 504 46 q 334 -20 403 -20 q 132 84 204 -20 q 61 379 61 189 q 133 674 61 571 q 341 778 206 778 q 450 746 402 778 q 536 651 499 714 m 259 377 q 296 205 259 267 q 397 143 332 143 q 498 205 461 143 q 536 377 536 267 q 498 549 536 487 q 397 612 461 612 q 296 549 332 612 q 259 377 259 487 m 336 -74 l 499 -74 l 672 -328 l 552 -328 l 417 -176 l 283 -328 l 162 -328 l 336 -74 "},"✗":{"x_min":89,"x_max":748,"ha":836,"o":"m 657 823 q 671 814 662 823 q 690 790 681 805 q 716 819 707 819 q 739 804 724 819 q 748 783 748 794 q 735 755 748 768 q 513 482 621 631 q 636 241 558 372 q 643 223 643 229 q 626 197 643 210 l 608 184 q 611 167 611 178 q 599 141 611 150 q 578 132 584 132 q 552 146 564 132 q 416 345 486 231 q 199 15 321 222 q 139 -14 181 -14 q 116 9 119 -14 q 89 58 89 24 q 95 119 89 102 q 112 150 97 127 q 351 472 225 326 q 261 718 284 632 q 257 744 257 737 q 267 765 257 751 q 286 780 277 780 q 307 764 294 780 q 319 780 311 773 q 344 788 328 788 q 367 772 362 788 q 446 596 397 679 q 636 809 524 697 q 657 823 649 823 "},"ƅ":{"x_min":30.265625,"x_max":805.703125,"ha":836,"o":"m 570 205 q 607 377 607 267 q 570 549 607 487 q 469 612 533 612 q 367 549 404 612 q 330 377 330 487 q 367 205 330 267 q 469 143 404 143 q 570 205 533 143 m 330 651 q 415 746 366 714 q 524 778 463 778 q 732 674 659 778 q 805 379 805 571 q 733 84 805 189 q 531 -20 661 -20 q 412 13 463 -20 q 330 112 361 46 l 330 0 l 132 0 l 132 633 l 30 724 l 330 1055 l 330 651 "},"ë":{"x_min":62,"x_max":779,"ha":836,"o":"m 746 36 q 605 -5 677 8 q 453 -20 533 -20 q 162 82 263 -20 q 62 376 62 184 q 159 670 62 562 q 423 778 256 778 q 685 677 592 778 q 779 395 779 577 l 779 315 l 264 315 q 316 181 264 225 q 472 137 368 137 q 607 156 541 137 q 746 219 674 176 l 746 36 m 578 464 q 538 583 578 542 q 423 624 499 624 q 314 582 355 624 q 266 464 273 540 l 578 464 m 498 1075 l 658 1075 l 658 908 l 498 908 l 498 1075 m 230 1075 l 390 1075 l 390 908 l 230 908 l 230 1075 "},"б":{"x_min":44,"x_max":769,"ha":836,"o":"m 629 1092 l 703 948 q 645 928 678 938 l 449 928 q 333 889 369 913 q 201 708 221 814 q 417 777 288 777 q 673 669 578 777 q 769 378 769 562 q 673 87 769 194 q 417 -20 578 -20 q 161 87 256 -20 q 66 378 66 195 q 65 420 66 413 l 54 533 q 44 659 44 633 q 45 694 44 684 q 83 846 58 796 q 257 1032 144 971 q 570 1076 339 1076 q 629 1092 605 1076 m 417 616 q 305 553 346 616 q 264 378 264 490 q 305 204 264 266 q 417 141 346 141 q 529 204 488 141 q 570 378 570 266 q 529 553 570 490 q 417 616 488 616 "},"Ẏ":{"x_min":5.359375,"x_max":830.625,"ha":836,"o":"m 5 1012 l 221 1012 l 418 605 l 614 1012 l 830 1012 l 518 398 l 518 0 l 318 0 l 318 398 l 5 1012 m 325 1288 l 512 1288 l 512 1121 l 325 1121 l 325 1288 "},"⇈":{"x_min":8.453125,"x_max":827.53125,"ha":836,"o":"m 418 630 l 534 747 l 630 747 l 827 549 l 746 468 l 658 556 l 658 0 l 506 0 l 506 556 l 418 468 l 330 556 l 330 0 l 178 0 l 178 556 l 89 468 l 8 549 l 206 747 l 302 747 l 418 630 "},"ṝ":{"x_min":197,"x_max":780.234375,"ha":836,"o":"m 780 549 q 704 594 747 579 q 608 609 660 609 q 497 586 544 609 q 424 522 450 564 q 402 460 408 497 q 395 349 395 423 l 395 -1 l 197 -1 l 197 759 l 395 759 l 395 640 q 485 741 424 706 q 626 777 545 777 q 705 767 666 777 q 780 738 744 757 l 780 549 m 324 -147 l 511 -147 l 511 -314 l 324 -314 l 324 -147 m 204 1055 l 632 1055 l 632 927 l 204 927 l 204 1055 "},"ӌ":{"x_min":94,"x_max":719,"ha":836,"o":"m 522 142 l 522 282 l 449 282 q 189 350 293 282 q 186 352 187 351 q 94 551 94 414 l 94 760 l 297 760 l 297 530 q 320 467 297 489 q 335 455 326 462 q 449 429 372 429 l 522 429 l 522 760 l 719 760 l 719 0 l 523 0 l 523 -194 l 327 -194 l 327 142 l 522 142 "},"☻":{"x_min":22,"x_max":813,"ha":836,"o":"m 22 505 q 137 786 22 670 q 417 903 253 903 q 697 786 581 903 q 813 505 813 670 q 697 226 813 342 q 417 111 581 111 q 137 226 253 111 q 22 505 22 342 m 230 503 l 195 503 q 414 277 195 277 q 640 504 640 277 l 602 504 q 417 339 552 339 q 230 503 296 339 m 645 656 q 576 731 645 731 q 500 653 500 731 q 571 580 500 580 q 645 656 645 580 m 337 657 q 267 731 337 731 q 191 653 191 731 q 263 580 191 580 q 337 657 337 580 "},"‐":{"x_min":204,"x_max":632,"ha":836,"o":"m 204 498 l 632 498 l 632 301 l 204 301 l 204 498 "},"⚗":{"x_min":15.140625,"x_max":821.328125,"ha":836,"o":"m 319 723 q 492 765 412 765 q 545 761 520 765 q 685 657 647 741 q 704 576 704 617 q 695 517 704 547 q 609 415 673 445 q 488 406 545 385 q 389 517 431 426 q 352 580 372 554 q 260 575 333 607 q 76 394 177 541 l 15 429 q 319 723 131 637 m 773 310 l 821 3 l 756 3 l 714 244 l 569 244 l 569 3 l 498 3 l 498 244 l 352 244 l 309 3 l 244 3 l 293 310 l 773 310 "},"ʋ":{"x_min":56.8125,"x_max":779,"ha":836,"o":"m 662 697 q 746 566 706 657 q 779 385 779 493 q 694 105 779 212 q 474 -2 609 -2 l 399 -2 q 227 79 288 -2 q 166 311 166 160 l 166 524 l 166 607 l 56 607 l 56 760 l 166 760 l 364 760 l 364 524 l 364 311 q 370 189 364 197 q 418 156 393 153 l 429 158 q 540 223 494 158 q 582 379 582 283 q 550 530 582 452 q 481 636 527 587 l 481 757 q 662 697 597 757 "},"➩":{"x_min":68,"x_max":767.390625,"ha":836,"o":"m 411 246 l 411 361 l 68 361 l 68 603 l 411 603 l 411 717 l 532 717 l 767 482 l 532 246 l 411 246 m 450 400 l 450 285 l 646 482 l 450 678 l 450 564 l 107 564 l 107 400 l 450 400 "},"₰":{"x_min":17.40625,"x_max":820,"ha":836,"o":"m 146 332 l 17 421 q 221 605 120 605 q 340 558 294 605 q 429 485 414 485 q 472 503 456 485 q 347 789 347 623 q 396 965 347 906 q 560 1031 451 1031 q 725 965 666 1031 q 778 789 778 909 q 711 519 778 635 q 820 279 820 408 q 731 53 820 127 q 491 -20 641 -20 l 491 134 q 611 177 566 134 q 644 280 644 208 q 600 383 644 339 q 430 305 529 305 q 302 375 353 305 q 236 430 263 430 q 146 332 204 430 m 576 627 q 611 789 611 700 q 597 867 611 838 q 557 906 579 906 q 516 867 531 906 q 504 789 504 834 q 576 627 504 687 "},"ﻓ":{"x_min":-13,"x_max":598,"ha":836,"o":"m 380 395 q 397 444 397 413 q 370 488 397 468 q 339 498 356 498 q 301 481 319 498 q 285 443 285 462 q 307 396 285 410 q 341 386 323 386 q 380 395 370 386 m -13 153 l 150 153 q 347 173 310 153 q 404 211 394 200 q 418 262 430 241 q 327 239 402 239 q 152 284 209 239 q 86 431 86 339 q 91 496 86 461 q 208 643 107 596 q 346 668 261 668 q 488 634 436 668 q 564 550 528 608 q 598 420 598 496 q 551 149 598 246 q 377 26 518 76 q 204 0 303 0 l -13 0 l -13 153 m 255 946 l 408 946 l 408 793 l 255 793 l 255 946 "},"ц":{"x_min":66,"x_max":782,"ha":836,"o":"m 782 149 l 782 -194 l 633 -194 l 633 0 l 66 0 l 66 760 l 263 760 l 263 149 l 479 149 l 479 760 l 676 760 l 676 149 l 782 149 "},"✝":{"x_min":105,"x_max":722,"ha":836,"o":"m 485 651 l 722 651 l 722 509 l 485 509 l 485 3 l 343 3 l 343 509 l 105 509 l 105 651 l 343 651 l 343 889 l 485 889 l 485 651 "},"w":{"x_min":0,"x_max":836.1875,"ha":836,"o":"m 0 760 l 165 760 l 255 177 l 337 561 l 498 561 l 579 177 l 670 760 l 836 760 l 698 0 l 509 0 l 417 394 l 326 0 l 137 0 l 0 760 "},"⌌":{"x_min":362,"x_max":813,"ha":836,"o":"m 511 577 l 813 577 l 813 479 l 511 479 l 511 577 m 362 428 l 460 428 l 460 102 l 362 102 l 362 428 "},"о":{"x_min":66,"x_max":769,"ha":836,"o":"m 417 616 q 305 553 346 616 q 264 378 264 490 q 305 204 264 266 q 417 141 346 141 q 529 204 488 141 q 570 378 570 266 q 529 553 570 490 q 417 616 488 616 m 66 378 q 161 669 66 562 q 417 777 256 777 q 673 669 578 777 q 769 378 769 562 q 673 87 769 194 q 417 -20 578 -20 q 161 87 256 -20 q 66 378 66 194 "},"⋜":{"x_min":60,"x_max":777,"ha":836,"o":"m 777 165 l 777 0 l 60 226 l 60 385 l 777 613 l 777 448 l 275 307 l 777 165 m 777 647 l 60 647 l 60 808 l 777 808 l 777 647 "},"Д":{"x_min":27,"x_max":808,"ha":836,"o":"m 340 837 l 340 337 q 319 177 340 242 l 515 177 l 515 837 l 340 837 m 27 177 l 94 177 q 125 205 111 177 q 140 268 140 234 q 140 337 140 301 l 140 1013 l 715 1013 l 715 177 l 808 177 l 808 -218 l 635 -218 l 635 1 l 200 1 l 200 -218 l 27 -218 l 27 177 "},"⊄":{"x_min":60,"x_max":777,"ha":836,"o":"m 231 131 q 156 189 189 153 q 60 434 60 294 q 156 679 60 581 q 390 776 252 776 l 481 776 l 548 950 l 669 903 l 621 776 l 777 776 l 777 623 l 561 623 l 415 246 l 777 246 l 777 94 l 391 94 q 356 94 372 94 l 288 -80 l 167 -32 l 231 131 m 421 623 l 390 623 q 264 570 316 623 q 213 434 213 518 q 264 298 213 349 q 288 277 276 286 l 421 623 "},"➵":{"x_min":57.125,"x_max":779.765625,"ha":836,"o":"m 617 474 l 617 594 q 779 455 691 503 q 617 315 691 406 l 617 436 l 443 436 l 443 474 l 617 474 m 153 434 l 442 434 l 346 338 l 57 338 l 153 434 m 153 474 l 57 571 l 346 571 l 442 474 l 153 474 "},"ﭴ":{"x_min":-13,"x_max":757,"ha":836,"o":"m 569 367 q 451 395 540 375 q 271 415 412 403 q 107 420 216 420 l 107 583 q 206 588 155 588 q 433 564 321 588 q 757 460 596 529 l 757 295 q 637 239 724 274 q 502 144 600 223 q 312 40 432 87 q 73 0 204 0 l -13 0 l -13 153 l 54 153 q 271 206 135 153 q 418 282 356 239 q 569 367 458 310 m 191 -435 l 191 -282 l 344 -282 l 344 -435 l 191 -435 m 191 -198 l 191 -45 l 344 -45 l 344 -198 l 191 -198 "},"↙":{"x_min":104,"x_max":724.71875,"ha":836,"o":"m 184 -20 l 104 60 l 104 339 l 231 339 l 231 212 l 618 600 l 724 494 l 336 107 l 463 107 l 463 -20 l 184 -20 "},"Ӂ":{"x_min":8.765625,"x_max":828.234375,"ha":836,"o":"m 337 1013 l 500 1013 l 500 658 l 651 1013 l 828 1013 l 653 601 l 828 0 l 658 0 l 552 364 l 500 241 l 500 0 l 337 0 l 337 241 l 284 364 l 178 0 l 8 0 l 183 601 l 8 1013 l 185 1013 l 337 658 l 337 1013 m 190 1288 l 286 1288 q 332 1226 299 1247 q 417 1206 366 1206 q 502 1226 470 1206 q 548 1288 535 1246 l 645 1288 q 576 1154 635 1200 q 417 1109 518 1109 q 259 1154 318 1109 q 190 1288 200 1200 "},"Ḁ":{"x_min":22.140625,"x_max":813.84375,"ha":836,"o":"m 417 830 l 323 416 l 512 416 l 417 830 m 295 1013 l 540 1013 l 813 1 l 613 1 l 551 251 l 283 251 l 222 1 l 22 1 l 295 1013 m 567 -190 q 523 -296 567 -253 q 417 -340 480 -340 q 312 -296 355 -340 q 269 -190 269 -253 q 312 -85 269 -128 q 417 -42 355 -42 q 523 -85 480 -42 q 567 -190 567 -128 m 477 -190 q 459 -149 477 -166 q 417 -132 442 -132 q 375 -148 392 -132 q 359 -190 359 -165 q 375 -233 359 -216 q 417 -250 392 -250 q 459 -232 442 -250 q 477 -190 477 -215 "},"◜":{"x_min":211,"x_max":625,"ha":836,"o":"m 211 361 q 418 718 211 599 q 625 778 521 778 l 625 695 q 459 646 542 695 q 294 361 294 552 l 211 361 "},"◎":{"x_min":4,"x_max":832,"ha":836,"o":"m 265 624 q 113 361 113 536 q 265 97 113 185 q 417 54 341 54 q 570 97 493 54 q 723 361 723 185 q 570 624 723 536 q 417 668 493 668 q 265 624 341 668 m 372 439 q 327 361 327 413 q 372 282 327 308 q 417 269 395 269 q 463 282 440 269 q 509 361 509 308 q 463 439 509 413 q 417 453 440 453 q 372 439 395 453 m 334 217 q 252 361 252 265 q 334 504 252 456 q 417 528 376 528 q 500 504 459 528 q 584 361 584 456 q 500 217 584 265 q 417 194 459 194 q 334 217 376 194 m 210 2 q 4 361 4 122 q 210 719 4 599 q 417 779 313 779 q 624 719 520 779 q 832 361 832 599 q 624 2 832 122 q 417 -57 520 -57 q 210 2 313 -57 "},"Ĵ":{"x_min":74.390625,"x_max":717.234375,"ha":836,"o":"m 356 1287 l 566 1287 l 717 1109 l 596 1109 l 461 1217 l 327 1109 l 206 1109 l 356 1287 m 74 49 l 74 282 q 198 191 132 222 q 332 160 264 160 q 447 199 410 160 q 484 324 484 238 l 484 836 l 239 836 l 239 1012 l 684 1012 l 684 324 q 606 59 684 139 q 350 -20 528 -20 q 215 -2 285 -20 q 74 49 145 15 "},"❲":{"x_min":310,"x_max":525.921875,"ha":836,"o":"m 393 0 l 525 -132 l 466 -191 l 310 -34 l 310 791 l 466 948 l 525 889 l 393 756 l 393 0 "},"Ҕ":{"x_min":123,"x_max":786,"ha":836,"o":"m 323 645 l 533 645 q 686 609 618 645 q 730 573 715 594 q 786 360 786 502 l 786 28 q 724 -215 786 -142 q 519 -288 663 -288 l 371 -288 l 371 -135 l 463 -135 q 558 -97 530 -135 q 586 29 586 -60 l 586 314 q 562 431 586 397 q 481 465 541 465 l 323 465 l 323 0 l 123 0 l 123 1012 l 753 1012 l 753 836 l 323 836 l 323 645 "},"✮":{"x_min":42.046875,"x_max":794.140625,"ha":836,"o":"m 417 396 l 436 341 l 493 341 l 446 307 l 464 252 l 417 286 l 371 252 l 389 307 l 343 341 l 400 341 l 417 396 m 417 712 l 506 439 l 794 439 l 562 269 l 651 -3 l 417 165 l 185 -3 l 273 269 l 42 439 l 329 439 l 417 712 m 417 555 l 364 391 l 191 391 l 331 288 l 277 123 l 417 225 l 558 123 l 504 288 l 644 391 l 471 391 l 417 555 "},"٦":{"x_min":44.640625,"x_max":791.15625,"ha":836,"o":"m 684 949 q 709 478 684 711 q 791 0 734 244 l 598 0 q 518 478 518 257 q 518 767 518 720 q 338 754 466 754 q 44 787 157 754 l 44 949 q 338 915 166 915 q 684 949 544 915 "},"г":{"x_min":151,"x_max":692.5,"ha":836,"o":"m 348 611 l 348 0 l 151 0 l 151 760 l 692 760 l 692 611 l 348 611 "},"⌏":{"x_min":9,"x_max":460,"ha":836,"o":"m 9 577 l 311 577 l 311 479 l 9 479 l 9 577 m 362 954 l 460 954 l 460 628 l 362 628 l 362 954 "},"Ŀ":{"x_min":153,"x_max":794,"ha":836,"o":"m 568 724 l 794 724 l 794 476 l 568 476 l 568 724 m 153 0 l 153 1012 l 353 1012 l 353 176 l 780 176 l 780 0 l 153 0 "},"ﺀ":{"x_min":282,"x_max":725,"ha":836,"o":"m 294 18 l 294 177 l 433 219 q 325 287 363 236 q 282 412 282 346 q 295 529 282 463 q 390 635 305 580 q 535 672 446 672 q 671 657 609 672 l 671 499 q 555 519 602 519 q 487 500 506 519 q 458 415 458 474 q 558 312 458 337 q 636 312 597 302 q 725 349 685 325 l 725 184 q 524 89 663 143 q 294 18 367 28 "},"ᾙ":{"x_min":-195,"x_max":744,"ha":836,"o":"m 533 -289 l 411 -289 q 352 -165 352 -289 l 352 -62 l 485 -62 l 485 -166 q 519 -237 485 -237 l 533 -237 l 533 -289 m -195 1000 l -195 1119 l 22 1119 l 22 1000 l -101 1000 q 23 907 -101 893 l 23 825 q -195 1000 -195 825 m 94 1013 l 294 1013 l 294 627 l 544 627 l 544 1013 l 744 1013 l 744 0 l 544 0 l 544 451 l 294 451 l 294 0 l 94 0 l 94 1013 "},"ئ":{"x_min":0,"x_max":836,"ha":836,"o":"m 131 503 l 131 587 l 187 606 q 147 642 166 617 q 124 709 124 674 q 137 779 124 755 q 181 827 157 816 q 262 846 227 846 q 354 825 311 846 l 354 743 q 266 763 314 763 q 237 753 248 763 q 222 710 222 739 q 283 637 222 669 l 369 658 l 369 570 l 131 503 m 800 -32 q 659 -174 729 -135 q 351 -237 547 -237 q 135 -196 217 -237 q 0 83 0 -129 q 42 239 0 162 l 234 239 q 191 83 191 150 q 251 -40 191 -24 q 359 -54 302 -54 q 514 -30 453 -54 q 602 31 572 -7 q 638 110 638 76 q 627 160 638 142 q 531 207 604 196 q 378 392 378 229 q 460 559 378 511 q 609 600 531 600 q 799 533 764 600 q 836 382 836 461 l 654 382 q 644 432 654 423 q 595 456 619 456 q 561 438 578 456 q 542 397 542 418 q 627 329 542 346 q 814 208 758 303 q 836 105 836 171 q 800 -32 836 19 "},"ʟ":{"x_min":159,"x_max":676.71875,"ha":836,"o":"m 159 759 l 379 759 l 379 197 l 676 197 l 676 0 l 159 0 l 159 759 "},"Ǟ":{"x_min":22.25,"x_max":813.75,"ha":836,"o":"m 472 1223 l 632 1223 l 632 1056 l 472 1056 l 472 1223 m 204 1223 l 364 1223 l 364 1056 l 204 1056 l 204 1223 m 204 1368 l 632 1368 l 632 1240 l 204 1240 l 204 1368 m 417 829 l 323 415 l 512 415 l 417 829 m 295 1012 l 540 1012 l 813 0 l 613 0 l 551 250 l 283 250 l 222 0 l 22 0 l 295 1012 "},"⋧":{"x_min":60,"x_max":777,"ha":836,"o":"m 60 643 l 60 808 l 777 582 l 777 422 l 488 331 l 574 301 l 510 109 q 586 98 550 98 q 680 118 634 98 q 777 183 726 138 l 777 24 q 677 -34 726 -15 q 575 -53 629 -53 q 462 -28 524 -53 l 398 -219 l 262 -173 l 328 22 q 258 31 293 31 q 158 11 205 31 q 60 -51 110 -8 l 60 103 q 162 163 112 144 q 268 182 211 182 q 375 162 315 182 l 425 310 l 60 194 l 60 359 l 561 501 l 60 643 "},"Җ":{"x_min":8.765625,"x_max":828,"ha":836,"o":"m 8 0 l 183 601 l 8 1013 l 185 1013 l 337 658 l 337 1013 l 500 1013 l 500 658 l 650 1013 l 828 1013 l 652 601 l 776 177 l 828 177 l 828 -218 l 665 -218 l 665 0 l 658 0 l 552 364 l 500 242 l 500 0 l 337 0 l 337 242 l 284 364 l 178 0 l 8 0 "},"❍":{"x_min":24,"x_max":811,"ha":836,"o":"m 64 361 q 160 128 64 225 q 393 32 256 32 q 626 128 530 32 q 723 361 723 225 q 678 527 723 448 q 555 649 634 606 q 393 692 476 692 q 231 649 310 692 q 108 527 152 606 q 64 361 64 448 m 417 -7 q 392 -7 405 -7 q 132 100 240 -7 q 24 361 24 208 q 73 546 24 457 q 212 683 123 635 q 392 731 301 731 q 417 731 405 731 q 440 731 429 731 q 623 683 534 731 q 761 547 712 635 q 811 361 811 458 q 702 100 811 208 q 440 -7 594 -7 q 417 -7 429 -7 "},"€":{"x_min":3.59375,"x_max":730,"ha":836,"o":"m 141 685 q 270 942 171 854 q 528 1031 369 1031 q 634 1018 584 1031 q 730 982 683 1006 l 730 759 q 632 836 679 812 q 532 861 584 861 q 412 816 459 861 q 343 685 364 772 l 643 685 l 586 557 l 327 557 q 326 533 326 546 q 326 496 326 521 q 326 476 326 487 q 326 454 326 465 l 541 454 l 484 327 l 343 327 q 408 195 359 241 q 531 150 457 150 q 631 174 584 150 q 730 251 679 198 l 730 28 q 635 -7 685 4 q 528 -20 585 -20 q 270 69 369 -20 q 141 327 171 158 l 3 327 l 60 454 l 125 454 q 125 474 125 463 q 125 505 125 484 q 125 535 125 524 q 125 557 125 546 l 3 557 l 60 685 l 141 685 "},"ﮑ":{"x_min":-20,"x_max":862,"ha":836,"o":"m 553 111 l 537 88 q 284 0 478 0 l -20 0 l -20 153 l 271 153 q 402 215 374 153 q 413 263 413 239 q 376 335 413 290 l 202 549 q 125 691 125 643 q 131 737 125 711 q 230 844 151 811 l 736 1055 l 736 873 l 392 734 q 332 681 328 709 q 385 596 335 656 l 721 190 q 762 163 736 173 q 830 153 792 153 l 862 153 l 862 0 l 806 0 q 598 60 653 0 l 553 111 "},"Ἀ":{"x_min":10.5625,"x_max":813.25,"ha":836,"o":"m 228 1000 q 10 825 228 825 l 10 907 q 134 1000 134 893 l 10 1000 l 10 1119 l 228 1119 l 228 1000 m 417 829 l 322 415 l 512 415 l 417 829 m 295 1012 l 539 1012 l 813 0 l 613 0 l 550 250 l 282 250 l 221 0 l 22 0 l 295 1012 "},"С":{"x_min":103,"x_max":733,"ha":836,"o":"m 733 28 q 633 -7 685 4 q 523 -20 581 -20 q 210 115 318 -20 q 103 505 103 250 q 210 895 103 760 q 523 1031 318 1031 q 633 1018 581 1031 q 733 982 686 1006 l 733 759 q 632 828 681 806 q 532 851 584 851 q 366 763 422 851 q 311 505 311 676 q 366 247 311 334 q 532 160 422 160 q 632 182 584 160 q 733 251 681 204 l 733 28 "},"◓":{"x_min":4,"x_max":832,"ha":836,"o":"m 87 361 q 252 74 87 169 q 417 26 335 26 q 582 74 500 26 q 749 361 749 170 l 87 361 m 210 2 q 4 361 4 122 q 210 719 4 599 q 417 779 313 779 q 624 719 520 779 q 832 361 832 599 q 624 2 832 122 q 417 -57 520 -57 q 210 2 313 -57 "},"Ӓ":{"x_min":22.25,"x_max":813.75,"ha":836,"o":"m 417 829 l 323 415 l 512 415 l 417 829 m 295 1012 l 540 1012 l 813 0 l 613 0 l 551 250 l 283 250 l 222 0 l 22 0 l 295 1012 m 472 1288 l 632 1288 l 632 1121 l 472 1121 l 472 1288 m 204 1288 l 364 1288 l 364 1121 l 204 1121 l 204 1288 "},"◭":{"x_min":4.3125,"x_max":832.359375,"ha":836,"o":"m 418 24 l 716 24 l 418 619 l 418 24 m 4 -53 l 418 774 l 832 -53 l 4 -53 "},"ᵄ":{"x_min":201,"x_max":635,"ha":836,"o":"m 375 678 q 473 693 445 678 q 501 748 501 709 q 481 793 501 776 q 429 811 462 811 q 352 777 379 811 q 325 685 325 744 l 325 678 l 375 678 m 201 634 l 201 877 l 325 877 l 325 829 q 382 873 348 858 q 461 888 418 888 q 589 849 543 888 q 635 742 635 811 q 579 632 635 668 q 411 597 525 597 l 325 597 l 325 578 q 347 537 325 551 q 411 524 369 524 q 498 534 456 524 q 586 565 541 544 l 586 471 q 502 449 545 456 q 411 442 460 442 q 248 484 295 442 q 201 634 201 526 "},"Ὕ":{"x_min":-589,"x_max":830.640625,"ha":836,"o":"m -130 1111 l 60 1111 l -188 856 l -322 856 l -130 1111 m -589 1000 l -589 1119 l -371 1119 l -371 1000 l -495 1000 q -370 907 -495 893 l -370 825 q -589 1000 -589 825 m 5 1012 l 221 1012 l 417 605 l 614 1012 l 830 1012 l 518 398 l 518 0 l 318 0 l 318 398 l 5 1012 "},"♣":{"x_min":34,"x_max":801.96875,"ha":836,"o":"m 418 921 q 594 795 538 921 q 602 735 602 766 q 536 580 602 670 l 503 547 l 504 547 q 592 563 545 563 l 603 563 q 789 450 735 563 q 801 379 801 413 q 685 207 801 265 q 623 197 663 200 q 432 350 489 197 l 431 350 l 431 344 q 477 93 431 153 l 477 90 l 360 90 l 357 93 q 405 350 405 164 l 405 352 l 403 352 q 210 197 347 197 q 47 309 104 197 q 34 379 34 347 q 170 556 34 509 q 235 563 207 563 l 241 563 q 331 547 288 563 l 334 547 l 334 548 q 271 626 287 588 q 238 733 238 688 l 238 741 q 357 911 238 853 q 418 921 397 921 "},"ᴹ":{"x_min":191,"x_max":644,"ha":836,"o":"m 191 1020 l 341 1020 l 417 770 l 493 1020 l 644 1020 l 644 453 l 535 453 l 535 907 l 467 659 l 367 659 l 300 907 l 300 453 l 191 453 l 191 1020 "},"¶":{"x_min":47.09375,"x_max":722,"ha":836,"o":"m 369 1013 l 722 1013 l 722 -133 l 592 -133 l 592 913 l 464 913 l 464 -133 l 336 -133 l 336 440 q 122 531 196 457 q 47 726 47 605 q 135 934 47 855 q 369 1013 223 1013 "},"ﻔ":{"x_min":-13,"x_max":850,"ha":836,"o":"m 535 553 q 660 458 635 518 q 677 326 677 417 q 661 243 677 287 q 592 165 651 214 q 697 153 620 153 l 850 153 l 850 0 l 636 0 q 418 38 544 0 q 201 0 293 0 l -13 0 l -13 153 l 140 153 q 244 163 220 153 q 175 243 203 180 q 162 326 162 275 q 191 461 162 412 q 293 551 233 532 q 419 568 350 568 q 535 553 494 568 m 418 414 q 386 405 397 414 q 361 376 369 391 q 348 331 348 349 q 364 288 348 307 q 418 241 393 254 q 467 288 441 257 q 484 331 484 308 q 475 376 484 355 q 445 407 467 393 q 418 414 435 414 m 334 831 l 487 831 l 487 678 l 334 678 l 334 831 "},"☁":{"x_min":37,"x_max":800,"ha":836,"o":"m 521 311 l 529 311 q 668 215 620 311 l 677 179 q 715 194 693 194 q 772 138 772 183 q 757 96 772 117 q 800 56 800 86 l 800 45 q 759 4 792 4 l 37 4 l 37 8 q 116 79 60 8 q 157 96 135 96 l 170 96 l 166 116 q 232 181 166 161 l 248 182 l 266 182 l 264 186 q 348 284 264 247 l 376 288 q 415 270 396 288 q 521 311 465 311 "},"Ụ":{"x_min":72,"x_max":764,"ha":836,"o":"m 72 374 l 72 1013 l 272 1013 l 272 324 q 310 205 272 248 q 417 162 349 162 q 525 205 486 162 q 564 324 564 248 l 564 1013 l 764 1013 l 764 374 q 681 74 764 168 q 417 -19 599 -19 q 154 74 236 -19 q 72 374 72 168 m 325 -146 l 512 -146 l 512 -313 l 325 -313 l 325 -146 "},"­":{"x_min":204,"x_max":632,"ha":836,"o":"m 204 498 l 632 498 l 632 301 l 204 301 l 204 498 "},"خ":{"x_min":60,"x_max":812,"ha":836,"o":"m 60 574 q 379 617 247 617 q 710 580 577 617 l 710 453 q 404 348 529 453 q 255 38 255 223 q 339 -139 255 -76 q 537 -193 410 -193 q 812 -117 675 -193 l 812 -272 q 540 -340 710 -340 q 161 -207 276 -340 q 73 46 73 -104 q 170 352 73 216 q 295 469 204 398 q 215 463 269 469 q 60 422 123 450 l 60 574 m 311 865 l 464 865 l 464 712 l 311 712 l 311 865 "},"ḳ":{"x_min":118,"x_max":812.203125,"ha":836,"o":"m 118 1055 l 316 1055 l 316 501 l 555 760 l 795 760 l 508 476 l 812 0 l 592 0 l 383 355 l 316 290 l 316 0 l 118 0 l 118 1055 m 358 -146 l 545 -146 l 545 -313 l 358 -313 l 358 -146 "},"Ѝ":{"x_min":81,"x_max":754,"ha":836,"o":"m 754 1013 l 754 0 l 578 0 l 578 736 l 294 0 l 81 0 l 81 1013 l 257 1013 l 257 276 l 539 1013 l 754 1013 m 405 1288 l 540 1109 l 406 1109 l 213 1288 l 405 1288 "},"̯":{"x_min":193,"x_max":644,"ha":836,"o":"m 644 -332 l 550 -332 q 509 -259 542 -285 q 418 -234 475 -234 q 328 -259 362 -234 q 287 -332 295 -284 l 193 -332 q 252 -182 193 -234 q 418 -130 311 -130 q 584 -182 525 -130 q 644 -332 644 -234 "},"❦":{"x_min":44,"x_max":792,"ha":836,"o":"m 481 616 q 487 666 487 642 q 470 724 487 702 q 428 742 458 742 q 399 731 412 742 q 389 708 389 723 q 412 658 389 677 q 481 616 453 627 m 514 549 q 477 465 502 508 q 576 501 529 501 q 677 457 645 501 q 702 371 702 423 q 531 186 702 251 q 448 111 448 154 q 505 57 448 57 q 578 80 569 57 q 636 153 606 153 q 671 103 671 153 q 497 18 671 18 q 282 102 384 18 q 173 332 173 192 q 316 529 173 529 q 418 451 373 529 q 469 571 460 534 q 286 692 414 597 q 208 720 248 720 q 127 677 162 720 q 105 619 105 649 q 116 588 105 598 q 128 561 128 577 q 113 538 128 548 q 83 523 94 523 q 52 547 65 523 q 44 602 44 561 q 107 717 44 666 q 223 759 159 759 q 308 738 281 759 l 350 707 q 372 769 350 752 q 438 787 396 787 q 508 753 481 787 q 536 669 536 716 q 527 592 536 625 q 607 583 560 583 q 671 601 648 583 q 697 638 697 621 q 685 683 697 672 q 662 714 662 702 q 674 760 662 744 q 722 782 691 782 q 780 743 757 782 q 792 696 792 725 q 713 576 792 629 q 594 542 660 542 q 514 549 558 542 "},"✴":{"x_min":24.421875,"x_max":811.765625,"ha":836,"o":"m 417 777 l 458 480 l 696 662 l 515 423 l 811 383 l 515 343 l 696 104 l 458 286 l 417 -10 l 377 286 l 139 104 l 320 343 l 24 383 l 320 423 l 139 662 l 377 480 l 417 777 "},"ᶹ":{"x_min":190.5,"x_max":646,"ha":836,"o":"m 572 844 q 625 771 600 822 q 646 670 646 730 q 592 513 646 573 q 454 452 538 452 l 406 452 q 297 498 336 452 q 259 628 259 543 l 259 747 l 259 793 l 190 793 l 190 878 l 258 878 l 384 878 l 384 747 l 384 628 q 387 559 384 564 q 418 541 402 539 l 425 542 q 496 579 466 542 q 522 666 522 612 q 502 750 522 707 q 458 809 487 782 l 458 877 q 572 844 531 877 "},"♌":{"x_min":41,"x_max":794.1875,"ha":836,"o":"m 176 236 q 264 234 219 217 q 328 296 309 252 q 330 385 347 341 q 269 448 313 429 q 180 450 225 468 q 116 389 135 433 q 115 301 97 345 q 176 236 132 256 m 272 674 q 338 830 272 770 q 511 891 404 891 q 678 825 613 891 q 744 654 744 759 q 658 392 744 542 q 572 135 572 243 q 652 61 572 61 q 754 113 695 61 l 794 70 q 652 -1 718 -1 q 550 34 593 -1 q 508 137 508 70 q 593 399 508 256 q 678 658 678 542 q 629 787 678 738 q 502 837 580 837 q 381 790 426 837 q 337 667 337 744 q 350 588 337 631 q 379 508 364 545 q 406 384 406 449 q 387 271 406 319 q 288 175 357 202 q 150 177 218 148 q 54 278 82 207 q 41 344 41 311 q 57 415 41 380 q 157 511 87 483 q 312 499 236 541 q 299 565 326 499 q 272 674 272 631 "},"⊋":{"x_min":60,"x_max":777,"ha":836,"o":"m 446 896 q 680 799 585 896 q 777 555 777 702 q 680 310 777 415 q 558 231 629 254 l 621 180 l 585 134 l 777 134 l 777 -27 l 456 -27 l 339 -173 l 214 -73 l 251 -27 l 60 -27 l 60 134 l 379 134 l 443 214 l 60 214 l 60 367 l 446 367 q 572 419 519 367 q 624 555 624 469 q 572 690 624 638 q 446 743 520 743 l 60 743 l 60 896 l 446 896 "},"Ƨ":{"x_min":87,"x_max":752,"ha":836,"o":"m 493 444 q 395 406 493 444 q 317 353 344 387 q 290 273 290 318 q 330 179 290 213 q 445 146 371 146 q 593 173 518 146 q 748 258 668 201 l 748 51 q 602 -1 677 16 q 451 -20 526 -20 q 177 55 268 -20 q 87 284 87 131 q 144 471 87 397 q 324 589 202 545 l 410 622 q 527 683 499 655 q 556 752 556 710 q 517 835 556 806 q 406 865 478 865 q 274 841 341 865 q 143 772 208 817 l 143 967 q 282 1015 212 999 q 421 1031 351 1031 q 663 952 575 1031 q 752 735 752 873 q 698 565 752 628 q 493 444 645 501 "},"⚋":{"x_min":56,"x_max":781,"ha":836,"o":"m 56 102 l 351 102 l 351 5 l 56 5 l 56 102 m 486 102 l 781 102 l 781 5 l 486 5 l 486 102 "},"У":{"x_min":18.515625,"x_max":816.71875,"ha":836,"o":"m 492 205 q 395 50 450 101 q 260 0 339 0 l 125 0 l 125 176 l 179 176 q 251 186 218 176 q 311 268 284 196 l 348 366 l 18 1012 l 225 1012 l 439 591 l 609 1013 l 816 1013 l 492 205 "},"ᾢ":{"x_min":43,"x_max":793,"ha":836,"o":"m 532 -289 l 410 -289 q 351 -165 351 -289 l 351 -62 l 484 -62 l 484 -166 q 518 -237 484 -237 l 532 -237 l 532 -289 m 536 1111 l 728 856 l 594 856 l 344 1111 l 536 1111 m 316 1000 q 98 825 316 825 l 98 907 q 222 1000 222 893 l 98 1000 l 98 1119 l 316 1119 l 316 1000 m 504 451 q 553 142 504 142 q 584 160 575 142 q 602 377 602 197 q 543 759 602 557 l 720 759 q 793 351 793 588 q 714 36 793 113 q 570 -19 657 -19 q 418 101 451 -19 q 266 -19 384 -19 q 121 36 179 -19 q 43 351 43 113 q 115 759 43 588 l 292 759 q 234 377 234 557 q 251 160 234 197 q 281 142 260 142 q 331 451 331 142 l 504 451 "},"ү":{"x_min":38.234375,"x_max":796.75,"ha":836,"o":"m 38 760 l 247 760 l 417 266 l 587 760 l 796 760 l 516 21 l 516 -289 l 319 -289 l 319 21 l 38 760 "},"Ί":{"x_min":-224.109375,"x_max":720,"ha":836,"o":"m -32 1111 l 158 1111 l -90 856 l -224 856 l -32 1111 m 117 837 l 117 1013 l 720 1013 l 720 837 l 518 837 l 518 176 l 720 176 l 720 0 l 117 0 l 117 176 l 318 176 l 318 837 l 117 837 "},"⇑":{"x_min":172.5,"x_max":663.5,"ha":836,"o":"m 369 583 l 369 0 l 300 0 l 300 514 l 253 468 l 172 549 l 370 747 l 467 747 l 663 549 l 582 468 l 536 514 l 536 0 l 467 0 l 467 583 l 418 632 l 369 583 "},"⅓":{"x_min":31.578125,"x_max":789,"ha":836,"o":"m 37 657 l 190 657 l 190 1025 l 40 996 l 40 1097 l 191 1125 l 323 1125 l 323 657 l 476 657 l 476 559 l 37 559 l 37 657 m 56 339 l 31 419 l 749 597 l 774 516 l 56 339 m 530 71 l 455 71 l 455 170 l 530 170 q 609 186 580 170 q 638 233 638 203 q 611 281 638 264 q 536 299 584 299 q 443 291 490 299 q 350 268 396 284 l 350 371 q 444 388 397 382 q 537 395 491 395 q 709 355 647 395 q 772 247 772 316 q 736 166 772 198 q 633 123 700 134 q 749 75 709 113 q 789 -24 789 37 q 723 -149 789 -106 q 533 -193 658 -193 q 431 -185 482 -193 q 330 -165 380 -178 l 330 -60 q 427 -88 375 -79 q 532 -98 478 -98 q 622 -76 590 -98 q 655 -16 655 -54 q 621 47 655 24 q 530 71 588 71 "},"Ģ":{"x_min":79,"x_max":766,"ha":836,"o":"m 424 -126 l 616 -126 l 496 -334 l 364 -334 l 424 -126 m 591 184 l 591 377 l 454 377 l 454 545 l 766 545 l 766 81 q 638 6 708 31 q 489 -19 569 -19 q 186 117 293 -19 q 79 506 79 254 q 187 896 79 761 q 499 1032 295 1032 q 619 1014 560 1032 q 729 964 678 997 l 729 742 q 633 824 687 796 q 513 852 578 852 q 343 766 399 852 q 287 506 287 680 q 341 249 287 337 q 499 161 395 161 q 553 166 530 161 q 591 184 576 172 "},"ᾇ":{"x_min":37,"x_max":790,"ha":836,"o":"m 465 -289 l 343 -289 q 284 -164 284 -289 l 284 -62 l 417 -62 l 417 -166 q 451 -236 417 -236 l 465 -236 l 465 -289 m 419 1202 l 382 1227 q 374 1233 380 1229 q 326 1252 345 1252 q 289 1231 302 1252 q 277 1171 277 1211 l 277 1165 l 182 1165 q 216 1308 182 1258 q 315 1359 251 1359 q 364 1349 340 1359 q 417 1319 388 1340 l 458 1290 q 485 1275 473 1280 q 509 1270 498 1270 q 546 1291 533 1270 q 560 1351 560 1312 l 560 1357 l 655 1357 q 620 1214 655 1264 q 521 1164 585 1164 q 474 1172 496 1164 q 419 1202 452 1180 m 310 1000 l 310 1119 l 527 1119 l 527 999 l 403 999 q 527 906 403 893 l 527 825 q 310 1000 310 825 m 565 686 q 339 776 496 776 q 113 671 211 776 q 37 376 37 589 q 113 82 37 188 q 307 -17 184 -17 q 480 11 445 -17 q 542 76 509 35 q 557 56 545 69 q 720 0 612 0 l 790 0 l 790 153 l 734 153 q 668 264 688 153 l 650 368 l 781 760 l 589 760 l 565 686 m 471 399 l 404 193 q 343 149 390 149 q 258 201 295 149 q 219 375 219 257 q 258 551 219 489 q 342 613 298 613 q 451 510 432 613 l 471 399 "},"⍚":{"x_min":4,"x_max":832,"ha":836,"o":"m 155 496 l 417 233 l 680 496 l 417 759 l 155 496 m 4 496 l 417 910 l 832 496 l 417 82 l 4 496 m 832 -159 l 4 -159 l 4 -61 l 832 -61 l 832 -159 "},"؟":{"x_min":114,"x_max":677.96875,"ha":836,"o":"m 538 192 l 357 192 l 357 0 l 538 0 l 538 192 m 356 271 l 538 271 l 538 376 q 516 490 538 443 q 441 591 495 538 l 380 651 q 322 720 337 693 q 307 776 307 747 q 338 844 307 821 q 431 868 369 868 q 550 843 488 868 q 677 772 613 819 l 677 954 q 543 1011 611 992 q 406 1031 475 1031 q 191 967 269 1031 q 114 791 114 903 q 137 695 114 739 q 223 588 160 650 l 283 530 q 342 456 329 485 q 356 387 356 428 q 356 372 356 380 q 356 355 356 364 l 356 271 "},"⁵":{"x_min":199.109375,"x_max":641,"ha":836,"o":"m 222 1019 l 598 1019 l 598 921 l 333 921 l 333 816 q 368 824 349 821 q 409 827 387 827 q 576 773 511 827 q 641 635 641 720 q 571 494 641 546 q 381 443 501 443 q 292 449 337 443 q 199 467 246 455 l 199 568 q 278 545 233 553 q 359 537 318 537 q 469 562 431 537 q 507 635 507 587 q 469 706 507 679 q 369 733 432 733 q 296 725 333 733 q 222 703 259 718 l 222 1019 "},"ớ":{"x_min":6,"x_max":830,"ha":836,"o":"m 557 576 l 557 671 q 627 624 603 637 q 670 612 652 612 q 713 632 696 612 q 730 685 730 652 q 724 737 730 711 q 709 791 719 763 l 815 791 q 826 721 822 753 q 830 662 830 690 q 798 542 830 584 q 709 501 767 501 q 636 519 673 501 q 557 576 599 537 m 357 616 q 245 553 286 616 q 204 378 204 490 q 245 204 204 266 q 357 141 286 141 q 469 204 428 141 q 510 378 510 266 q 469 553 510 490 q 357 616 428 616 m 6 378 q 101 669 6 562 q 357 777 196 777 q 613 669 518 777 q 709 378 709 562 q 613 87 709 194 q 357 -20 518 -20 q 101 87 196 -20 q 6 378 6 194 m 438 1110 l 629 1110 l 380 856 l 246 856 l 438 1110 "},"ჶ":{"x_min":18,"x_max":817,"ha":836,"o":"m 618 493 q 606 557 618 537 q 570 578 594 578 l 516 578 q 493 537 493 578 l 493 226 q 510 164 493 184 q 561 145 527 145 q 606 165 595 145 q 618 226 618 185 l 618 493 m 817 286 q 580 0 817 0 q 511 12 540 0 l 511 1 q 435 -204 511 -136 q 214 -272 359 -272 l 214 -129 q 267 -121 243 -129 q 309 -98 292 -114 q 337 -60 327 -83 q 347 -8 347 -38 l 347 538 q 340 568 347 560 q 323 579 334 577 l 256 579 q 228 555 239 579 q 218 484 218 532 l 218 280 q 300 167 218 167 l 300 21 q 18 287 18 21 l 18 442 q 253 723 18 723 q 417 663 361 723 q 485 708 444 694 q 581 722 526 722 q 817 443 817 722 l 817 286 "},"ٿ":{"x_min":18,"x_max":828,"ha":836,"o":"m 818 366 q 828 228 828 304 q 704 35 828 132 q 408 -24 628 -24 q 137 11 243 -24 q 18 217 18 51 q 34 344 18 274 l 221 344 q 204 217 204 269 q 273 136 204 168 q 405 120 308 120 q 564 166 489 120 q 643 274 643 215 q 631 366 643 333 l 818 366 m 227 444 l 227 597 l 380 597 l 380 444 l 227 444 m 465 444 l 465 597 l 618 597 l 618 444 l 465 444 m 465 681 l 465 834 l 618 834 l 618 681 l 465 681 m 227 681 l 227 834 l 380 834 l 380 681 l 227 681 "},"á":{"x_min":64,"x_max":751,"ha":836,"o":"m 474 357 q 319 328 363 357 q 276 230 276 299 q 306 148 276 179 q 388 118 336 118 q 510 177 467 118 q 554 343 554 236 l 554 357 l 474 357 m 751 433 l 751 0 l 554 0 l 554 84 q 461 7 518 34 q 337 -20 405 -20 q 136 48 208 -20 q 64 239 64 117 q 150 436 64 373 q 416 500 236 500 l 554 500 l 554 533 q 519 606 554 581 q 416 631 484 631 q 278 613 345 631 q 138 555 211 595 l 138 725 q 272 765 204 752 q 416 778 340 778 q 676 702 601 778 q 751 433 751 627 m 510 1111 l 700 1111 l 451 856 l 318 856 l 510 1111 "},"ﯼ":{"x_min":0,"x_max":836,"ha":836,"o":"m 800 -32 q 659 -174 729 -135 q 351 -237 547 -237 q 135 -196 217 -237 q 0 83 0 -129 q 42 239 0 162 l 234 239 q 191 83 191 150 q 251 -40 191 -24 q 359 -54 302 -54 q 514 -30 453 -54 q 602 31 572 -7 q 638 110 638 76 q 627 160 638 142 q 531 207 604 196 q 378 392 378 229 q 460 559 378 511 q 609 600 531 600 q 799 533 764 600 q 836 382 836 461 l 654 382 q 644 432 654 423 q 595 456 619 456 q 561 438 578 456 q 542 397 542 418 q 627 329 542 346 q 814 208 758 303 q 836 105 836 171 q 800 -32 836 19 "},"♛":{"x_min":37,"x_max":800,"ha":836,"o":"m 95 565 q 37 617 43 565 q 45 647 37 633 q 67 669 53 662 q 97 677 82 677 q 127 669 113 677 q 150 647 142 662 q 158 617 158 633 q 125 570 158 582 l 242 291 l 242 679 q 173 729 183 679 q 180 759 173 745 q 203 780 188 773 q 235 788 218 788 q 265 780 250 788 q 287 759 279 773 q 295 729 295 745 q 269 686 295 705 l 385 274 l 385 726 q 360 769 360 742 q 368 798 360 784 q 390 820 376 813 q 419 827 405 827 q 450 820 435 827 q 472 798 464 813 q 481 769 481 784 q 453 726 481 739 l 453 273 l 565 681 q 541 729 541 706 q 548 758 541 744 q 571 780 556 773 q 601 788 586 788 q 633 780 618 788 q 655 758 647 773 q 664 729 664 744 q 609 674 657 683 l 559 291 l 700 575 q 677 617 677 593 q 685 647 677 633 q 707 669 693 662 q 738 677 722 677 q 769 669 754 677 q 791 647 783 662 q 800 617 800 633 q 738 566 792 566 l 650 311 l 650 3 l 175 3 l 175 311 l 95 565 m 618 199 l 618 242 l 218 242 l 218 199 l 618 199 m 618 35 l 618 78 l 218 78 l 218 35 l 618 35 "},"⇥":{"x_min":44.90625,"x_max":792,"ha":836,"o":"m 660 449 l 660 626 l 792 626 l 792 135 l 660 135 l 660 312 l 483 135 l 401 216 l 489 305 l 44 305 l 44 457 l 489 457 l 401 544 l 483 626 l 660 449 "},"K":{"x_min":79,"x_max":830.34375,"ha":836,"o":"m 79 1013 l 279 1013 l 279 612 l 592 1013 l 818 1013 l 499 614 l 830 0 l 607 0 l 367 455 l 279 343 l 279 0 l 79 0 l 79 1013 "},"Y":{"x_min":5.359375,"x_max":830.625,"ha":836,"o":"m 5 1013 l 221 1013 l 417 605 l 614 1013 l 830 1013 l 518 398 l 518 0 l 318 0 l 318 398 l 5 1013 "},"E":{"x_min":114,"x_max":744.625,"ha":836,"o":"m 744 0 l 114 0 l 114 1013 l 744 1013 l 744 837 l 314 837 l 314 618 l 703 618 l 703 442 l 314 442 l 314 176 l 744 176 l 744 0 "},"Ƥ":{"x_min":14,"x_max":823,"ha":836,"o":"m 424 844 l 424 547 l 436 547 q 575 580 535 547 q 615 695 615 613 q 575 810 615 777 q 436 844 535 844 l 424 844 m 224 817 q 197 791 204 817 q 187 738 187 756 l 187 722 l 14 722 l 14 774 q 46 922 14 875 q 189 1009 97 996 q 224 1012 206 1012 l 429 1012 q 731 937 639 1012 q 823 695 823 862 q 731 453 823 528 q 429 379 639 379 l 424 379 l 424 0 l 224 0 l 224 817 "},"❄":{"x_min":22.125,"x_max":813.875,"ha":836,"o":"m 347 463 l 207 549 l 93 480 l 58 544 l 136 592 l 22 662 l 57 727 l 172 656 l 172 753 l 243 753 l 243 613 l 383 527 l 383 700 l 269 769 l 304 833 l 383 785 l 383 927 l 453 927 l 453 785 l 531 833 l 566 769 l 453 700 l 453 528 l 593 613 l 593 753 l 664 753 l 664 656 l 778 727 l 813 662 l 699 592 l 777 544 l 742 480 l 628 549 l 488 463 l 628 377 l 742 446 l 777 382 l 699 334 l 813 264 l 778 199 l 664 270 l 664 174 l 593 174 l 593 313 l 453 399 l 453 226 l 566 157 l 531 93 l 453 141 l 453 1 l 383 1 l 383 141 l 304 93 l 269 157 l 383 226 l 383 399 l 243 313 l 243 174 l 172 174 l 172 270 l 57 199 l 22 264 l 136 334 l 58 382 l 93 446 l 207 377 l 347 463 "},"Ï":{"x_min":117,"x_max":720,"ha":836,"o":"m 117 837 l 117 1013 l 720 1013 l 720 837 l 518 837 l 518 176 l 720 176 l 720 0 l 117 0 l 117 176 l 318 176 l 318 837 l 117 837 m 472 1288 l 632 1288 l 632 1121 l 472 1121 l 472 1288 m 205 1288 l 365 1288 l 365 1121 l 205 1121 l 205 1288 "},"❡":{"x_min":70,"x_max":765.84375,"ha":836,"o":"m 299 250 q 330 243 315 250 q 357 225 345 237 q 375 198 368 214 q 381 166 381 183 q 375 135 381 150 q 357 108 368 119 q 330 90 345 96 q 301 84 315 84 q 275 79 286 84 q 256 66 265 75 q 242 46 246 57 q 238 23 238 35 q 243 0 238 10 q 257 -20 248 -13 q 277 -34 268 -30 q 307 -39 290 -39 q 377 -24 343 -39 q 442 18 417 -5 q 486 83 472 49 q 501 158 501 121 l 501 352 l 331 352 q 135 421 209 352 q 70 584 70 483 q 141 752 70 688 q 331 817 213 817 l 501 817 l 501 927 l 578 954 l 578 817 l 765 817 l 688 749 l 578 749 l 578 164 q 557 60 578 106 q 500 -29 533 5 q 419 -89 463 -68 q 336 -110 376 -110 q 241 -96 278 -110 q 177 -57 202 -82 q 137 1 149 -28 q 124 69 124 33 q 137 138 124 111 q 177 197 151 166 q 235 236 198 220 q 299 250 267 250 m 501 420 l 501 749 l 396 749 l 396 420 l 501 420 "},"☦":{"x_min":83,"x_max":755,"ha":836,"o":"m 345 913 l 345 872 l 482 872 l 482 913 l 345 913 m 358 947 l 358 1017 l 473 1017 l 473 947 l 559 947 l 559 837 l 474 837 l 474 777 l 480 777 l 755 777 l 755 658 l 474 658 l 474 294 l 571 200 l 571 94 l 479 184 l 479 -1 l 358 -1 l 358 300 l 266 390 l 266 496 l 357 407 l 357 658 l 83 658 l 83 778 l 358 778 l 358 837 l 279 837 l 279 947 l 358 947 m 390 393 l 437 393 l 437 693 l 619 693 l 619 742 l 437 742 l 437 809 l 389 809 l 389 742 l 208 742 l 208 693 l 390 693 l 390 393 "},"✿":{"x_min":24,"x_max":811,"ha":836,"o":"m 488 532 q 418 546 455 546 q 347 532 380 546 q 288 492 315 517 q 247 432 260 463 q 234 360 234 399 q 247 290 234 324 q 288 230 260 258 q 347 190 315 205 q 418 177 380 177 q 488 190 455 177 q 547 230 520 205 q 587 290 574 258 q 601 360 601 324 q 587 432 601 399 q 547 492 574 463 q 488 532 520 517 m 551 542 q 603 578 583 570 q 660 591 632 591 q 717 578 688 591 q 766 545 742 568 q 800 496 788 525 q 811 438 811 470 q 800 380 811 407 q 766 331 790 355 q 717 298 747 311 q 660 287 692 287 q 631 289 645 287 q 673 259 656 277 q 707 210 697 235 q 719 152 719 183 q 707 94 719 119 q 674 45 695 65 q 624 11 650 22 q 567 1 598 1 q 509 11 535 1 q 461 45 480 25 q 427 94 435 71 q 417 131 420 112 q 408 94 415 111 q 374 45 395 65 q 325 11 350 22 q 267 1 298 1 q 210 11 235 1 q 161 45 180 25 q 127 94 138 69 q 117 152 117 121 q 127 210 117 184 q 161 259 140 241 q 200 289 181 277 q 175 286 188 286 q 117 297 142 286 q 68 331 87 312 q 34 379 45 354 q 24 437 24 407 q 34 495 24 470 q 68 544 47 524 q 117 577 92 567 q 175 589 144 589 q 231 577 207 589 q 285 541 263 564 q 277 556 281 549 q 267 614 267 583 q 277 673 267 647 q 311 721 290 701 q 360 755 335 744 q 417 766 387 766 q 475 755 450 766 q 524 721 505 742 q 558 672 547 697 q 569 614 569 645 q 558 556 569 582 q 551 542 554 549 "},"ῶ":{"x_min":43,"x_max":793,"ha":836,"o":"m 418 924 l 381 949 q 373 955 379 951 q 325 975 343 975 q 288 953 301 975 q 276 892 276 932 l 276 887 l 181 887 q 215 1029 181 979 q 314 1080 250 1080 q 363 1070 339 1080 q 415 1041 387 1061 l 457 1012 q 484 996 472 1001 q 508 991 497 991 q 545 1012 532 991 q 559 1073 559 1033 l 559 1078 l 654 1078 q 619 936 654 986 q 520 886 584 886 q 473 894 495 886 q 418 924 451 902 m 504 450 q 553 141 504 141 q 584 159 575 141 q 602 376 602 196 q 542 759 602 557 l 720 759 q 793 350 793 588 q 714 36 793 112 q 569 -20 656 -20 q 417 101 451 -20 q 265 -20 384 -20 q 121 36 179 -20 q 43 350 43 112 q 115 759 43 588 l 292 759 q 234 376 234 557 q 251 159 234 196 q 281 141 260 141 q 331 450 331 141 l 504 450 "},"ứ":{"x_min":5,"x_max":830,"ha":836,"o":"m 558 576 l 558 671 q 628 624 603 637 q 670 612 653 612 q 713 632 696 612 q 730 685 730 652 q 724 738 730 712 q 709 791 719 764 l 815 791 q 826 721 822 753 q 830 662 830 690 q 798 542 830 584 q 709 501 767 501 q 636 519 673 501 q 558 576 599 537 m 5 264 l 5 759 l 203 759 l 203 295 q 226 178 203 213 q 303 143 249 143 q 386 190 356 143 q 416 323 416 237 l 416 760 l 616 760 l 616 0 l 416 0 l 416 112 q 345 14 395 49 q 223 -20 295 -20 q 60 51 115 -20 q 5 264 5 123 m 403 1111 l 594 1111 l 345 856 l 211 856 l 403 1111 "},"ȴ":{"x_min":33.59375,"x_max":803,"ha":836,"o":"m 622 146 q 655 142 624 142 q 726 187 726 142 q 697 232 726 232 q 622 146 662 232 m 509 135 l 554 238 q 698 398 614 398 q 803 235 803 398 q 637 -20 803 -20 q 557 -13 559 -20 l 528 -96 l 430 -96 q 453 -17 437 -62 q 296 53 346 -6 q 235 295 235 126 l 235 902 l 33 902 l 33 1055 l 433 1055 l 433 295 q 461 169 433 206 q 509 135 481 143 "},"Ɖ":{"x_min":0,"x_max":774,"ha":836,"o":"m 293 832 l 293 611 l 436 611 l 436 450 l 293 450 l 293 180 l 347 180 q 515 254 465 180 q 566 507 566 328 q 515 758 566 684 q 347 832 465 832 l 293 832 m 93 1012 l 307 1012 q 664 893 555 1012 q 774 507 774 775 q 664 118 774 237 q 307 0 555 0 l 93 0 l 93 450 l 0 450 l 0 611 l 93 611 l 93 1012 "},"K":{"x_min":79,"x_max":830.34375,"ha":836,"o":"m 79 1013 l 279 1013 l 279 612 l 592 1013 l 818 1013 l 499 614 l 830 0 l 607 0 l 367 455 l 279 343 l 279 0 l 79 0 l 79 1013 "},"ϋ":{"x_min":51.109375,"x_max":784,"ha":836,"o":"m 454 0 q 222 54 283 0 q 163 257 163 107 l 163 607 l 51 607 l 51 760 l 361 760 l 361 247 q 386 175 361 197 q 452 153 412 153 q 567 249 524 153 q 584 434 584 287 q 565 616 584 504 q 499 760 550 708 l 696 760 l 696 760 q 759 615 734 711 q 784 432 784 523 q 697 117 784 232 q 454 0 609 0 m 472 1075 l 632 1075 l 632 908 l 472 908 l 472 1075 m 204 1075 l 364 1075 l 364 908 l 204 908 l 204 1075 "},"ﺙ":{"x_min":18,"x_max":828,"ha":836,"o":"m 334 832 l 487 832 l 487 679 l 334 679 l 334 832 m 452 594 l 605 594 l 605 441 l 452 441 l 452 594 m 215 594 l 368 594 l 368 441 l 215 441 l 215 594 m 818 366 q 828 228 828 304 q 704 35 828 132 q 408 -24 628 -24 q 137 11 243 -24 q 18 217 18 51 q 34 344 18 274 l 221 344 q 204 217 204 269 q 273 136 204 168 q 405 120 308 120 q 563 166 489 120 q 643 274 643 215 q 631 366 643 333 l 818 366 "},"ἶ":{"x_min":182,"x_max":664.484375,"ha":836,"o":"m 419 1203 l 382 1228 q 374 1234 380 1230 q 326 1254 345 1254 q 289 1232 302 1254 q 277 1171 277 1211 l 277 1166 l 182 1166 q 216 1308 182 1258 q 315 1359 251 1359 q 364 1349 340 1359 q 416 1320 389 1340 l 458 1291 q 485 1275 473 1280 q 509 1270 498 1270 q 546 1291 533 1270 q 560 1352 560 1312 l 560 1357 l 655 1357 q 620 1215 655 1265 q 521 1165 585 1165 q 474 1173 496 1165 q 419 1203 452 1181 m 527 1000 q 309 825 527 825 l 309 907 q 433 1000 433 893 l 309 1000 l 309 1119 l 527 1119 l 527 1000 m 518 760 l 518 247 q 543 175 518 197 q 625 153 568 153 l 664 153 l 664 0 l 611 0 q 379 54 440 0 q 320 257 320 107 l 320 607 l 183 607 l 183 760 l 518 760 "},"b":{"x_min":102,"x_max":775.703125,"ha":836,"o":"m 577 377 q 540 549 577 487 q 439 612 503 612 q 337 549 374 612 q 300 377 300 487 q 337 205 300 267 q 439 143 374 143 q 540 205 503 143 q 577 377 577 267 m 300 651 q 385 746 336 714 q 494 778 433 778 q 702 674 629 778 q 775 379 775 571 q 703 84 775 189 q 501 -20 631 -20 q 382 13 433 -20 q 300 112 331 46 l 300 0 l 102 0 l 102 1055 l 300 1055 l 300 651 "},"☔":{"x_min":20,"x_max":816.875,"ha":836,"o":"m 194 727 l 196 727 q 138 629 182 629 l 135 629 q 108 650 108 633 l 108 651 q 194 727 108 677 m 392 847 l 393 847 q 335 749 379 749 l 333 749 q 306 769 306 752 l 306 770 q 392 847 306 796 m 562 904 l 563 904 q 506 806 549 806 l 502 806 q 476 826 476 810 l 476 828 q 562 904 476 853 m 593 766 l 594 766 q 536 668 580 668 l 533 668 q 506 688 506 671 l 506 689 q 593 766 506 716 m 763 866 l 765 866 q 707 768 751 768 l 704 768 q 677 788 677 771 l 677 789 q 763 866 677 816 m 816 766 l 816 766 q 760 668 804 668 l 756 668 q 730 688 730 670 l 730 689 q 816 766 730 715 m 773 604 l 774 604 q 716 506 760 506 l 713 506 q 686 526 686 510 l 686 527 q 773 604 686 554 m 402 628 l 430 628 l 433 625 l 433 573 l 433 573 q 775 367 642 573 q 795 325 795 331 l 795 322 l 795 322 q 775 348 784 328 q 732 358 758 358 l 711 358 q 586 316 639 358 l 586 294 q 582 287 586 288 l 567 314 q 431 341 495 341 l 431 51 q 381 -2 431 9 l 366 -2 q 304 39 322 -2 l 304 50 l 304 61 l 308 64 l 328 64 l 331 61 l 331 56 q 365 14 335 14 l 370 14 q 405 38 395 14 l 408 55 l 408 341 q 267 314 308 341 q 252 290 259 290 l 249 293 l 249 298 l 252 320 l 250 320 q 125 358 218 346 l 93 358 q 30 332 46 358 l 21 325 l 20 325 l 20 325 q 137 478 47 386 q 400 573 252 573 l 400 625 l 402 628 "},"≕":{"x_min":55,"x_max":781,"ha":836,"o":"m 560 361 l 560 200 l 55 200 l 55 361 l 560 361 m 560 670 l 560 511 l 55 511 l 55 670 l 560 670 m 781 390 l 781 172 l 621 172 l 621 390 l 781 390 m 781 699 l 781 481 l 621 481 l 621 699 l 781 699 "},"≮":{"x_min":60,"x_max":777,"ha":836,"o":"m 315 255 l 60 355 l 60 515 l 473 677 l 546 873 l 651 834 l 613 733 l 777 797 l 777 628 l 542 543 l 470 352 l 777 242 l 777 73 l 419 214 l 337 -4 l 232 35 l 315 255 m 403 494 l 237 434 l 365 389 l 403 494 "},"ﬂ":{"x_min":8,"x_max":744.703125,"ha":836,"o":"m 335 826 l 335 759 l 462 759 l 462 606 l 335 606 l 335 0 l 136 0 l 136 606 l 8 606 l 8 759 l 136 759 l 136 811 q 192 1001 136 948 q 404 1055 249 1055 l 744 1055 l 744 0 l 546 0 l 546 902 l 411 902 q 350 885 366 902 q 335 826 335 869 "},"ɢ":{"x_min":104,"x_max":731,"ha":836,"o":"m 731 68 q 599 17 667 34 q 459 0 531 0 q 199 102 295 0 q 104 379 104 204 q 201 657 104 556 q 468 759 299 759 q 594 745 533 759 q 707 704 654 731 l 707 544 q 597 593 652 577 q 488 610 543 610 q 333 549 388 610 q 279 379 279 490 q 331 209 279 269 q 480 149 383 149 q 529 153 506 149 q 570 163 552 156 l 570 277 l 401 277 l 401 427 l 731 427 l 731 68 "},"ຣ":{"x_min":68,"x_max":786.3125,"ha":836,"o":"m 203 244 q 169 233 179 244 q 160 200 160 222 q 170 166 160 175 q 203 156 181 156 q 237 167 227 156 q 247 200 247 178 q 236 234 247 224 q 203 244 225 244 m 604 222 q 423 360 604 331 q 68 591 68 424 q 411 789 68 789 q 786 618 612 789 l 686 518 q 393 645 520 645 q 232 589 232 645 q 443 499 232 541 q 768 230 768 434 q 452 -12 768 -12 q 143 48 218 -12 q 68 192 68 109 q 209 331 68 331 q 357 175 357 331 q 496 135 396 135 q 604 222 604 135 "},"Ʈ":{"x_min":61,"x_max":775,"ha":836,"o":"m 320 0 l 320 838 l 61 838 l 61 1013 l 775 1013 l 775 838 l 518 838 l 518 28 q 546 -99 518 -62 q 641 -136 574 -136 l 667 -136 l 667 -289 l 581 -289 q 379 -218 438 -289 q 320 0 320 -147 "},"Ὢ":{"x_min":-541.421875,"x_max":775,"ha":836,"o":"m -104 1111 l 87 856 l -46 856 l -295 1111 l -104 1111 m -324 1000 q -541 825 -324 825 l -541 907 q -418 1000 -418 893 l -541 1000 l -541 1119 l -324 1119 l -324 1000 m 61 143 l 222 143 q 104 308 141 216 q 68 530 68 400 q 162 865 68 741 q 416 990 257 990 q 673 865 577 990 q 769 530 769 741 q 732 308 769 400 q 614 143 695 216 l 775 143 l 775 0 l 456 0 l 456 181 q 537 314 511 235 q 564 507 564 394 q 525 731 564 652 q 418 810 487 810 q 310 731 348 810 q 272 507 272 652 q 299 314 272 394 q 382 181 326 233 l 382 0 l 61 0 l 61 143 "},"⍺":{"x_min":37,"x_max":790,"ha":836,"o":"m 565 686 q 339 776 496 776 q 113 671 211 776 q 37 376 37 589 q 112 82 37 188 q 307 -17 184 -17 q 480 11 445 -17 q 542 76 509 35 q 557 56 545 69 q 720 0 612 0 l 790 0 l 790 153 l 734 153 q 668 264 688 153 l 650 368 l 781 760 l 589 760 l 565 686 m 471 399 l 404 193 q 343 149 390 149 q 258 201 295 149 q 219 375 219 257 q 258 551 219 489 q 342 613 298 613 q 451 510 432 613 l 471 399 "},"↽":{"x_min":45,"x_max":792,"ha":836,"o":"m 45 457 l 792 457 l 792 305 l 235 305 l 323 216 l 242 135 l 45 332 l 45 457 "},"Ḡ":{"x_min":79,"x_max":766,"ha":836,"o":"m 591 183 l 591 376 l 454 376 l 454 544 l 766 544 l 766 80 q 638 5 708 30 q 489 -20 569 -20 q 186 116 293 -20 q 79 505 79 253 q 187 895 79 760 q 499 1031 295 1031 q 619 1013 560 1031 q 729 963 678 996 l 729 741 q 633 823 688 795 q 513 851 578 851 q 343 765 399 851 q 287 505 287 679 q 341 248 287 336 q 499 160 395 160 q 553 165 530 160 q 591 183 576 171 m 238 1268 l 666 1268 l 666 1140 l 238 1140 l 238 1268 "},"ﭢ":{"x_min":18,"x_max":828,"ha":836,"o":"m 221 444 l 221 597 l 374 597 l 374 444 l 221 444 m 459 444 l 459 597 l 612 597 l 612 444 l 459 444 m 459 681 l 459 834 l 612 834 l 612 681 l 459 681 m 221 681 l 221 834 l 374 834 l 374 681 l 221 681 m 818 366 q 828 228 828 304 q 704 35 828 132 q 408 -24 628 -24 q 137 11 243 -24 q 18 217 18 51 q 34 344 18 274 l 221 344 q 204 217 204 269 q 273 136 204 168 q 405 120 308 120 q 564 166 489 120 q 643 274 643 215 q 631 366 643 333 l 818 366 "},"ȭ":{"x_min":66,"x_max":769,"ha":836,"o":"m 204 1269 l 632 1269 l 632 1141 l 204 1141 l 204 1269 m 418 902 l 381 927 q 373 933 379 929 q 325 953 343 953 q 288 931 301 953 q 276 870 276 910 l 276 865 l 181 865 q 215 1007 181 957 q 314 1058 250 1058 q 363 1048 339 1058 q 415 1019 387 1039 l 457 990 q 484 974 472 979 q 508 969 497 969 q 545 990 532 969 q 559 1051 559 1011 l 559 1056 l 654 1056 q 619 914 654 964 q 520 864 584 864 q 473 872 495 864 q 418 902 451 880 m 417 616 q 305 553 346 616 q 264 378 264 490 q 305 204 264 266 q 417 141 346 141 q 529 204 488 141 q 570 378 570 266 q 529 553 570 490 q 417 616 488 616 m 66 378 q 161 669 66 562 q 417 777 256 777 q 673 669 578 777 q 769 378 769 562 q 673 87 769 194 q 417 -20 578 -20 q 161 87 256 -20 q 66 378 66 194 "},"Ŋ":{"x_min":72,"x_max":763,"ha":836,"o":"m 763 638 l 763 39 q 700 -215 763 -141 q 497 -289 638 -289 l 415 -289 l 415 -135 l 440 -135 q 536 -97 508 -135 q 564 29 564 -60 l 564 688 q 532 813 564 775 q 428 851 500 851 q 314 800 354 851 q 272 659 272 747 l 272 0 l 72 0 l 72 1013 l 272 1013 l 272 849 q 357 984 297 936 q 503 1032 418 1032 q 697 933 632 1032 q 763 638 763 834 "},"ُ":{"x_min":202,"x_max":633,"ha":836,"o":"m 486 1071 q 492 1100 492 1085 q 466 1129 492 1129 q 443 1105 443 1129 q 486 1071 443 1080 m 421 985 q 364 1024 385 1001 q 332 1105 332 1059 q 374 1200 332 1167 q 461 1227 409 1227 q 558 1201 526 1227 q 601 1097 601 1166 q 595 1057 601 1078 q 633 1057 607 1057 l 633 949 q 570 949 622 949 q 543 951 556 949 q 475 889 516 918 q 202 811 375 811 l 202 908 q 338 942 280 920 q 421 985 386 959 "},"ﻴ":{"x_min":-22,"x_max":858,"ha":836,"o":"m 410 48 q 213 0 367 0 l -22 0 l -22 153 l 140 153 q 279 182 249 153 q 313 287 313 216 l 313 435 l 510 435 l 510 287 q 543 182 510 216 q 683 153 572 153 l 858 153 l 858 0 l 610 0 q 410 48 456 0 m 453 -94 l 606 -94 l 606 -247 l 453 -247 l 453 -94 m 216 -94 l 369 -94 l 369 -247 l 216 -247 l 216 -94 "},"Ẋ":{"x_min":18.46875,"x_max":818.53125,"ha":836,"o":"m 818 0 l 611 0 l 418 335 l 225 0 l 18 0 l 315 514 l 26 1013 l 233 1013 l 418 690 l 603 1013 l 810 1013 l 522 514 l 818 0 m 325 1288 l 512 1288 l 512 1121 l 325 1121 l 325 1288 "},"ď":{"x_min":61,"x_max":986.96875,"ha":836,"o":"m 791 1055 l 986 1055 l 875 795 l 738 795 l 791 1055 m 536 651 l 536 1055 l 734 1055 l 734 0 l 536 0 l 536 112 q 453 13 504 46 q 334 -20 403 -20 q 132 84 204 -20 q 61 379 61 189 q 133 674 61 571 q 341 778 206 778 q 450 746 402 778 q 536 651 499 714 m 259 377 q 296 205 259 267 q 397 143 332 143 q 498 205 461 143 q 536 377 536 267 q 498 549 536 487 q 397 612 461 612 q 296 549 332 612 q 259 377 259 487 "},"ﻺ":{"x_min":73.1875,"x_max":850,"ha":836,"o":"m 591 119 q 284 -12 472 -12 q 162 7 212 -12 l 162 172 q 284 151 226 151 q 411 204 362 151 l 73 956 l 265 956 l 523 388 q 555 589 555 458 l 555 1055 l 751 1055 l 751 565 q 685 250 751 379 q 778 152 726 152 l 850 152 l 850 -1 l 762 -1 q 591 119 646 -1 m 89 -463 l 89 -379 l 145 -360 q 105 -324 124 -348 q 82 -257 82 -292 q 95 -187 82 -211 q 139 -139 115 -150 q 220 -121 185 -121 q 312 -141 269 -121 l 312 -223 q 224 -204 272 -204 q 195 -213 206 -204 q 180 -256 180 -227 q 241 -328 180 -296 l 327 -307 l 327 -395 l 89 -463 "},"ṯ":{"x_min":75,"x_max":727.4375,"ha":836,"o":"m 467 975 l 467 760 l 727 760 l 727 607 l 467 607 l 467 247 q 492 175 467 197 q 574 153 517 153 l 727 153 l 727 0 l 560 0 q 329 54 389 0 q 269 257 269 109 l 269 607 l 75 607 l 75 760 l 269 760 l 269 975 l 467 975 m 204 -147 l 632 -147 l 632 -275 l 204 -275 l 204 -147 "},"ŧ":{"x_min":75,"x_max":727.4375,"ha":836,"o":"m 467 975 l 467 760 l 727 760 l 727 607 l 467 607 l 467 511 l 592 511 l 592 381 l 467 381 l 467 248 q 492 175 467 197 q 574 153 517 153 l 727 153 l 727 0 l 560 0 q 329 54 389 0 q 269 257 269 109 l 269 381 l 148 381 l 148 511 l 269 511 l 269 607 l 75 607 l 75 760 l 269 760 l 269 975 l 467 975 "},"ﺧ":{"x_min":-13,"x_max":757,"ha":836,"o":"m 569 367 q 451 395 540 375 q 271 415 412 403 q 107 420 216 420 l 107 583 q 206 588 155 588 q 433 564 321 588 q 757 460 596 529 l 757 295 q 637 239 724 274 q 502 144 600 223 q 312 40 432 87 q 73 0 204 0 l -13 0 l -13 153 l 54 153 q 271 206 135 153 q 418 282 356 239 q 569 367 458 310 m 280 846 l 433 846 l 433 693 l 280 693 l 280 846 "},"⋟":{"x_min":60,"x_max":777,"ha":836,"o":"m 777 550 l 777 390 q 60 814 317 466 l 60 1033 q 777 550 330 632 m 60 -56 q 472 181 245 130 q 60 418 243 230 l 60 647 q 777 289 342 289 l 777 78 q 60 -285 334 78 l 60 -56 "},"À":{"x_min":22.375,"x_max":813.796875,"ha":836,"o":"m 417 829 l 323 415 l 512 415 l 417 829 m 295 1012 l 540 1012 l 813 0 l 613 0 l 551 250 l 283 250 l 222 0 l 22 0 l 295 1012 m 384 1287 l 519 1109 l 385 1109 l 191 1287 l 384 1287 "},"Ώ":{"x_min":-85.484375,"x_max":775,"ha":836,"o":"m 106 1110 l 297 1110 l 48 856 l -85 856 l 106 1110 m 61 143 l 222 143 q 104 308 141 216 q 68 530 68 400 q 162 865 68 741 q 416 990 257 990 q 672 865 576 990 q 768 530 768 741 q 731 308 768 400 q 613 143 694 216 l 775 143 l 775 0 l 456 0 l 456 181 q 536 314 510 235 q 563 507 563 394 q 525 731 563 652 q 417 810 487 810 q 310 731 348 810 q 272 507 272 652 q 299 314 272 394 q 382 181 326 233 l 382 0 l 61 0 l 61 143 "},"̟":{"x_min":239,"x_max":615,"ha":836,"o":"m 362 -423 l 239 -423 l 239 -295 l 362 -295 l 362 -171 l 491 -171 l 491 -295 l 615 -295 l 615 -423 l 491 -423 l 491 -547 l 362 -547 l 362 -423 "},"'":{"x_min":330,"x_max":504,"ha":836,"o":"m 504 1012 l 504 636 l 330 636 l 330 1012 l 504 1012 "},"ჼ":{"x_min":259,"x_max":576,"ha":836,"o":"m 476 701 q 413 807 476 807 q 359 697 359 807 q 416 578 359 578 q 476 701 476 578 m 413 895 q 576 701 576 895 q 416 499 576 499 q 259 701 259 499 l 259 920 q 400 1053 259 1053 l 576 1053 l 576 973 l 385 973 q 359 933 359 973 l 359 860 l 413 895 "},"⚅":{"x_min":41,"x_max":794,"ha":836,"o":"m 504 376 q 512 411 504 397 q 539 437 523 426 q 574 447 552 447 q 610 437 596 447 q 636 411 625 427 q 646 376 646 397 q 636 340 646 354 q 610 314 626 325 q 574 305 596 305 q 539 314 553 305 q 512 340 523 324 q 504 376 504 354 m 189 376 q 198 411 189 397 q 224 437 208 426 q 260 447 238 447 q 295 437 281 447 q 321 411 310 427 q 331 376 331 397 q 321 340 331 354 q 295 314 311 325 q 260 305 281 305 q 224 314 238 305 q 198 340 209 324 q 189 376 189 354 m 189 559 q 198 594 189 580 q 224 620 209 609 q 260 630 238 630 q 295 620 281 630 q 321 594 310 610 q 331 559 331 580 q 321 523 331 537 q 295 497 311 508 q 260 488 281 488 q 224 497 239 488 q 198 523 209 507 q 189 559 189 537 m 504 190 q 513 225 504 211 q 539 251 523 240 q 575 261 553 261 q 610 251 596 261 q 637 225 626 241 q 646 190 646 211 q 637 154 646 169 q 610 128 626 139 q 575 119 597 119 q 539 128 553 119 q 513 154 524 139 q 504 190 504 168 m 189 190 q 198 225 189 211 q 224 251 209 240 q 260 261 238 261 q 295 251 281 261 q 321 225 310 241 q 331 189 331 211 q 321 154 331 169 q 295 128 311 139 q 260 119 281 119 q 224 128 239 119 q 198 154 209 139 q 189 190 189 168 m 504 559 q 513 594 504 580 q 539 620 523 609 q 575 630 553 630 q 610 620 596 630 q 637 594 626 610 q 646 559 646 580 q 637 523 646 537 q 610 497 626 508 q 575 488 597 488 q 539 497 553 488 q 513 523 524 507 q 504 559 504 537 m 41 -3 l 41 753 l 794 753 l 794 -3 l 41 -3 m 124 81 l 710 81 l 710 669 l 124 669 l 124 81 "},"ﭗ":{"x_min":47,"x_max":850.03125,"ha":836,"o":"m 338 -469 l 338 -316 l 491 -316 l 491 -469 l 338 -469 m 457 -232 l 457 -79 l 610 -79 l 610 -232 l 457 -232 m 220 -232 l 220 -79 l 373 -79 l 373 -232 l 220 -232 m 409 -13 q 183 14 262 -13 q 47 217 47 62 q 66 343 47 285 l 257 343 q 239 231 239 289 q 308 157 239 187 q 402 146 334 146 q 488 161 436 146 q 571 203 546 178 q 600 287 600 232 q 589 366 600 345 l 769 366 q 782 254 782 315 q 798 180 782 214 q 827 153 811 153 l 850 153 l 850 0 l 799 0 q 731 18 754 0 q 689 71 693 49 q 585 15 664 44 q 409 -13 506 -13 "},"ٴ":{"x_min":294,"x_max":539,"ha":836,"o":"m 301 873 l 301 958 l 357 977 q 317 1012 336 988 q 294 1079 294 1044 q 307 1149 294 1125 q 351 1197 327 1186 q 432 1216 397 1216 q 524 1195 481 1216 l 524 1113 q 436 1133 484 1133 q 407 1123 418 1133 q 392 1080 392 1109 q 453 1008 392 1040 l 539 1029 l 539 941 l 301 873 "},"▩":{"x_min":4,"x_max":832,"ha":836,"o":"m 680 48 l 704 24 l 755 24 l 755 75 l 731 99 l 680 48 m 81 647 l 104 623 l 155 675 l 133 697 l 81 697 l 81 647 m 81 435 l 100 416 l 151 467 l 104 514 l 81 491 l 81 435 m 264 674 l 311 628 l 363 679 l 345 697 l 287 697 l 264 674 m 159 569 l 205 522 l 257 573 l 209 620 l 159 569 m 81 232 l 104 209 l 151 256 l 100 307 l 81 288 l 81 232 m 472 679 l 524 628 l 571 674 l 548 697 l 490 697 l 472 679 m 366 573 l 417 522 l 469 573 l 417 624 l 366 573 m 260 467 l 311 416 l 363 467 l 311 518 l 260 467 m 154 362 l 206 310 l 257 361 l 205 412 l 154 362 m 81 24 l 131 24 l 155 48 l 104 99 l 81 75 l 81 24 m 681 675 l 731 623 l 755 647 l 755 697 l 702 697 l 681 675 m 579 573 l 630 522 l 676 569 l 626 620 l 579 573 m 472 467 l 524 416 l 575 467 l 524 518 l 472 467 m 366 361 l 417 310 l 469 361 l 417 412 l 366 361 m 261 256 l 312 204 l 363 255 l 311 306 l 261 256 m 159 154 l 210 103 l 257 150 l 206 201 l 159 154 m 685 467 l 735 416 l 755 435 l 755 491 l 731 514 l 685 467 m 578 361 l 629 310 l 681 362 l 630 412 l 578 361 m 472 255 l 523 204 l 575 256 l 523 306 l 472 255 m 367 150 l 417 98 l 469 150 l 417 200 l 367 150 m 265 48 l 290 24 l 343 24 l 363 44 l 312 95 l 265 48 m 684 256 l 731 209 l 755 232 l 755 288 l 735 307 l 684 256 m 578 150 l 625 103 l 676 154 l 629 201 l 578 150 m 472 44 l 493 24 l 545 24 l 570 48 l 523 95 l 472 44 m 4 -53 l 4 774 l 832 774 l 832 -53 l 4 -53 "},"Ɠ":{"x_min":26,"x_max":811,"ha":836,"o":"m 446 160 q 538 183 509 160 l 538 376 l 401 376 l 401 544 l 713 544 l 713 80 q 436 -20 596 -20 q 133 116 240 -20 q 26 505 26 253 q 243 985 26 872 q 446 1031 330 1031 q 527 1022 487 1031 q 541 1041 534 1033 q 745 1114 602 1114 l 811 1114 l 811 961 l 800 961 q 704 923 738 961 q 676 797 676 892 l 676 741 l 674 744 q 457 851 588 851 q 240 543 240 851 q 240 505 240 524 q 377 172 240 225 q 446 160 409 160 "},"Ć":{"x_min":103,"x_max":738.4375,"ha":836,"o":"m 733 28 q 633 -7 685 4 q 523 -20 581 -20 q 210 115 318 -20 q 103 505 103 250 q 210 895 103 760 q 523 1031 318 1031 q 633 1018 581 1031 q 733 982 686 1006 l 733 759 q 632 828 681 806 q 532 851 584 851 q 366 763 422 851 q 311 505 311 676 q 366 247 311 334 q 532 160 422 160 q 632 182 584 160 q 733 251 681 204 l 733 28 m 545 1288 l 738 1288 l 544 1109 l 410 1109 l 545 1288 "},"ẓ":{"x_min":110,"x_max":733,"ha":836,"o":"m 328 -146 l 515 -146 l 515 -313 l 328 -313 l 328 -146 m 126 760 l 733 760 l 733 604 l 333 149 l 733 149 l 733 0 l 110 0 l 110 155 l 510 611 l 126 611 l 126 760 "},"↫":{"x_min":45,"x_max":792,"ha":836,"o":"m 591 706 q 667 691 634 706 q 732 648 704 676 q 777 582 761 620 q 792 505 792 545 q 777 428 792 464 q 732 363 760 390 q 667 319 703 334 q 591 305 635 305 l 543 305 l 543 153 l 390 153 l 390 305 l 235 305 l 323 216 l 242 135 l 45 332 l 45 429 l 242 626 l 323 544 l 235 457 l 390 457 l 390 505 q 405 582 390 545 q 449 648 420 620 q 514 691 477 675 q 591 706 547 706 m 591 555 q 572 550 582 555 q 556 540 562 546 q 545 524 548 532 q 543 505 543 514 l 543 457 l 591 457 q 609 461 598 457 q 625 471 618 464 q 636 487 633 478 q 640 505 640 496 q 636 524 640 515 q 625 540 633 533 q 609 550 618 546 q 591 555 601 555 "},"Ğ":{"x_min":79,"x_max":766,"ha":836,"o":"m 591 183 l 591 376 l 454 376 l 454 544 l 766 544 l 766 80 q 638 5 708 30 q 489 -20 569 -20 q 186 116 293 -20 q 79 505 79 253 q 187 895 79 760 q 499 1031 295 1031 q 619 1013 560 1031 q 729 963 678 996 l 729 741 q 633 823 687 795 q 513 851 578 851 q 343 765 399 851 q 287 505 287 679 q 341 248 287 336 q 499 160 395 160 q 553 165 530 160 q 591 183 576 171 m 223 1288 l 319 1288 q 366 1226 333 1247 q 451 1206 399 1206 q 536 1226 503 1206 q 582 1288 568 1246 l 679 1288 q 610 1154 668 1200 q 451 1109 551 1109 q 292 1154 351 1109 q 223 1288 234 1200 "},"Ї":{"x_min":117,"x_max":720,"ha":836,"o":"m 117 837 l 117 1013 l 720 1013 l 720 837 l 518 837 l 518 176 l 720 176 l 720 0 l 117 0 l 117 176 l 318 176 l 318 837 l 117 837 m 472 1288 l 632 1288 l 632 1121 l 472 1121 l 472 1288 m 205 1288 l 365 1288 l 365 1121 l 205 1121 l 205 1288 "},"Ź":{"x_min":78,"x_max":787,"ha":836,"o":"m 474 1289 l 666 1289 l 472 1110 l 339 1110 l 474 1289 m 93 1013 l 778 1013 l 778 847 l 308 176 l 787 176 l 787 0 l 78 0 l 78 165 l 533 837 l 93 837 l 93 1013 "},"ʻ":{"x_min":293,"x_max":572.140625,"ha":836,"o":"m 505 612 l 293 612 l 293 795 l 426 1055 l 572 1055 l 505 795 l 505 612 "},"ﺇ":{"x_min":289,"x_max":534,"ha":836,"o":"m 296 -407 l 296 -323 l 352 -304 q 312 -268 331 -292 q 289 -201 289 -236 q 302 -131 289 -155 q 346 -83 322 -94 q 427 -65 392 -65 q 519 -85 476 -65 l 519 -167 q 431 -148 479 -148 q 402 -157 413 -148 q 387 -200 387 -171 q 448 -272 387 -240 l 534 -251 l 534 -339 l 296 -407 m 319 1055 l 517 1055 l 517 0 l 319 0 l 319 1055 "},"⍬":{"x_min":59.4375,"x_max":776.90625,"ha":836,"o":"m 776 624 l 776 466 q 747 448 764 456 q 671 111 747 227 q 416 -20 587 -20 q 160 111 245 -20 q 92 411 92 218 q 59 390 73 401 l 59 545 q 89 563 71 554 q 164 899 89 783 q 419 1031 248 1031 q 674 899 590 1031 q 743 603 743 794 q 776 624 759 612 m 416 861 q 313 776 346 861 q 292 622 292 720 q 337 616 313 622 q 421 587 371 608 l 444 577 q 550 542 501 550 q 520 776 550 700 q 416 861 488 861 m 544 390 q 437 423 497 396 q 414 432 421 430 q 328 464 362 455 q 286 470 307 468 q 315 234 286 311 q 418 150 348 150 q 522 234 490 150 q 544 390 544 290 "},"⍟":{"x_min":-13,"x_max":850,"ha":836,"o":"m 153 564 l 355 564 l 418 756 l 481 564 l 683 564 l 519 445 l 582 253 l 418 372 l 254 253 l 317 445 l 153 564 m 245 795 q 73 496 73 695 q 245 197 73 297 q 418 148 331 148 q 591 197 504 148 q 764 496 764 297 q 591 795 764 695 q 418 845 504 845 q 245 795 331 845 m 202 122 q -13 496 -13 247 q 202 870 -13 745 q 418 932 309 932 q 633 870 525 932 q 850 496 850 745 q 633 122 850 247 q 418 61 525 61 q 202 122 309 61 "},"Ṁ":{"x_min":58,"x_max":777,"ha":836,"o":"m 58 1013 l 296 1013 l 417 568 l 537 1013 l 777 1013 l 777 0 l 605 0 l 605 811 l 498 368 l 338 368 l 230 811 l 230 0 l 58 0 l 58 1013 m 324 1288 l 511 1288 l 511 1121 l 324 1121 l 324 1288 "},"ɔ":{"x_min":116.8125,"x_max":722,"ha":836,"o":"m 116 720 q 224 764 166 749 q 348 779 282 779 q 623 673 524 779 q 722 380 722 567 q 622 86 722 192 q 347 -20 522 -20 q 229 -5 286 -20 q 116 38 173 8 l 116 220 q 212 162 160 182 q 319 143 263 143 q 468 204 416 143 q 521 380 521 266 q 468 555 521 494 q 319 616 416 616 q 211 596 261 616 q 116 538 161 577 l 116 720 "},"≗":{"x_min":60,"x_max":777,"ha":836,"o":"m 60 361 l 777 361 l 777 200 l 60 200 l 60 361 m 60 669 l 777 669 l 777 510 l 60 510 l 60 669 m 418 1011 q 359 987 383 1011 q 336 931 336 964 q 359 875 336 898 q 418 853 383 853 q 477 875 453 853 q 501 931 501 898 q 476 987 501 964 q 418 1011 452 1011 m 419 1130 q 566 1073 508 1130 q 624 932 624 1017 q 563 791 624 850 q 416 734 503 734 q 271 789 329 734 q 213 928 213 845 q 272 1068 213 1011 q 419 1130 337 1130 "},"ᵎ":{"x_min":200,"x_max":636,"ha":836,"o":"m 602 455 l 355 455 l 355 795 l 200 795 l 200 880 l 636 880 l 636 795 l 480 795 l 480 540 l 602 540 l 602 455 m 480 248 l 355 248 l 355 378 l 480 378 l 480 248 "},"✩":{"x_min":27.671875,"x_max":808.328125,"ha":836,"o":"m 27 448 l 279 511 l 417 732 l 556 511 l 808 448 l 651 247 l 651 -11 l 417 85 l 185 -11 l 185 247 l 27 448 m 417 732 l 326 448 l 27 448 l 268 272 l 176 -11 l 417 164 l 659 -11 l 567 272 l 808 448 l 509 448 l 417 732 "},"ʚ":{"x_min":73,"x_max":763,"ha":836,"o":"m 396 127 q 576 373 576 127 q 374 621 576 621 q 299 602 326 621 q 264 534 264 576 q 303 463 264 485 q 378 449 328 449 l 468 449 l 468 300 l 378 300 q 306 284 334 300 q 264 211 264 261 q 304 150 264 173 q 396 127 342 127 m 558 2 q 363 -28 498 -28 q 147 30 223 -28 q 73 189 73 89 q 112 307 73 256 q 242 374 150 356 q 112 441 153 391 q 73 559 73 489 q 147 718 73 660 q 364 777 221 777 q 558 735 498 777 q 763 373 763 598 q 558 2 763 104 "},"↶":{"x_min":33.453125,"x_max":802,"ha":836,"o":"m 203 423 l 203 446 q 226 518 203 461 q 293 616 249 572 q 388 681 334 658 q 502 703 441 703 q 616 681 566 703 q 713 617 673 657 q 778 518 755 574 q 802 404 802 465 l 657 404 q 645 463 657 435 q 612 513 634 490 q 562 548 591 535 q 505 559 538 559 q 447 548 471 559 q 397 514 420 537 q 364 464 374 491 q 355 423 355 439 l 443 512 l 524 430 l 327 233 l 230 233 l 33 430 l 114 512 l 203 423 "},"ῖ":{"x_min":182,"x_max":664.484375,"ha":836,"o":"m 419 924 l 382 949 q 374 955 380 951 q 326 975 345 975 q 289 953 302 975 q 277 892 277 932 l 277 887 l 182 887 q 216 1029 182 979 q 315 1080 251 1080 q 364 1071 340 1080 q 416 1042 389 1062 l 459 1013 q 485 997 473 1002 q 509 992 498 992 q 546 1013 533 992 q 560 1074 560 1034 l 560 1079 l 655 1079 q 620 937 655 987 q 521 887 585 887 q 474 894 496 887 q 419 924 452 902 m 518 760 l 518 247 q 543 175 518 197 q 625 153 568 153 l 664 153 l 664 0 l 611 0 q 379 54 440 0 q 320 257 320 107 l 320 607 l 183 607 l 183 760 l 518 760 "},".":{"x_min":304,"x_max":530,"ha":836,"o":"m 304 249 l 530 249 l 530 0 l 304 0 l 304 249 "},"ǀ":{"x_min":328,"x_max":509,"ha":836,"o":"m 328 1013 l 509 1013 l 509 0 l 328 0 l 328 1013 "},"≾":{"x_min":60,"x_max":777,"ha":836,"o":"m 777 96 l 777 -62 q 677 -121 726 -102 q 575 -140 629 -140 q 437 -105 514 -140 q 415 -95 422 -98 q 328 -64 363 -72 q 258 -56 293 -56 q 158 -75 205 -56 q 60 -138 110 -95 l 60 16 q 162 76 112 57 q 268 95 211 95 q 421 57 333 95 l 422 57 l 442 47 q 586 11 521 11 q 680 31 634 11 q 777 96 726 51 m 777 803 q 364 565 591 616 q 777 328 593 516 l 777 99 q 60 458 494 458 l 60 669 q 777 1032 502 669 l 777 803 "},"☌":{"x_min":37,"x_max":799.9375,"ha":836,"o":"m 390 588 q 225 520 293 588 q 157 354 157 452 q 225 190 157 258 q 390 122 293 122 q 554 190 486 122 q 623 354 623 258 q 555 520 623 452 q 390 588 488 588 m 616 628 q 641 604 629 617 q 745 354 745 500 q 641 104 745 207 q 390 1 537 1 q 140 104 244 1 q 37 354 37 207 q 139 604 37 500 q 390 708 242 708 q 512 688 455 708 l 695 1005 l 799 944 l 616 628 "},"ʂ":{"x_min":115,"x_max":722,"ha":836,"o":"m 670 736 l 670 562 q 556 616 615 598 q 437 634 496 634 q 336 615 370 634 q 303 557 303 595 q 447 469 303 503 l 455 467 l 512 453 q 671 370 621 427 q 722 215 722 313 q 644 39 722 97 q 413 -19 568 -19 q 326 -14 370 -19 q 352 -98 332 -70 q 447 -136 380 -136 l 474 -136 l 474 -289 l 392 -289 q 188 -215 249 -289 q 127 27 127 -143 l 127 201 q 260 144 192 164 q 393 125 329 125 q 499 145 463 125 q 535 204 535 165 q 508 262 535 242 q 388 306 483 283 l 333 318 q 167 399 219 344 q 115 546 115 454 q 194 717 115 656 q 417 778 273 778 q 545 767 482 778 q 670 736 610 757 "},"ԝ":{"x_min":0,"x_max":836.1875,"ha":836,"o":"m 0 760 l 165 760 l 255 177 l 337 561 l 498 561 l 579 177 l 670 760 l 836 760 l 698 0 l 509 0 l 417 394 l 326 0 l 137 0 l 0 760 "},"à":{"x_min":64,"x_max":751,"ha":836,"o":"m 474 357 q 319 328 363 357 q 276 230 276 299 q 306 148 276 179 q 388 118 336 118 q 510 177 467 118 q 554 343 554 236 l 554 357 l 474 357 m 751 433 l 751 0 l 554 0 l 554 84 q 461 7 518 34 q 337 -20 405 -20 q 136 48 208 -20 q 64 239 64 117 q 150 436 64 373 q 416 500 236 500 l 554 500 l 554 533 q 519 606 554 581 q 416 631 484 631 q 278 613 345 631 q 138 555 211 595 l 138 725 q 272 765 204 752 q 416 778 340 778 q 676 702 601 778 q 751 433 751 627 m 326 1111 l 518 856 l 384 856 l 134 1111 l 326 1111 "},"ﺐ":{"x_min":47,"x_max":850.03125,"ha":836,"o":"m 409 -13 q 183 14 262 -13 q 47 217 47 62 q 66 344 47 285 l 257 344 q 239 231 239 289 q 308 157 239 187 q 402 146 334 146 q 488 161 436 146 q 571 203 546 178 q 600 287 600 232 q 589 366 600 346 l 769 366 q 782 254 782 316 q 798 180 782 214 q 827 153 811 153 l 850 153 l 850 0 l 799 0 q 731 18 755 0 q 689 71 694 49 q 585 15 664 44 q 409 -13 506 -13 m 315 -84 l 468 -84 l 468 -237 l 315 -237 l 315 -84 "},"₀":{"x_min":189,"x_max":647,"ha":836,"o":"m 377 249 q 361 283 361 263 q 377 317 361 304 q 418 332 394 332 q 459 317 441 332 q 476 283 476 304 q 459 249 476 263 q 418 236 442 236 q 377 249 394 236 m 487 435 q 418 483 465 483 q 349 435 371 483 q 327 283 327 388 q 349 132 327 181 q 418 85 371 85 q 487 132 465 85 q 509 283 509 179 q 487 435 509 388 m 189 283 q 245 504 189 431 q 418 578 302 578 q 589 504 532 578 q 647 283 647 431 q 589 63 647 136 q 418 -10 532 -10 q 245 63 302 -10 q 189 283 189 136 "},"♲":{"x_min":33,"x_max":804,"ha":836,"o":"m 361 747 l 565 747 q 610 710 595 747 l 650 640 l 701 669 l 705 669 q 708 666 708 669 l 618 511 l 438 511 l 436 513 l 436 516 q 487 546 445 525 l 487 549 q 382 727 390 717 q 359 741 359 739 l 359 744 l 361 747 m 300 738 l 312 738 q 398 671 369 738 q 414 640 414 645 q 315 470 323 478 l 313 470 q 156 562 158 558 l 156 563 q 245 714 237 710 q 300 738 268 738 m 411 725 l 411 724 l 515 540 l 504 533 l 504 532 l 608 532 l 657 620 l 642 614 q 575 723 584 717 l 565 725 l 411 725 m 184 569 l 308 497 l 390 641 q 319 717 358 717 l 304 717 q 238 663 261 717 l 184 569 m 715 525 q 801 375 724 517 l 804 354 l 804 344 q 762 270 804 304 q 732 261 751 261 l 657 261 q 558 430 650 266 l 558 432 l 715 525 m 585 425 l 666 281 l 735 281 q 782 334 763 281 l 782 348 q 758 413 782 377 l 708 497 q 585 425 591 430 m 203 485 l 214 485 q 279 373 218 485 q 305 326 305 333 l 302 324 l 300 324 l 248 353 q 148 176 155 194 l 146 165 l 149 145 l 145 143 l 144 143 q 42 312 132 157 q 33 341 33 326 l 33 345 q 77 427 33 359 l 87 449 l 85 449 l 34 479 l 34 482 l 36 485 l 203 485 m 103 465 l 103 462 l 112 455 l 114 455 l 114 453 q 54 348 114 450 l 54 342 q 135 198 54 329 l 238 378 l 239 378 l 254 373 l 254 375 l 205 465 l 103 465 m 534 310 l 536 310 l 539 307 l 539 247 l 730 247 q 770 264 752 247 l 772 264 l 775 261 l 775 261 q 670 76 771 250 q 640 62 657 62 l 539 62 l 539 0 l 536 -3 l 532 -3 q 443 153 443 146 l 443 155 l 534 310 m 400 247 l 405 243 l 405 64 l 402 62 l 248 62 q 163 131 188 62 l 161 151 l 161 157 q 206 247 161 183 l 400 247 m 516 241 l 466 152 l 516 64 l 519 64 l 519 68 q 523 83 519 83 l 642 83 q 678 133 653 83 l 732 226 l 523 226 q 519 236 519 226 l 519 241 l 516 241 m 217 226 q 183 157 185 176 l 183 152 q 228 85 183 108 l 244 83 l 384 83 l 384 226 l 217 226 "},"⌼":{"x_min":4,"x_max":832,"ha":836,"o":"m 266 759 q 113 495 113 671 q 266 232 113 320 q 417 189 341 189 q 570 232 493 189 q 722 495 722 320 q 570 759 722 671 q 417 803 493 803 q 266 759 341 803 m 102 -61 l 734 -61 l 734 224 q 624 137 689 175 q 417 78 520 78 q 211 137 314 78 q 102 224 146 175 l 102 -61 m 102 767 q 211 854 146 816 q 417 914 314 914 q 624 854 520 914 q 734 767 689 816 l 734 1073 l 102 1073 l 102 767 m 832 1171 l 832 -159 l 4 -159 l 4 1171 l 832 1171 "},"₴":{"x_min":0,"x_max":836,"ha":836,"o":"m 292 297 q 290 273 290 285 q 330 179 290 213 q 445 146 371 146 q 593 173 518 146 q 748 258 668 201 l 748 51 q 602 -1 677 16 q 451 -20 526 -20 q 177 55 268 -20 q 87 284 87 131 q 87 297 87 290 l 0 297 l 0 429 l 117 429 q 145 471 138 462 q 308 583 198 539 l 0 583 l 0 715 l 550 715 q 557 752 557 731 q 518 835 557 806 q 407 865 479 865 q 275 841 341 865 q 144 772 208 817 l 144 967 q 282 1015 213 999 q 422 1031 352 1031 q 663 952 575 1031 q 752 735 752 873 q 752 715 752 725 l 836 715 l 836 583 l 713 583 q 699 564 711 578 q 494 444 644 500 l 453 429 l 836 429 l 836 297 l 292 297 "},"̛":{"x_min":281.75,"x_max":554,"ha":836,"o":"m 281 576 l 281 671 q 351 624 327 637 q 394 612 376 612 q 437 632 420 612 q 454 685 454 652 q 448 737 454 711 q 432 791 443 763 l 539 791 q 550 721 546 753 q 554 662 554 690 q 522 542 554 584 q 433 501 491 501 q 360 519 397 501 q 281 576 323 537 "},"۹":{"x_min":83,"x_max":778.796875,"ha":836,"o":"m 488 443 q 335 453 396 443 q 152 525 198 476 q 83 701 83 598 q 163 882 83 807 q 358 950 234 950 q 596 867 534 950 q 665 583 633 819 q 778 0 698 338 l 566 0 q 488 443 517 227 m 469 600 q 437 748 456 720 q 362 797 404 797 q 304 770 327 797 q 281 706 281 745 q 305 640 281 667 q 365 610 321 621 q 469 600 404 600 "},"Ṕ":{"x_min":110,"x_max":778,"ha":836,"o":"m 310 844 l 310 547 l 392 547 q 530 580 490 547 q 570 695 570 613 q 530 810 570 777 q 392 844 490 844 l 310 844 m 110 1012 l 384 1012 q 686 937 594 1012 q 778 695 778 862 q 686 453 778 528 q 384 379 594 379 l 310 379 l 310 0 l 110 0 l 110 1012 m 360 1292 l 553 1292 l 358 1114 l 225 1114 l 360 1292 "},"̳":{"x_min":0,"x_max":836,"ha":836,"o":"m 836 -199 l 836 -328 l 0 -328 l 0 -199 l 836 -199 m 836 -13 l 836 -142 l 0 -142 l 0 -13 l 836 -13 "},"ی":{"x_min":0,"x_max":836,"ha":836,"o":"m 800 -32 q 659 -174 729 -135 q 351 -237 547 -237 q 135 -196 217 -237 q 0 83 0 -129 q 42 239 0 162 l 234 239 q 191 83 191 150 q 251 -40 191 -24 q 359 -54 302 -54 q 514 -30 453 -54 q 602 31 572 -7 q 638 110 638 76 q 627 160 638 142 q 531 207 604 196 q 378 392 378 229 q 460 559 378 511 q 609 600 531 600 q 799 533 764 600 q 836 382 836 461 l 654 382 q 644 432 654 423 q 595 456 619 456 q 561 438 578 456 q 542 397 542 418 q 627 329 542 346 q 814 208 758 303 q 836 105 836 171 q 800 -32 836 19 "},"ꜞ":{"x_min":340,"x_max":495,"ha":836,"o":"m 340 453 l 340 670 l 361 829 l 471 829 l 495 670 l 495 453 l 340 453 m 340 885 l 340 1020 l 495 1020 l 495 885 l 340 885 "},"☯":{"x_min":9,"x_max":826,"ha":836,"o":"m 418 417 l 418 403 q 472 273 418 326 q 606 221 526 221 q 742 277 687 221 q 798 417 798 333 q 684 680 798 569 q 415 792 570 792 q 148 685 255 792 q 42 410 42 579 q 98 553 49 504 q 229 602 147 602 q 363 549 308 602 q 418 417 418 496 m 663 410 q 646 371 663 387 q 608 356 629 356 q 569 371 585 356 q 553 410 553 387 q 569 449 553 433 q 608 466 585 466 q 646 449 630 466 q 663 410 663 433 m 282 410 q 266 449 282 433 q 227 466 250 466 q 189 449 205 466 q 173 410 173 433 q 189 371 173 387 q 227 356 205 356 q 266 372 250 356 q 282 410 282 388 m 826 410 q 706 121 826 240 q 417 3 587 3 q 128 121 248 3 q 9 410 9 240 q 128 699 9 579 q 417 820 248 820 q 706 699 587 820 q 826 410 826 579 "},"ງ":{"x_min":97,"x_max":743,"ha":836,"o":"m 97 633 q 151 749 97 709 q 356 789 206 789 q 743 432 743 789 l 743 7 q 690 -252 743 -171 q 425 -331 639 -331 q 199 -261 265 -331 q 119 -35 133 -191 l 321 -35 q 426 -174 343 -174 q 543 -9 543 -174 l 543 434 q 390 622 543 607 q 235 502 390 502 q 97 633 97 502 m 241 682 q 198 638 198 682 q 240 596 198 596 q 285 639 285 596 q 241 682 285 682 "},"e":{"x_min":62,"x_max":779,"ha":836,"o":"m 746 36 q 605 -5 677 8 q 453 -20 533 -20 q 162 82 263 -20 q 62 376 62 184 q 159 670 62 562 q 423 778 256 778 q 685 677 592 778 q 779 395 779 577 l 779 315 l 264 315 q 316 181 264 225 q 472 137 368 137 q 607 156 541 137 q 746 219 674 176 l 746 36 m 578 464 q 538 583 578 542 q 423 624 499 624 q 314 582 355 624 q 266 464 273 540 l 578 464 "},"⚜":{"x_min":29,"x_max":807,"ha":836,"o":"m 451 381 q 474 185 451 284 q 533 214 506 193 q 500 358 500 275 q 529 521 500 459 q 479 547 507 538 q 451 381 451 481 m 278 359 q 266 434 278 404 q 254 463 254 463 q 230 367 230 417 q 264 253 230 297 q 278 359 278 298 m 560 365 q 571 252 560 289 q 608 367 608 303 q 595 437 608 411 q 581 464 582 463 q 560 365 560 413 m 385 381 q 356 547 385 481 q 306 521 331 540 q 337 358 337 459 q 302 216 330 279 q 362 185 332 193 q 385 381 385 284 m 227 501 q 161 532 179 557 q 89 480 142 480 q 29 553 29 480 q 137 624 29 624 q 288 551 238 624 q 344 576 314 566 q 321 659 321 630 q 418 884 321 739 l 419 885 l 419 884 q 516 659 516 739 q 492 576 516 630 q 530 561 517 569 q 547 551 544 554 q 697 624 597 624 q 807 553 807 624 q 746 480 807 480 q 673 532 692 480 q 608 501 661 556 q 634 463 623 483 q 669 337 669 402 q 635 212 669 272 q 602 165 621 186 q 653 75 622 122 q 644 68 652 68 q 575 141 605 101 q 498 100 540 113 q 427 -1 442 79 l 408 -1 q 338 100 389 79 l 338 101 q 260 141 298 113 q 191 68 231 101 q 183 75 183 68 q 234 166 213 122 q 201 212 214 187 q 168 337 168 272 q 202 463 168 402 q 227 501 213 483 m 214 459 q 183 342 183 403 q 213 225 183 281 q 300 138 244 169 q 418 108 356 108 q 535 138 479 108 q 622 225 591 169 q 653 342 653 281 q 621 459 653 403 q 533 547 589 516 q 418 578 477 578 q 302 547 358 578 q 214 459 246 516 m 417 565 q 514 539 467 565 q 588 467 561 514 q 615 368 615 419 q 588 270 615 316 q 515 197 562 223 q 417 171 468 171 q 319 197 366 171 q 246 270 272 223 q 220 368 220 316 q 246 467 220 419 q 320 539 272 514 q 417 565 367 565 "},"⊏":{"x_min":60,"x_max":776.453125,"ha":836,"o":"m 60 811 l 776 811 l 776 652 l 219 652 l 219 217 l 776 217 l 776 58 l 60 58 l 60 811 "},"Ѓ":{"x_min":123,"x_max":753.640625,"ha":836,"o":"m 323 836 l 323 0 l 123 0 l 123 1012 l 753 1012 l 753 836 l 323 836 m 473 1287 l 666 1287 l 472 1109 l 338 1109 l 473 1287 "},"ﹳ":{"x_min":471,"x_max":849.078125,"ha":836,"o":"m 668 253 q 701 182 668 216 q 798 153 731 153 l 849 153 l 849 0 l 688 0 q 529 62 592 0 q 471 245 471 121 l 471 274 l 668 274 l 668 253 "},"ò":{"x_min":66,"x_max":769,"ha":836,"o":"m 322 1112 l 514 857 l 381 857 l 131 1112 l 322 1112 m 417 616 q 305 553 346 616 q 264 378 264 490 q 305 204 264 266 q 417 141 346 141 q 529 204 488 141 q 570 378 570 266 q 529 553 570 490 q 417 616 488 616 m 66 378 q 161 669 66 562 q 417 777 256 777 q 673 669 578 777 q 769 378 769 562 q 673 87 769 194 q 417 -20 578 -20 q 161 87 256 -20 q 66 378 66 194 "},"ﺞ":{"x_min":60,"x_max":863,"ha":836,"o":"m 637 447 q 710 449 665 453 l 710 580 q 379 617 577 617 q 60 574 247 617 l 60 422 q 215 463 120 449 q 295 470 269 470 q 170 352 204 398 q 73 46 73 216 q 161 -207 73 -104 q 540 -340 276 -340 q 812 -272 710 -340 l 812 -117 q 537 -193 675 -193 q 339 -139 410 -193 q 255 40 255 -75 q 405 352 255 213 q 482 401 455 398 q 509 244 482 309 q 623 84 550 152 q 829 0 717 0 l 863 0 l 863 153 l 836 153 q 705 227 771 153 q 631 390 631 312 q 637 447 631 420 m 374 118 l 527 118 l 527 -34 l 374 -34 l 374 118 "},"ℎ":{"x_min":40.015625,"x_max":760,"ha":836,"o":"m 747 493 l 651 0 l 453 0 l 543 462 q 548 498 546 480 q 550 534 550 516 q 530 594 550 573 q 473 615 510 615 q 377 566 417 615 q 320 426 338 518 l 238 0 l 40 0 l 245 1055 l 442 1055 l 364 645 q 453 743 396 708 q 579 778 510 778 q 713 730 666 778 q 760 597 760 683 q 756 551 760 577 q 747 493 753 525 "},"♻":{"x_min":38.578125,"x_max":797,"ha":836,"o":"m 364 732 l 561 732 q 608 689 591 732 l 645 626 l 695 654 l 699 654 l 699 652 q 610 501 619 512 l 437 501 l 437 504 q 488 536 486 531 l 388 716 q 364 729 370 729 l 364 732 m 311 727 q 386 680 365 727 l 411 636 l 313 469 q 163 556 177 546 q 250 703 239 688 q 311 727 275 727 m 711 510 q 797 358 797 369 l 797 337 q 747 256 797 286 q 720 252 740 252 l 656 252 q 560 419 648 260 q 674 487 572 431 l 711 510 m 215 474 q 303 321 302 328 l 246 353 q 146 177 148 185 l 146 156 l 148 142 l 145 142 l 42 318 l 38 334 q 81 416 40 351 q 95 442 95 436 l 44 472 l 44 474 l 160 474 l 215 474 m 530 297 l 531 297 l 531 238 l 731 238 q 763 251 748 238 l 765 251 q 663 69 765 246 q 634 58 650 58 l 531 58 l 531 0 l 528 0 l 443 148 l 530 297 m 395 238 l 398 235 l 398 60 l 395 58 l 248 58 q 165 123 189 58 l 163 147 q 205 238 163 171 l 395 238 "},"к":{"x_min":118,"x_max":812.453125,"ha":836,"o":"m 118 760 l 316 760 l 316 501 l 555 760 l 796 760 l 508 476 l 812 0 l 592 0 l 384 355 l 316 290 l 316 0 l 118 0 l 118 760 "},"￼":{"x_min":0,"x_max":0,"ha":836},"⁻":{"x_min":183,"x_max":652,"ha":836,"o":"m 183 743 l 652 743 l 652 652 l 183 652 l 183 743 "},"ṉ":{"x_min":117,"x_max":727,"ha":836,"o":"m 727 493 l 727 0 l 530 0 l 530 462 q 506 581 530 545 q 429 617 482 617 q 345 568 376 617 q 314 435 314 520 l 314 0 l 117 0 l 117 760 l 314 760 l 314 646 q 386 743 335 709 q 508 778 437 778 q 671 706 616 778 q 727 493 727 635 m 204 -147 l 632 -147 l 632 -275 l 204 -275 l 204 -147 "},"ᵒ":{"x_min":197,"x_max":640,"ha":836,"o":"m 418 798 q 347 762 373 798 q 322 665 322 727 q 347 567 322 602 q 418 532 373 532 q 489 567 463 532 q 515 665 515 602 q 489 762 515 727 q 418 798 463 798 m 257 501 q 197 664 197 561 q 257 828 197 768 q 418 888 317 888 q 579 828 519 888 q 640 664 640 768 q 579 501 640 561 q 418 442 519 442 q 257 501 317 442 "},"ˆ":{"x_min":162.765625,"x_max":673.421875,"ha":836,"o":"m 336 1111 l 499 1111 l 673 856 l 552 856 l 417 1008 l 283 856 l 162 856 l 336 1111 "},"ū":{"x_min":108,"x_max":719,"ha":836,"o":"m 204 1055 l 632 1055 l 632 927 l 204 927 l 204 1055 m 108 263 l 108 758 l 306 758 l 306 294 q 329 177 306 212 q 406 142 352 142 q 490 189 459 142 q 520 322 520 236 l 520 759 l 719 759 l 719 -1 l 520 -1 l 520 111 q 448 13 499 48 q 327 -21 398 -21 q 163 50 218 -21 q 108 263 108 122 "},"⚠":{"x_min":24.078125,"x_max":813,"ha":836,"o":"m 423 722 l 426 722 l 813 6 l 813 2 l 32 2 l 28 6 l 24 6 q 423 722 407 705 m 418 630 l 98 51 l 98 43 l 743 43 l 743 47 q 418 630 432 617 m 422 523 q 460 490 460 523 q 422 195 435 195 q 385 494 412 195 q 422 523 397 523 m 422 159 q 440 154 432 159 q 454 141 449 149 q 460 122 460 132 q 455 103 460 112 q 441 90 450 95 q 422 86 432 86 q 404 90 412 86 q 390 103 395 95 q 385 122 385 112 q 390 141 385 132 q 404 154 395 149 q 422 159 412 159 "},"☬":{"x_min":71,"x_max":766,"ha":836,"o":"m 418 930 q 510 883 459 930 l 499 873 l 490 796 q 601 717 569 768 q 636 613 636 666 q 508 428 636 489 l 508 382 l 434 382 l 434 307 q 597 387 509 307 q 682 609 682 485 q 604 790 682 719 l 617 802 l 620 802 q 766 538 766 698 q 673 164 766 358 q 548 273 598 273 q 514 245 514 273 q 588 136 514 227 q 609 82 609 111 q 573 46 600 46 q 528 66 533 40 q 432 245 491 214 l 432 151 q 484 32 432 106 q 419 -4 484 -4 q 350 33 350 -4 q 399 153 399 105 l 399 245 q 304 67 304 186 q 260 45 299 45 q 226 82 234 45 q 273 175 226 122 q 319 247 321 227 q 290 273 319 273 q 166 165 239 273 q 71 553 71 345 q 213 802 71 698 l 216 802 l 229 790 q 151 605 151 714 q 285 347 151 449 q 399 307 324 317 l 399 382 l 325 382 l 325 428 q 198 613 198 486 q 346 796 198 732 l 331 873 l 321 885 q 418 930 375 930 m 248 609 q 331 472 248 518 l 334 472 q 378 624 378 537 q 360 755 378 676 q 272 693 304 739 q 248 609 248 653 m 477 755 q 456 621 456 683 q 496 472 456 535 q 586 615 586 510 q 477 755 586 710 "},"ﺜ":{"x_min":-22,"x_max":858,"ha":836,"o":"m 329 941 l 482 941 l 482 788 l 329 788 l 329 941 m 448 704 l 601 704 l 601 551 l 448 551 l 448 704 m 210 704 l 363 704 l 363 551 l 210 551 l 210 704 m 410 48 q 213 0 367 0 l -22 0 l -22 153 l 140 153 q 279 182 249 153 q 313 287 313 216 l 313 435 l 510 435 l 510 287 q 543 182 510 216 q 683 153 573 153 l 858 153 l 858 0 l 610 0 q 410 48 456 0 "},"◸":{"x_min":4,"x_max":831.734375,"ha":836,"o":"m 81 139 l 638 697 l 81 697 l 81 139 m 4 -53 l 4 774 l 831 774 l 4 -53 "},"Ν":{"x_min":81,"x_max":754,"ha":836,"o":"m 81 1013 l 295 1013 l 578 276 l 578 1013 l 754 1013 l 754 0 l 540 0 l 257 736 l 257 0 l 81 0 l 81 1013 "},"✘":{"x_min":35,"x_max":802,"ha":836,"o":"m 695 897 q 728 879 712 897 q 745 832 740 866 q 766 829 760 832 q 793 813 785 822 q 802 793 802 805 q 792 760 802 769 q 510 445 649 630 q 685 227 598 324 q 696 202 696 217 q 678 158 696 174 q 644 148 666 148 q 634 116 643 137 q 601 82 620 82 q 562 96 579 82 q 549 79 557 85 q 512 63 528 63 q 482 79 498 63 q 358 249 430 136 q 169 13 221 94 q 147 -1 159 -1 q 124 20 135 -2 q 114 46 115 38 q 92 39 103 39 q 59 56 77 39 q 38 88 38 77 q 56 130 38 103 q 45 140 51 132 q 35 169 35 154 q 48 199 35 181 q 243 429 126 303 q 111 700 170 541 q 99 752 99 736 q 112 797 99 767 q 134 816 122 816 q 179 792 150 816 q 186 816 179 801 q 209 846 200 846 q 243 830 235 846 q 395 603 305 714 q 680 890 532 760 q 695 897 687 897 "},"ȝ":{"x_min":74.15625,"x_max":761,"ha":836,"o":"m 567 312 q 665 273 624 297 q 725 219 706 248 q 752 164 744 190 q 761 113 761 139 q 74 -293 761 -163 l 74 -138 q 112 -129 89 -134 q 180 -111 135 -123 q 266 -84 224 -98 q 355 -48 308 -69 q 436 -3 402 -26 q 494 48 471 19 q 517 108 517 77 q 476 187 517 158 q 384 216 435 216 q 311 202 349 216 l 180 156 l 180 295 l 323 348 q 409 388 373 366 q 463 429 445 411 q 491 468 481 447 q 502 501 501 490 q 504 528 504 512 q 488 580 504 558 q 448 612 472 601 q 399 628 423 623 q 350 633 375 633 q 113 547 256 633 l 113 687 q 419 778 252 778 q 545 763 489 778 q 636 726 601 749 q 695 673 671 704 q 729 611 719 643 q 739 548 739 580 q 689 409 739 471 q 567 312 640 348 "},"☡":{"x_min":6.796875,"x_max":826.546875,"ha":836,"o":"m 512 1011 q 653 915 591 1011 q 682 810 682 863 q 613 650 682 716 l 250 237 l 244 195 q 297 117 244 135 l 781 259 q 826 193 826 259 l 826 191 q 771 131 826 131 l 296 -3 q 147 114 207 -3 q 133 188 133 150 l 133 204 q 209 371 133 298 q 562 775 552 756 q 569 808 569 793 q 514 884 569 862 l 508 884 l 44 746 q 6 800 12 746 l 6 820 q 61 872 6 863 l 68 872 l 512 1011 "},"ℕ":{"x_min":34,"x_max":805,"ha":836,"o":"m 173 931 l 557 81 l 663 81 l 278 931 l 173 931 m 34 1012 l 320 1012 l 736 93 l 736 1012 l 805 1012 l 805 0 l 515 0 l 103 913 l 103 0 l 34 0 l 34 1012 "},"ظ":{"x_min":6.609375,"x_max":817,"ha":836,"o":"m 406 152 l 494 152 q 576 173 546 152 q 619 232 619 202 q 604 274 619 254 q 554 294 590 294 q 461 232 502 294 q 406 152 413 160 m 520 -1 l 154 -1 l 6 -1 l 6 152 l 154 152 l 154 1055 l 351 1055 l 351 333 q 559 450 437 450 q 757 379 688 450 q 817 235 817 317 q 692 49 817 123 q 520 -1 606 -1 m 448 725 l 601 725 l 601 572 l 448 572 l 448 725 "},"œ":{"x_min":9,"x_max":820,"ha":836,"o":"m 820 325 l 515 325 q 548 175 515 226 q 646 124 582 124 q 727 144 687 124 q 809 203 768 164 l 809 38 q 734 -5 776 8 q 634 -20 692 -20 q 519 5 567 -20 q 439 80 471 30 q 365 4 410 28 q 252 -20 320 -20 q 66 73 123 -20 q 9 378 9 167 q 66 684 9 591 q 252 777 123 777 q 361 757 319 777 q 431 692 403 737 q 494 755 450 733 q 601 777 538 777 q 770 696 721 777 q 820 410 820 615 l 820 325 m 667 468 l 667 491 q 649 601 667 570 q 590 633 632 633 q 531 600 548 633 q 515 483 515 568 l 515 468 l 667 468 m 352 378 q 332 587 352 542 q 260 633 312 633 q 187 587 207 633 q 168 378 168 542 q 187 169 168 214 q 260 124 207 124 q 332 169 312 124 q 352 378 352 214 "},"Ὲ":{"x_min":-339.703125,"x_max":744.625,"ha":836,"o":"m -148 1111 l 43 856 l -90 856 l -339 1111 l -148 1111 m 744 0 l 114 0 l 114 1013 l 744 1013 l 744 837 l 314 837 l 314 618 l 703 618 l 703 442 l 314 442 l 314 176 l 744 176 l 744 0 "},"⇦":{"x_min":3,"x_max":791,"ha":836,"o":"m 209 506 l 97 380 l 209 254 l 209 318 l 730 318 l 730 443 l 209 443 l 209 506 m 276 93 l 3 380 l 276 667 l 276 511 l 791 511 l 791 250 l 276 250 l 276 93 "},"Ɵ":{"x_min":62,"x_max":773,"ha":836,"o":"m 417 -20 q 92 245 167 -20 q 62 505 62 353 q 298 1012 62 931 q 417 1031 352 1031 q 683 898 593 1031 q 773 505 773 765 q 526 -5 773 70 q 417 -20 476 -20 m 560 617 q 509 804 548 751 q 417 851 474 851 q 286 705 316 851 q 274 617 279 671 l 560 617 m 560 441 l 274 441 q 302 241 274 305 q 417 160 338 160 q 532 241 496 160 q 560 441 560 304 "},"ᵛ":{"x_min":189.203125,"x_max":646.96875,"ha":836,"o":"m 646 878 l 495 453 l 341 453 l 189 878 l 316 878 l 417 546 l 520 878 l 646 878 "},"ș":{"x_min":117,"x_max":724,"ha":836,"o":"m 313 -134 l 504 -134 l 384 -342 l 252 -342 l 313 -134 m 672 736 l 672 562 q 558 615 617 597 q 439 634 498 634 q 338 614 372 634 q 305 557 305 595 q 450 468 305 502 l 457 466 l 514 453 q 673 369 623 427 q 724 214 724 312 q 647 38 724 97 q 415 -20 570 -20 q 275 -8 347 -20 q 129 27 203 3 l 129 200 q 263 143 195 163 q 395 124 331 124 q 501 144 465 124 q 537 203 537 164 q 511 262 537 241 q 390 305 486 282 l 335 317 q 169 398 221 343 q 117 545 117 453 q 196 716 117 655 q 419 778 275 778 q 548 767 483 778 q 672 736 612 757 "},"♓":{"x_min":63.9375,"x_max":771.734375,"ha":836,"o":"m 489 398 l 345 398 q 162 4 326 196 l 63 4 q 262 397 246 212 l 87 397 l 87 499 l 262 499 q 63 890 245 682 l 162 890 q 345 500 326 699 l 489 500 q 673 890 508 699 l 771 890 q 573 499 589 682 l 748 499 l 748 397 l 571 397 q 771 4 589 212 l 673 4 q 489 397 507 195 l 489 398 "},"◺":{"x_min":4,"x_max":831.734375,"ha":836,"o":"m 81 24 l 638 24 l 81 581 l 81 24 m 4 -53 l 4 774 l 831 -53 l 4 -53 "},"ἱ":{"x_min":182.6875,"x_max":663.484375,"ha":836,"o":"m 309 1000 l 309 1119 l 526 1119 l 526 1000 l 403 1000 q 527 907 403 893 l 527 825 q 309 1000 309 825 m 517 760 l 517 247 q 542 175 517 197 q 624 153 567 153 l 663 153 l 663 0 l 610 0 q 378 54 439 0 q 319 257 319 107 l 319 607 l 182 607 l 182 760 l 517 760 "},"Ȫ":{"x_min":62,"x_max":773,"ha":836,"o":"m 472 1223 l 632 1223 l 632 1056 l 472 1056 l 472 1223 m 204 1223 l 364 1223 l 364 1056 l 204 1056 l 204 1223 m 204 1368 l 632 1368 l 632 1240 l 204 1240 l 204 1368 m 417 851 q 305 769 340 851 q 270 505 270 687 q 305 241 270 323 q 417 160 340 160 q 529 241 494 160 q 565 505 565 323 q 529 769 565 687 q 417 851 494 851 m 62 505 q 151 898 62 765 q 417 1031 241 1031 q 683 898 593 1031 q 773 505 773 765 q 683 112 773 245 q 417 -20 593 -20 q 151 112 241 -20 q 62 505 62 245 "},"ˈ":{"x_min":354,"x_max":482,"ha":836,"o":"m 482 1054 l 482 678 l 354 678 l 354 1054 l 482 1054 "},"ɘ":{"x_min":60,"x_max":777,"ha":836,"o":"m 91 36 q 91 219 91 36 q 230 156 164 176 q 365 137 297 137 q 521 181 469 137 q 574 315 574 225 l 60 315 l 60 395 q 153 678 60 577 q 415 778 246 778 q 680 670 583 778 q 777 376 777 562 q 675 82 777 184 q 384 -20 575 -20 q 232 -5 304 -20 q 91 36 161 8 m 261 464 l 572 464 q 524 581 565 540 q 415 624 483 624 q 299 583 339 624 q 261 464 261 542 "},"₈":{"x_min":191,"x_max":643,"ha":836,"o":"m 492 229 q 417 253 463 253 q 342 229 371 253 q 314 166 314 206 q 342 103 314 127 q 417 80 371 80 q 491 104 462 80 q 520 166 520 128 q 492 229 520 206 m 315 301 q 235 348 262 316 q 209 425 209 379 q 264 537 209 497 q 417 578 320 578 q 569 537 514 578 q 626 425 626 495 q 599 348 626 379 q 521 301 572 316 q 611 248 578 286 q 643 160 643 212 q 584 34 643 77 q 417 -10 525 -10 q 249 34 308 -10 q 191 160 191 78 q 224 249 191 210 q 315 301 257 286 m 330 416 q 353 363 330 383 q 417 344 376 344 q 481 363 458 344 q 505 416 505 383 q 481 468 505 449 q 417 488 458 488 q 353 468 377 488 q 330 416 330 449 "},"ạ":{"x_min":64,"x_max":751,"ha":836,"o":"m 474 357 q 319 328 363 357 q 276 231 276 300 q 306 149 276 179 q 388 119 336 119 q 510 178 467 119 q 554 343 554 237 l 554 357 l 474 357 m 751 433 l 751 0 l 554 0 l 554 85 q 462 8 518 35 q 338 -19 406 -19 q 136 49 208 -19 q 64 240 64 117 q 150 436 64 373 q 416 500 236 500 l 554 500 l 554 533 q 519 606 554 581 q 416 631 484 631 q 278 613 345 631 q 138 555 211 595 l 138 725 q 272 765 204 752 q 416 778 340 778 q 676 702 601 778 q 751 433 751 627 m 325 -146 l 512 -146 l 512 -313 l 325 -313 l 325 -146 "},"❥":{"x_min":77,"x_max":758.5625,"ha":836,"o":"m 758 441 q 473 112 616 358 q 300 -2 405 -2 q 214 13 256 -2 q 142 62 174 29 q 93 134 111 93 q 77 218 77 172 q 93 302 77 264 q 142 375 110 343 q 214 423 173 406 q 300 441 254 440 q 214 457 254 441 q 142 505 173 474 q 93 578 110 538 q 77 662 77 616 q 93 746 77 707 q 142 818 111 786 q 214 867 174 851 q 300 884 256 884 q 473 769 407 884 q 758 441 616 521 "},"⇖":{"x_min":85,"x_max":731.46875,"ha":836,"o":"m 270 480 l 212 480 l 212 421 l 624 10 l 574 -39 l 212 323 l 212 247 l 85 247 l 85 526 l 165 607 l 444 607 l 444 480 l 370 480 l 731 117 l 681 67 l 270 480 "},"д":{"x_min":43,"x_max":801,"ha":836,"o":"m 341 611 l 341 311 q 320 149 341 212 l 521 149 l 521 611 l 341 611 m 94 149 q 125 177 107 149 q 144 295 144 206 l 144 760 l 718 760 l 718 149 l 801 149 l 801 -194 l 652 -194 l 652 0 l 192 0 l 192 -194 l 43 -194 l 43 149 l 94 149 "},"ӥ":{"x_min":103,"x_max":740,"ha":836,"o":"m 740 760 l 740 0 l 543 0 l 543 485 l 300 0 l 103 0 l 103 760 l 300 760 l 300 274 l 543 760 l 740 760 m 472 1059 l 632 1059 l 632 892 l 472 892 l 472 1059 m 204 1059 l 364 1059 l 364 892 l 204 892 l 204 1059 "},"ʛ":{"x_min":41,"x_max":794.875,"ha":836,"o":"m 669 68 q 537 17 605 34 q 397 0 469 0 q 137 102 232 0 q 41 378 41 203 q 138 657 41 555 q 406 758 236 758 q 449 758 427 758 q 507 981 449 912 q 712 1055 569 1055 l 794 1055 l 794 902 l 768 902 q 672 864 700 902 q 645 737 645 827 l 645 544 q 535 593 590 577 q 427 610 481 610 q 271 549 326 610 q 216 379 216 490 q 268 209 216 269 q 419 149 321 149 q 467 153 445 149 q 508 163 491 156 l 508 277 l 339 277 l 339 427 l 669 427 l 669 68 "},"۴":{"x_min":41.890625,"x_max":763,"ha":836,"o":"m 355 732 q 353 755 353 742 q 434 908 353 855 q 594 950 496 950 q 727 939 687 950 l 727 784 q 643 797 656 797 q 558 776 575 797 q 540 737 540 753 q 558 695 540 712 q 645 673 584 673 q 763 687 697 673 l 763 528 q 548 511 630 511 q 329 565 428 511 q 351 437 342 502 q 397 0 397 111 l 206 0 q 168 437 206 180 q 41 950 123 747 l 219 950 q 278 787 244 903 q 312 743 289 752 q 355 732 335 734 "},"➱":{"x_min":28.125,"x_max":806.96875,"ha":836,"o":"m 105 424 l 28 594 l 53 647 l 473 647 l 473 676 l 498 728 l 554 728 l 806 475 l 781 424 l 528 171 l 473 171 l 473 254 l 28 254 l 105 424 m 152 424 l 93 295 l 514 295 l 514 213 l 724 424 l 514 635 l 514 553 l 93 553 l 152 424 "},"Ḙ":{"x_min":114,"x_max":744.625,"ha":836,"o":"m 744 0 l 114 0 l 114 1013 l 744 1013 l 744 837 l 314 837 l 314 618 l 703 618 l 703 442 l 314 442 l 314 176 l 744 176 l 744 0 m 357 -74 l 520 -74 l 694 -328 l 573 -328 l 438 -176 l 304 -328 l 183 -328 l 357 -74 "},"≵":{"x_min":60,"x_max":777,"ha":836,"o":"m 344 170 q 421 144 381 161 l 422 144 l 442 134 q 586 98 521 98 q 680 118 634 98 q 777 182 726 138 l 777 24 q 677 -34 726 -15 q 575 -53 629 -53 q 437 -18 514 -53 q 415 -8 422 -11 q 328 22 363 14 q 294 28 312 26 l 237 -135 l 114 -84 l 145 5 q 60 -51 104 -14 l 60 103 q 162 163 116 146 q 205 175 185 171 l 230 248 l 60 194 l 60 359 l 291 424 l 340 563 l 60 642 l 60 808 l 389 704 l 461 911 l 584 859 l 515 663 l 777 581 l 777 422 l 389 298 l 344 170 m 448 468 l 561 500 l 468 527 l 448 468 "},"ھ":{"x_min":-64,"x_max":837,"ha":836,"o":"m 192 153 q 245 153 231 153 q 212 250 222 201 q 200 346 200 305 q 228 449 200 393 q 299 524 253 497 q 258 534 272 532 l 258 691 q 624 514 466 651 q 827 216 784 374 q 837 142 837 181 q 795 17 837 65 q 586 -59 729 -59 q 453 -35 517 -59 q 365 11 406 -17 q 212 0 309 0 q 18 23 58 0 q -64 165 -64 69 q -57 212 -64 189 l 128 212 q 123 183 123 191 q 149 158 123 167 q 192 153 166 153 m 593 192 q 526 100 570 138 q 581 89 548 89 q 666 134 655 89 q 671 177 671 154 q 648 250 671 197 q 615 307 637 276 q 593 192 615 243 m 408 220 q 427 244 419 231 q 454 334 454 285 q 443 385 454 353 q 417 411 435 411 q 384 390 395 411 q 370 342 370 360 q 374 297 370 322 q 408 220 381 261 "},"∍":{"x_min":67,"x_max":769,"ha":836,"o":"m 604 360 l 67 360 l 67 511 l 604 511 q 562 566 591 536 q 404 633 499 633 l 67 633 l 67 784 l 404 784 q 587 737 503 784 q 720 610 671 691 q 769 436 769 530 q 720 261 769 341 q 587 134 671 180 q 404 88 503 88 l 67 88 l 67 240 l 404 240 q 562 304 499 240 q 604 360 591 333 "},"✡":{"x_min":48.15625,"x_max":788.03125,"ha":836,"o":"m 417 856 l 541 642 l 788 642 l 664 428 l 788 215 l 541 215 l 417 1 l 294 215 l 48 215 l 171 428 l 48 642 l 294 642 l 417 856 m 326 587 l 235 428 l 326 270 l 509 270 l 600 428 l 509 587 l 326 587 m 417 745 l 358 642 l 477 642 l 417 745 m 573 587 l 632 483 l 692 587 l 573 587 m 632 373 l 573 270 l 692 270 l 632 373 m 477 215 l 358 215 l 417 111 l 477 215 m 263 270 l 203 373 l 143 270 l 263 270 m 203 483 l 263 587 l 143 587 l 203 483 "},"ữ":{"x_min":5,"x_max":830,"ha":836,"o":"m 558 576 l 558 671 q 628 624 603 637 q 670 612 653 612 q 713 632 696 612 q 730 685 730 652 q 724 738 730 712 q 709 791 719 764 l 815 791 q 826 721 822 753 q 830 662 830 690 q 798 542 830 584 q 709 501 767 501 q 636 519 673 501 q 558 576 599 537 m 5 264 l 5 759 l 203 759 l 203 295 q 226 178 203 213 q 303 143 249 143 q 386 190 356 143 q 416 323 416 237 l 416 760 l 616 760 l 616 0 l 416 0 l 416 112 q 345 14 395 49 q 223 -20 295 -20 q 60 51 115 -20 q 5 264 5 123 m 312 924 l 275 949 q 267 955 273 951 q 219 975 238 975 q 182 953 195 975 q 170 892 170 932 l 170 887 l 75 887 q 109 1029 75 979 q 208 1080 144 1080 q 257 1070 233 1080 q 309 1041 282 1061 l 351 1012 q 378 996 366 1001 q 402 991 391 991 q 439 1012 426 991 q 453 1073 453 1033 l 453 1078 l 548 1078 q 513 936 548 986 q 414 886 478 886 q 367 894 389 886 q 312 924 345 902 "},"ʐ":{"x_min":31.40625,"x_max":804.203125,"ha":836,"o":"m 48 760 l 656 760 l 656 604 l 255 149 l 655 149 l 655 27 q 682 -98 655 -61 q 778 -136 710 -136 l 804 -136 l 804 -289 l 722 -289 q 517 -215 578 -289 q 460 0 460 -148 l 31 0 l 31 155 l 431 611 l 48 611 l 48 760 "},"ﺓ":{"x_min":119,"x_max":718.703125,"ha":836,"o":"m 393 766 l 546 766 l 546 613 l 393 613 l 393 766 m 155 766 l 308 766 l 308 613 l 155 613 l 155 766 m 374 330 q 328 288 343 330 q 316 197 316 255 q 342 137 316 158 q 396 117 369 117 q 483 144 439 117 q 520 206 520 165 q 488 273 520 242 q 374 330 429 330 m 331 498 q 623 389 499 498 q 718 204 718 305 q 618 14 718 69 q 383 -40 518 -40 q 232 -16 287 -40 q 119 196 119 34 q 144 372 119 317 q 331 498 201 498 "},"ὂ":{"x_min":66,"x_max":769,"ha":836,"o":"m 535 1110 l 727 856 l 594 856 l 344 1110 l 535 1110 m 316 1000 q 98 825 316 825 l 98 907 q 222 1000 222 893 l 98 1000 l 98 1119 l 316 1119 l 316 1000 m 417 616 q 305 553 346 616 q 264 378 264 490 q 305 204 264 266 q 417 141 346 141 q 529 204 488 141 q 570 378 570 266 q 529 553 570 490 q 417 616 488 616 m 66 378 q 161 669 66 562 q 417 777 256 777 q 673 669 578 777 q 769 378 769 562 q 673 87 769 194 q 417 -20 578 -20 q 161 87 256 -20 q 66 378 66 194 "},"↟":{"x_min":172.453125,"x_max":663.546875,"ha":836,"o":"m 342 332 l 253 244 l 172 325 l 342 495 l 342 556 l 253 468 l 172 549 l 370 747 l 466 747 l 663 549 l 582 468 l 494 556 l 494 495 l 663 325 l 582 244 l 494 332 l 494 0 l 342 0 l 342 332 "},"î":{"x_min":97,"x_max":790,"ha":836,"o":"m 149 760 l 543 760 l 543 153 l 790 153 l 790 0 l 97 0 l 97 153 l 344 153 l 344 607 l 149 607 l 149 760 m 336 1111 l 499 1111 l 673 856 l 552 856 l 417 1008 l 283 856 l 162 856 l 336 1111 "},"ύ":{"x_min":51.109375,"x_max":784,"ha":836,"o":"m 454 0 q 222 54 283 0 q 163 257 163 107 l 163 607 l 51 607 l 51 760 l 361 760 l 361 247 q 386 175 361 197 q 452 153 412 153 q 567 249 524 153 q 584 434 584 287 q 565 616 584 504 q 499 760 550 708 l 696 760 l 696 760 q 759 615 733 711 q 784 432 784 523 q 697 117 784 232 q 454 0 609 0 m 509 1111 l 700 1111 l 451 856 l 317 856 l 509 1111 "},"ັ":{"x_min":56,"x_max":793,"ha":836,"o":"m 468 861 q 161 904 247 861 q 56 1071 56 957 q 215 1242 56 1242 q 368 1079 368 1242 q 355 1010 368 1043 q 602 1050 602 1010 q 535 1117 593 1084 q 653 1245 535 1117 q 793 1059 793 1137 q 468 861 793 861 "},"⍄":{"x_min":4,"x_max":832,"ha":836,"o":"m 734 -61 l 734 406 l 102 157 l 102 -61 l 734 -61 m 832 -159 l 4 -159 l 4 1171 l 832 1171 l 832 -159 m 734 599 l 734 1073 l 102 1073 l 102 848 l 734 599 m 102 325 l 598 502 l 102 680 l 102 325 "},"ϰ":{"x_min":35.28125,"x_max":793.875,"ha":836,"o":"m 193 343 q 214 526 229 421 q 152 622 199 622 q 52 577 89 622 l 52 729 q 193 759 107 770 q 382 574 359 737 q 385 439 396 472 l 478 471 q 667 744 566 689 q 793 674 781 805 q 765 554 798 620 q 631 404 724 470 q 614 227 597 331 q 676 132 631 132 q 777 176 739 132 l 777 24 q 635 -5 721 -16 q 446 179 469 16 q 444 314 432 281 l 350 282 q 161 9 262 65 q 35 79 47 -51 q 63 199 31 126 q 193 343 100 282 "},"⎞":{"x_min":157.515625,"x_max":678,"ha":836,"o":"m 481 -350 l 481 -191 q 394 676 481 405 q 157 1289 277 1045 l 331 1289 q 569 733 443 1113 q 678 -191 678 406 l 678 -350 l 481 -350 "},"ڑ":{"x_min":-35,"x_max":830,"ha":836,"o":"m 650 536 l 688 536 q 724 544 711 536 q 743 571 743 558 q 736 589 743 581 q 715 598 730 598 q 674 571 692 598 q 650 536 653 540 m 699 468 l 538 468 l 473 468 l 473 536 l 539 536 l 539 848 l 626 848 l 626 615 q 717 667 663 667 q 804 635 773 667 q 830 573 830 608 q 775 491 830 523 q 699 468 737 468 m 587 104 q 594 192 594 143 q 558 370 594 277 l 751 370 q 785 200 785 289 q 779 102 785 151 q 493 -244 755 -107 q -35 -342 319 -342 l -35 -176 q 414 -89 271 -176 q 587 104 570 5 "},"ɓ":{"x_min":102,"x_max":775.703125,"ha":836,"o":"m 577 377 q 540 549 577 487 q 439 612 503 612 q 337 549 374 612 q 300 377 300 487 q 337 205 300 267 q 439 143 374 143 q 540 205 503 143 q 577 377 577 267 m 300 651 q 385 746 336 714 q 494 778 433 778 q 702 674 629 778 q 775 379 775 571 q 703 84 775 189 q 501 -20 631 -20 q 382 13 433 -20 q 300 112 331 46 l 300 0 l 102 0 l 102 738 q 163 982 102 909 q 367 1055 224 1055 l 581 1055 l 581 902 l 422 902 q 328 864 356 902 q 300 737 300 827 l 300 651 "},"ﭽ":{"x_min":-13,"x_max":866,"ha":836,"o":"m 567 193 q 502 144 548 177 q 312 40 416 80 q 73 0 206 0 l -13 0 l -13 153 l 54 153 q 271 206 135 153 q 418 282 356 239 q 569 367 458 310 q 451 395 540 375 q 271 415 412 403 q 107 420 215 420 l 107 582 q 206 588 155 588 q 433 564 314 588 q 757 459 596 529 l 757 295 q 694 266 731 281 q 731 214 709 238 q 825 153 786 153 l 866 153 l 866 0 l 811 0 q 621 110 703 0 q 567 193 580 166 m 336 -433 l 336 -280 l 489 -280 l 489 -433 l 336 -433 m 455 -196 l 455 -43 l 608 -43 l 608 -196 l 455 -196 m 217 -196 l 217 -43 l 370 -43 l 370 -196 l 217 -196 "},"ﭞ":{"x_min":18,"x_max":828,"ha":836,"o":"m 332 408 l 332 561 l 485 561 l 485 408 l 332 408 m 332 645 l 332 798 l 485 798 l 485 645 l 332 645 m 818 366 q 828 228 828 304 q 704 35 828 132 q 408 -24 628 -24 q 137 11 243 -24 q 18 217 18 51 q 34 344 18 274 l 222 344 q 204 217 204 269 q 273 136 204 168 q 405 120 308 120 q 563 166 489 120 q 643 274 643 215 q 631 366 643 333 l 818 366 "},"ǫ":{"x_min":66,"x_max":769,"ha":836,"o":"m 369 -11 l 464 -11 q 416 -82 429 -59 q 404 -123 404 -106 q 424 -166 404 -149 q 479 -183 445 -183 q 530 -177 504 -183 q 584 -162 556 -172 l 584 -268 q 515 -279 547 -275 q 455 -283 483 -283 q 336 -251 378 -283 q 294 -162 294 -220 q 312 -89 294 -126 q 369 -11 331 -52 m 417 616 q 305 553 346 616 q 264 379 264 491 q 305 204 264 267 q 417 141 346 141 q 529 204 488 141 q 570 379 570 267 q 529 553 570 491 q 417 616 488 616 m 66 379 q 161 670 66 562 q 417 778 256 778 q 673 670 578 778 q 769 379 769 562 q 673 87 769 195 q 417 -20 578 -20 q 161 87 256 -20 q 66 379 66 195 "},"₠":{"x_min":0,"x_max":826.8125,"ha":836,"o":"m 447 760 l 818 760 l 818 612 l 582 612 l 582 470 l 805 470 l 805 322 l 582 322 l 582 148 l 826 148 l 826 0 l 447 0 l 447 281 q 368 239 409 253 q 284 225 328 225 q 76 331 153 225 q 0 619 0 437 q 76 906 0 800 q 284 1013 153 1013 q 368 998 328 1013 q 447 956 409 984 l 447 799 q 372 853 409 836 q 295 871 335 871 q 181 803 222 871 q 140 618 140 736 q 181 434 140 501 q 295 367 222 367 q 372 384 335 367 q 447 438 409 401 l 447 760 "},"ﭷ":{"x_min":1,"x_max":863.328125,"ha":836,"o":"m 526 -42 l 679 -42 l 679 -195 l 526 -195 l 526 -42 m 289 -42 l 442 -42 l 442 -195 l 289 -195 l 289 -42 m 629 307 q 641 250 629 264 q 740 173 674 205 q 836 153 784 153 l 863 153 l 863 0 l 830 0 q 644 37 740 0 q 508 159 570 65 q 467 297 467 224 q 345 206 392 248 q 196 -105 196 74 q 280 -285 196 -221 q 478 -339 351 -339 q 753 -263 616 -339 l 753 -418 q 481 -486 651 -486 q 102 -353 217 -486 q 14 -99 14 -250 q 111 206 14 70 q 236 324 145 252 q 156 317 210 324 q 1 276 61 302 l 1 428 q 320 471 188 471 q 651 434 518 471 l 651 302 q 629 307 651 302 "},"⌅":{"x_min":99.21875,"x_max":737.09375,"ha":836,"o":"m 418 472 l 737 0 l 606 0 l 418 278 l 230 0 l 99 0 l 418 472 m 106 638 l 731 638 l 731 540 l 106 540 l 106 638 "},"↨":{"x_min":172,"x_max":663,"ha":836,"o":"m 369 132 l 172 329 l 253 410 l 341 322 l 341 556 l 253 468 l 172 549 l 369 747 l 465 747 l 663 549 l 581 468 l 493 556 l 493 322 l 581 410 l 663 329 l 465 132 l 663 132 l 663 0 l 172 0 l 172 132 l 369 132 "},"Ξ":{"x_min":93,"x_max":743,"ha":836,"o":"m 743 0 l 93 0 l 93 176 l 743 176 l 743 0 m 743 837 l 93 837 l 93 1013 l 743 1013 l 743 837 m 581 451 l 256 451 l 256 627 l 581 627 l 581 451 "},"⎩":{"x_min":323,"x_max":826,"ha":836,"o":"m 514 1297 l 514 17 q 536 -116 514 -91 q 635 -149 565 -149 l 826 -149 l 826 -334 l 639 -334 q 406 -239 491 -334 q 323 22 323 -146 l 323 1297 l 514 1297 "},"ٻ":{"x_min":18,"x_max":828,"ha":836,"o":"m 818 365 q 828 227 828 303 q 704 34 828 131 q 408 -25 628 -25 q 137 10 243 -25 q 18 216 18 50 q 34 343 18 273 l 222 343 q 204 216 204 268 q 273 135 204 167 q 405 119 308 119 q 563 165 489 119 q 643 273 643 214 q 631 365 643 332 l 818 365 m 330 -497 l 330 -344 l 483 -344 l 483 -497 l 330 -497 m 330 -260 l 330 -107 l 483 -107 l 483 -260 l 330 -260 "},"ŵ":{"x_min":0,"x_max":836.1875,"ha":836,"o":"m 336 1116 l 499 1116 l 673 861 l 552 861 l 417 1013 l 283 861 l 162 861 l 336 1116 m 0 760 l 165 760 l 255 177 l 337 561 l 498 561 l 579 177 l 670 760 l 836 760 l 698 0 l 509 0 l 417 394 l 326 0 l 137 0 l 0 760 "},"ڤ":{"x_min":-70,"x_max":837,"ha":836,"o":"m 646 333 q 660 379 660 353 q 630 433 660 409 q 579 450 609 450 q 517 421 539 450 q 502 379 502 401 q 527 318 502 335 q 582 301 552 301 q 646 333 624 301 m 752 37 q 537 -62 699 -26 q 304 -90 416 -90 q 116 -62 200 -90 q -70 212 -70 0 q -47 369 -70 306 l 147 369 q 123 212 123 305 q 204 96 123 126 q 305 73 265 73 q 470 89 392 73 q 576 130 538 103 q 619 170 610 157 q 552 160 598 160 q 391 208 454 160 q 308 366 308 274 q 318 461 308 433 q 429 575 349 539 q 572 609 506 609 q 698 581 637 609 q 813 465 750 558 q 837 336 837 430 q 752 37 837 142 m 485 1090 l 638 1090 l 638 937 l 485 937 l 485 1090 m 603 853 l 756 853 l 756 700 l 603 700 l 603 853 m 366 853 l 519 853 l 519 700 l 366 700 l 366 853 "},"ᾚ":{"x_min":-592.4375,"x_max":744,"ha":836,"o":"m 533 -289 l 411 -289 q 352 -165 352 -289 l 352 -62 l 485 -62 l 485 -166 q 519 -237 485 -237 l 533 -237 l 533 -289 m -155 1111 l 36 856 l -96 856 l -346 1111 l -155 1111 m -375 1000 q -592 825 -375 825 l -592 907 q -469 1000 -469 893 l -592 1000 l -592 1119 l -375 1119 l -375 1000 m 93 1013 l 293 1013 l 293 627 l 544 627 l 544 1013 l 744 1013 l 744 0 l 544 0 l 544 451 l 293 451 l 293 0 l 93 0 l 93 1013 "},"№":{"x_min":0.296875,"x_max":830,"ha":836,"o":"m 589 348 q 709 543 589 543 q 830 348 830 543 q 709 153 830 153 q 589 348 589 153 m 730 348 q 709 435 730 435 q 689 348 689 435 q 709 261 689 261 q 730 348 730 261 m 590 129 l 830 129 l 830 0 l 590 0 l 590 129 m 81 1013 l 282 1013 l 381 337 l 381 805 q 430 962 381 911 q 624 1013 480 1013 l 624 864 q 554 843 565 864 q 544 782 544 822 l 544 0 l 343 0 l 244 675 l 244 206 q 194 50 244 101 q 0 0 144 0 l 0 149 q 70 169 59 149 q 81 230 81 190 l 81 1013 "},"ẏ":{"x_min":39.890625,"x_max":798.1875,"ha":836,"o":"m 482 -82 q 386 -238 442 -189 q 250 -288 330 -288 l 86 -288 l 86 -137 l 166 -137 q 256 -116 227 -137 q 314 -20 284 -95 l 329 20 l 39 759 l 248 759 l 422 265 l 589 759 l 798 759 l 482 -82 m 325 1075 l 512 1075 l 512 908 l 325 908 l 325 1075 "},"ƫ":{"x_min":75,"x_max":727.4375,"ha":836,"o":"m 467 974 l 467 759 l 727 759 l 727 606 l 467 606 l 467 246 q 492 174 467 196 q 574 152 517 152 l 727 152 l 727 29 l 727 0 l 724 0 q 666 -214 724 -145 q 461 -288 604 -288 l 378 -288 l 378 -135 l 405 -135 q 502 -97 471 -135 q 526 2 526 -67 q 329 52 383 2 q 269 256 269 108 l 269 606 l 75 606 l 75 759 l 269 759 l 269 974 l 467 974 "},"➿":{"x_min":57,"x_max":779.25,"ha":836,"o":"m 779 440 l 543 205 l 389 205 l 567 383 l 57 383 l 57 498 l 567 498 l 389 675 l 543 675 l 779 440 "},"ί":{"x_min":182.6875,"x_max":700.796875,"ha":836,"o":"m 517 760 l 517 247 q 542 175 517 197 q 624 153 567 153 l 663 153 l 663 0 l 610 0 q 378 54 439 0 q 319 257 319 107 l 319 607 l 182 607 l 182 760 l 517 760 m 509 1111 l 700 1111 l 451 856 l 317 856 l 509 1111 "},"؇":{"x_min":39.671875,"x_max":802.5625,"ha":836,"o":"m 651 1289 l 651 1205 q 570 1190 605 1205 q 512 1143 512 1169 q 547 1108 512 1128 q 602 1093 568 1097 l 602 1011 q 507 968 542 998 q 475 914 475 938 q 485 871 475 884 q 537 840 514 840 q 629 853 580 840 q 707 880 674 865 l 707 783 q 623 758 676 769 q 537 750 580 750 q 397 797 445 750 q 355 914 355 840 q 388 999 355 956 q 452 1057 418 1039 q 415 1082 441 1059 q 393 1144 393 1103 q 488 1256 393 1211 q 651 1289 557 1289 m 759 454 l 662 489 l 513 -26 l 386 -26 l 74 1030 l 39 1030 l 39 1171 l 186 1171 l 448 278 l 563 672 l 802 589 l 759 454 "},"5":{"x_min":96.703125,"x_max":742,"ha":836,"o":"m 131 1012 l 680 1012 l 680 836 l 293 836 l 293 647 q 345 661 317 657 q 404 666 373 666 q 648 571 554 666 q 742 324 742 476 q 640 72 742 165 q 364 -20 539 -20 q 232 -9 298 -20 q 96 23 165 1 l 96 203 q 212 161 153 175 q 331 148 271 148 q 492 193 437 148 q 547 324 547 238 q 492 451 547 403 q 347 499 437 499 q 239 485 293 499 q 131 446 185 472 l 131 1012 "},"̆":{"x_min":193,"x_max":644,"ha":836,"o":"m 193 1089 l 286 1089 q 327 1017 294 1042 q 418 992 361 992 q 508 1016 474 992 q 549 1089 541 1041 l 644 1089 q 584 939 644 991 q 418 888 525 888 q 252 939 311 888 q 193 1089 193 991 "},"₩":{"x_min":0,"x_max":836,"ha":836,"o":"m 56 678 l 46 758 l 0 758 l 0 857 l 33 857 l 12 1012 l 153 1012 l 173 857 l 327 857 l 347 1012 l 488 1012 l 509 857 l 663 857 l 684 1012 l 823 1012 l 802 857 l 836 857 l 836 758 l 789 758 l 779 678 l 836 678 l 836 579 l 765 579 l 689 0 l 520 0 l 443 579 l 393 579 l 315 0 l 147 0 l 70 579 l 0 579 l 0 678 l 56 678 m 546 579 l 586 276 l 626 579 l 546 579 m 522 758 l 532 678 l 640 678 l 650 758 l 522 758 m 210 579 l 250 276 l 290 579 l 210 579 m 416 758 l 406 678 l 429 678 l 419 758 l 416 758 m 186 758 l 197 678 l 303 678 l 314 758 l 186 758 "},"▓":{"x_min":-13,"x_max":850,"ha":836,"o":"m -13 -347 l -13 -99 l 94 -99 l 94 77 l -13 77 l -13 396 l 94 396 l 94 573 l -13 573 l -13 892 l 94 892 l 94 1069 l 418 1069 l 418 892 l 525 892 l 525 1069 l 850 1069 l 850 -347 l 742 -347 l 742 -170 l 634 -170 l 634 -347 l 311 -347 l 311 -170 l 203 -170 l 203 -347 l -13 -347 m 203 645 l 311 645 l 311 821 l 203 821 l 203 645 m 634 645 l 742 645 l 742 821 l 634 821 l 634 645 m 418 396 l 525 396 l 525 573 l 418 573 l 418 396 m 203 149 l 311 149 l 311 326 l 203 326 l 203 149 m 634 149 l 742 149 l 742 326 l 634 326 l 634 149 m 418 -99 l 525 -99 l 525 77 l 418 77 l 418 -99 "},"□":{"x_min":4,"x_max":832,"ha":836,"o":"m 81 24 l 755 24 l 755 697 l 81 697 l 81 24 m 4 -53 l 4 774 l 832 774 l 832 -53 l 4 -53 "},"ῳ":{"x_min":43,"x_max":793,"ha":836,"o":"m 532 -289 l 410 -289 q 351 -165 351 -289 l 351 -62 l 484 -62 l 484 -166 q 518 -237 484 -237 l 532 -237 l 532 -289 m 504 451 q 553 142 504 142 q 584 160 575 142 q 602 377 602 197 q 543 759 602 557 l 720 759 q 793 351 793 588 q 714 36 793 113 q 570 -19 657 -19 q 418 101 451 -19 q 266 -19 384 -19 q 121 36 179 -19 q 43 351 43 113 q 115 759 43 588 l 293 759 q 234 377 234 557 q 251 160 234 197 q 281 142 260 142 q 331 451 331 142 l 504 451 "},"ﭨ":{"x_min":-24.453125,"x_max":595,"ha":836,"o":"m 415 602 l 453 602 q 489 610 476 602 q 508 637 508 623 q 501 654 508 646 q 480 663 495 663 q 439 637 457 663 q 415 602 418 606 m 464 534 l 303 534 l 238 534 l 238 602 l 304 602 l 304 914 l 391 914 l 391 680 q 482 732 428 732 q 569 700 538 732 q 595 638 595 673 q 540 557 595 589 q 464 534 502 534 m 446 58 q 130 0 397 0 l -24 0 l -24 153 l 93 153 q 282 182 253 153 q 316 287 316 216 l 316 407 l 509 407 l 509 287 q 446 58 509 133 "},"Ϲ":{"x_min":103,"x_max":733,"ha":836,"o":"m 733 28 q 633 -7 685 4 q 523 -20 581 -20 q 210 115 318 -20 q 103 505 103 250 q 210 895 103 760 q 523 1031 318 1031 q 633 1018 581 1031 q 733 982 686 1006 l 733 759 q 632 828 681 806 q 532 851 584 851 q 366 763 422 851 q 311 505 311 676 q 366 247 311 334 q 532 160 422 160 q 632 182 584 160 q 733 251 681 204 l 733 28 "},"Ӳ":{"x_min":18.515625,"x_max":816.71875,"ha":836,"o":"m 492 205 q 395 50 450 101 q 260 0 339 0 l 125 0 l 125 176 l 179 176 q 251 186 218 176 q 311 268 284 196 l 348 366 l 18 1012 l 225 1012 l 439 591 l 609 1013 l 816 1013 l 492 205 m 567 1288 l 760 1288 l 566 1109 l 432 1109 l 567 1288 m 313 1288 l 506 1288 l 312 1109 l 178 1109 l 313 1288 "},"ຝ":{"x_min":57,"x_max":779,"ha":836,"o":"m 210 689 q 176 678 186 689 q 167 646 167 667 q 177 612 167 621 q 210 603 188 603 q 245 614 236 603 q 254 646 254 625 q 243 679 254 670 q 210 689 232 689 m 779 202 q 734 51 779 115 q 591 -12 688 -12 q 417 38 474 -12 q 255 -12 349 -12 q 109 45 162 -12 q 57 203 57 103 l 57 616 q 209 768 57 768 q 356 652 356 768 q 219 517 356 517 l 219 203 q 276 113 219 113 q 336 202 336 113 l 336 411 l 499 411 l 499 201 q 558 111 499 111 q 616 202 616 111 l 616 1055 l 779 1055 l 779 202 "},"▇":{"x_min":-13,"x_max":850,"ha":836,"o":"m -13 -347 l -13 892 l 850 892 l 850 -347 l -13 -347 "},"✏":{"x_min":26,"x_max":809.25,"ha":836,"o":"m 693 305 q 696 316 696 311 q 693 327 696 322 q 689 336 692 332 q 681 342 687 340 l 581 404 q 570 377 581 388 q 595 316 595 350 q 570 254 595 282 q 581 229 581 245 l 681 290 q 689 296 687 292 q 693 305 692 300 m 156 264 l 156 368 l 109 423 l 65 368 l 65 264 l 109 210 l 156 264 m 26 384 l 109 481 l 520 481 l 809 316 l 520 153 l 109 153 l 26 249 l 26 384 m 184 394 l 518 394 q 531 416 531 406 q 514 442 531 429 l 146 442 l 184 394 m 528 278 q 552 316 552 289 q 528 355 552 343 l 199 355 l 199 278 l 528 278 m 88 298 q 86 316 86 307 q 88 334 86 325 q 92 350 89 342 q 100 360 96 356 q 109 364 104 364 q 118 360 114 364 q 126 350 123 356 q 131 334 130 342 q 134 316 134 325 q 131 298 134 307 q 126 283 130 290 q 118 272 123 276 q 109 268 114 268 q 100 272 104 268 q 92 283 96 276 q 88 298 89 290 m 184 240 l 146 191 l 514 191 q 531 216 531 203 q 518 240 531 227 l 184 240 "},"♇":{"x_min":146,"x_max":690,"ha":836,"o":"m 151 986 l 412 986 q 669 851 605 986 q 690 742 690 803 q 529 512 690 571 q 457 502 491 502 l 239 502 l 239 122 l 644 122 l 649 117 l 649 33 l 644 28 l 151 28 l 146 33 l 146 979 l 151 986 m 239 896 l 239 592 l 447 592 q 576 674 530 592 q 592 742 586 691 q 488 885 592 847 q 412 896 464 896 l 239 896 "},"⁾":{"x_min":302.46875,"x_max":534,"ha":836,"o":"m 302 1044 l 399 1044 q 500 871 467 957 q 534 697 534 786 q 500 524 534 609 q 399 351 467 438 l 302 351 q 385 527 358 441 q 413 697 413 613 q 385 868 413 783 q 302 1044 358 953 "},"Ú":{"x_min":72,"x_max":764,"ha":836,"o":"m 72 373 l 72 1012 l 272 1012 l 272 323 q 310 204 272 247 q 417 161 349 161 q 525 204 486 161 q 564 323 564 247 l 564 1012 l 764 1012 l 764 373 q 681 73 764 167 q 417 -20 599 -20 q 154 73 236 -20 q 72 373 72 167 m 453 1287 l 646 1287 l 451 1109 l 318 1109 l 453 1287 "},"⍛":{"x_min":157,"x_max":680,"ha":836,"o":"m 417 687 q 552 630 499 687 q 594 569 580 603 q 608 495 608 535 q 552 362 608 417 q 416 308 497 308 q 282 361 336 308 q 229 495 229 415 q 283 631 229 576 q 417 687 338 687 m 481 559 q 418 586 455 586 q 355 560 381 586 q 329 496 329 534 q 354 433 329 458 q 417 408 379 408 q 481 433 455 408 q 508 496 508 459 q 481 559 508 533 m 680 -159 l 157 -159 l 157 -61 l 680 -61 l 680 -159 "},"ἠ":{"x_min":117,"x_max":727,"ha":836,"o":"m 527 1000 q 309 825 527 825 l 309 907 q 433 1000 433 893 l 309 1000 l 309 1119 l 527 1119 l 527 1000 m 727 493 l 727 -288 l 530 -288 l 530 462 q 506 580 530 545 q 429 616 482 616 q 345 568 376 616 q 314 434 314 520 l 314 0 l 117 0 l 117 760 l 314 760 l 314 645 q 386 743 335 709 q 508 778 436 778 q 671 706 616 778 q 727 493 727 634 "},"Ẇ":{"x_min":0.15625,"x_max":836.8125,"ha":836,"o":"m 0 1013 l 175 1013 l 247 269 l 335 750 l 501 750 l 632 269 l 632 1013 l 836 1013 l 720 0 l 533 0 l 418 531 l 310 0 l 124 0 l 0 1013 m 325 1288 l 512 1288 l 512 1121 l 325 1121 l 325 1288 "},"چ":{"x_min":60,"x_max":815,"ha":836,"o":"m 60 574 q 379 617 247 617 q 710 580 577 617 l 710 453 q 404 348 528 453 q 255 38 255 223 q 339 -139 255 -76 q 537 -193 410 -193 q 812 -117 675 -193 l 812 -272 q 540 -340 710 -340 q 161 -207 276 -340 q 73 46 73 -104 q 170 352 73 216 q 295 469 204 398 q 215 463 269 469 q 60 422 123 450 l 60 574 m 543 -82 l 543 71 l 696 71 l 696 -82 l 543 -82 m 662 156 l 662 309 l 815 309 l 815 156 l 662 156 m 425 156 l 425 309 l 578 309 l 578 156 l 425 156 "},"Ý":{"x_min":5.359375,"x_max":830.625,"ha":836,"o":"m 5 1013 l 221 1013 l 417 605 l 614 1013 l 830 1013 l 518 398 l 518 0 l 318 0 l 318 398 l 5 1013 m 452 1288 l 645 1288 l 451 1109 l 318 1109 l 452 1288 "},"ᴰ":{"x_min":203,"x_max":632,"ha":836,"o":"m 329 919 l 329 554 l 362 554 q 468 595 437 554 q 500 737 500 637 q 468 877 500 836 q 362 919 437 919 l 329 919 m 203 1020 l 337 1020 q 563 953 494 1020 q 632 737 632 887 q 563 519 632 586 q 337 453 494 453 l 203 453 l 203 1020 "},"ᴞ":{"x_min":27,"x_max":793,"ha":836,"o":"m 27 361 l 27 521 l 144 521 l 144 361 l 27 361 m 27 93 l 27 253 l 144 253 l 144 93 l 27 93 m 593 -3 l 247 -3 l 247 196 l 571 196 q 654 219 629 196 q 679 296 679 242 q 645 380 679 350 q 553 410 612 410 l 248 410 l 248 609 l 780 609 l 780 410 l 700 410 q 768 338 744 389 q 793 217 793 287 q 742 52 793 108 q 593 -3 691 -3 "},"◥":{"x_min":3.953125,"x_max":832,"ha":836,"o":"m 3 775 l 832 775 l 832 -52 l 3 775 "},"ຸ":{"x_min":245,"x_max":606,"ha":836,"o":"m 392 -180 q 358 -208 358 -180 q 392 -239 358 -239 q 424 -208 424 -239 q 392 -180 424 -180 m 460 -326 q 395 -339 433 -339 q 245 -211 245 -339 q 387 -76 245 -76 q 533 -133 471 -76 q 606 -300 606 -199 q 449 -535 606 -387 l 360 -446 q 460 -326 460 -377 "},"Ɗ":{"x_min":-19,"x_max":818,"ha":836,"o":"m 191 817 q 164 792 171 817 q 154 738 154 757 q 154 722 154 738 l -19 722 l -19 774 q 13 922 -19 875 q 156 1009 64 996 q 191 1012 173 1012 l 351 1012 q 708 893 599 1012 q 818 507 818 775 q 708 118 818 237 q 351 0 599 0 l 191 0 l 191 817 m 391 832 l 391 180 q 559 254 509 180 q 610 507 610 328 q 559 758 610 684 q 391 832 509 832 "},"♅":{"x_min":45.875,"x_max":791.78125,"ha":836,"o":"m 418 311 q 365 288 387 311 q 344 236 344 266 q 365 182 344 204 q 418 161 387 161 q 471 182 449 161 q 493 236 493 204 q 471 288 493 266 q 418 311 450 311 m 461 375 q 521 338 494 364 q 564 235 564 295 q 521 132 564 175 q 418 90 479 90 q 316 132 359 90 q 274 235 274 175 q 316 338 274 295 q 377 375 342 365 l 377 596 l 216 596 l 216 352 l 45 352 l 45 437 l 132 437 l 132 839 l 45 839 l 45 924 l 216 924 l 216 680 l 377 680 l 377 924 l 461 924 l 461 680 l 622 680 l 622 924 l 791 924 l 791 839 l 707 839 l 707 437 l 791 437 l 791 352 l 622 352 l 622 596 l 461 596 l 461 375 "},"ŀ":{"x_min":60.578125,"x_max":829,"ha":836,"o":"m 603 723 l 829 723 l 829 475 l 603 475 l 603 723 m 262 315 l 262 902 l 60 902 l 60 1055 l 460 1055 l 460 315 q 488 189 460 226 q 582 152 516 152 l 741 152 l 741 -1 l 527 -1 q 323 72 385 -1 q 262 315 262 145 "},"ℝ":{"x_min":5,"x_max":828.96875,"ha":836,"o":"m 430 421 q 536 266 487 379 l 616 81 l 707 81 l 628 266 q 542 387 594 344 q 430 421 502 421 m 577 468 q 641 406 608 451 q 709 276 674 362 l 828 0 l 562 0 l 449 266 q 371 385 413 350 q 259 421 328 421 l 248 421 l 248 0 l 5 0 l 5 1012 l 419 1012 q 640 939 567 1012 q 713 720 713 866 q 645 513 713 579 q 577 468 617 485 m 248 931 l 248 502 l 435 502 q 463 503 449 502 l 463 929 q 435 931 449 931 l 248 931 m 536 912 l 536 521 q 586 557 569 537 q 633 716 633 609 q 587 876 633 823 q 536 912 567 898 m 74 931 l 74 81 l 179 81 l 179 931 l 74 931 "},"῾":{"x_min":309,"x_max":527.109375,"ha":836,"o":"m 309 1000 l 309 1119 l 526 1119 l 526 1000 l 403 1000 q 527 907 403 893 l 527 825 q 309 1000 309 825 "},"ﻣ":{"x_min":-20,"x_max":721,"ha":836,"o":"m 381 156 q 457 138 415 142 q 501 152 491 138 q 525 204 527 190 q 521 234 522 230 q 498 268 518 251 q 444 287 476 287 q 395 260 408 287 q 375 203 375 221 q 381 156 375 192 m 264 39 q 191 11 241 24 q 40 -1 148 -1 l -20 -1 l -20 152 l 40 152 q 185 237 154 142 q 270 409 204 344 q 437 453 314 453 q 569 425 502 453 q 715 258 695 376 q 721 189 721 227 q 636 13 721 72 q 483 -33 571 -33 q 264 39 335 -33 "},"ﹾ":{"x_min":214,"x_max":622,"ha":836,"o":"m 501 1033 q 477 1091 501 1067 q 418 1116 453 1116 q 359 1092 382 1116 q 336 1033 336 1068 q 359 974 336 998 q 418 951 382 951 q 477 975 453 951 q 501 1033 501 999 m 563 1178 q 622 1034 622 1119 q 563 888 622 948 q 419 829 504 829 q 273 888 333 829 q 214 1034 214 948 q 273 1178 214 1119 q 419 1238 333 1238 q 563 1178 504 1238 "},"⁉":{"x_min":108,"x_max":811,"ha":836,"o":"m 108 192 l 289 192 l 289 0 l 108 0 l 108 192 m 108 1012 l 289 1012 l 289 568 l 266 326 l 131 326 l 108 568 l 108 1012 m 507 192 l 688 192 l 688 0 l 507 0 l 507 192 m 688 272 l 507 272 l 507 376 q 520 490 519 481 q 582 623 539 569 q 620 692 613 663 q 630 748 630 736 q 609 816 630 795 q 535 822 579 849 q 444 744 493 805 l 444 953 q 531 1011 487 992 q 620 1031 575 1031 q 760 967 709 1031 q 811 791 811 903 q 795 695 811 746 q 754 599 778 639 q 697 456 705 521 q 688 387 688 393 l 688 355 l 688 272 "},"ẅ":{"x_min":-0.125,"x_max":836.140625,"ha":836,"o":"m 472 1028 l 632 1028 l 632 861 l 472 861 l 472 1028 m 204 1028 l 364 1028 l 364 861 l 204 861 l 204 1028 m 0 760 l 165 760 l 255 177 l 337 561 l 498 561 l 579 177 l 670 760 l 836 760 l 698 0 l 509 0 l 417 394 l 326 0 l 137 0 l 0 760 "},"☹":{"x_min":22,"x_max":813,"ha":836,"o":"m 22 505 q 137 786 22 670 q 417 903 253 903 q 697 786 581 903 q 813 505 813 670 q 697 226 813 342 q 417 111 581 111 q 137 226 253 111 q 22 505 22 342 m 102 505 q 194 283 102 376 q 417 190 287 190 q 641 283 548 190 q 734 505 734 376 q 641 729 734 637 q 417 822 548 822 q 194 729 287 822 q 102 505 102 637 m 418 445 q 266 310 307 445 l 234 310 q 420 498 234 498 q 602 310 602 498 l 571 310 q 418 445 518 445 m 545 568 q 486 628 486 568 q 549 692 486 692 q 607 629 607 687 q 545 568 607 568 m 290 568 q 231 628 231 568 q 294 692 231 692 q 352 629 352 687 q 290 568 352 568 "},"ǡ":{"x_min":64,"x_max":751,"ha":836,"o":"m 474 357 q 319 328 363 357 q 276 230 276 299 q 306 148 276 179 q 388 118 336 118 q 510 177 467 118 q 554 343 554 236 l 554 357 l 474 357 m 751 433 l 751 0 l 554 0 l 554 84 q 462 7 518 34 q 338 -20 406 -20 q 136 48 208 -20 q 64 239 64 117 q 150 436 64 373 q 416 500 236 500 l 554 500 l 554 533 q 519 606 554 581 q 416 631 484 631 q 278 613 345 631 q 138 555 211 595 l 138 725 q 272 765 204 752 q 416 778 340 778 q 676 702 601 778 q 751 433 751 627 m 325 1075 l 512 1075 l 512 908 l 325 908 l 325 1075 m 204 1269 l 632 1269 l 632 1141 l 204 1141 l 204 1269 "},"ᵥ":{"x_min":189.203125,"x_max":646.96875,"ha":836,"o":"m 646 425 l 495 0 l 341 0 l 189 425 l 316 425 l 417 93 l 520 425 l 646 425 "},"К":{"x_min":79,"x_max":830.34375,"ha":836,"o":"m 79 1013 l 279 1013 l 279 612 l 592 1013 l 818 1013 l 499 614 l 830 0 l 607 0 l 367 455 l 279 343 l 279 0 l 79 0 l 79 1013 "},"ʣ":{"x_min":35,"x_max":802,"ha":836,"o":"m 175 549 q 154 376 154 486 q 175 204 154 267 q 236 143 198 143 q 297 205 275 143 q 320 377 320 267 q 297 549 320 487 q 236 612 275 612 q 175 549 198 612 m 320 651 l 320 1055 l 439 1055 l 439 759 l 801 759 l 801 603 l 562 148 l 802 148 l 802 -1 l 438 -1 l 427 -1 l 320 -1 l 320 112 q 270 12 300 46 q 198 -20 240 -20 q 78 84 120 -20 q 35 378 35 188 q 78 674 35 570 q 202 778 122 778 q 268 745 239 778 q 320 651 297 714 m 439 610 l 439 175 l 668 610 l 439 610 "},"ΰ":{"x_min":51.109375,"x_max":784,"ha":836,"o":"m 454 0 q 222 54 283 0 q 163 257 163 107 l 163 607 l 51 607 l 51 760 l 361 760 l 361 247 q 386 175 361 197 q 452 153 412 153 q 567 249 524 153 q 584 434 584 287 q 565 616 584 504 q 499 760 550 708 l 696 760 l 696 760 q 759 615 734 711 q 784 432 784 523 q 697 117 784 232 q 454 0 609 0 m 472 1075 l 632 1075 l 632 908 l 472 908 l 472 1075 m 204 1075 l 364 1075 l 364 908 l 204 908 l 204 1075 m 509 1387 l 700 1387 l 451 1133 l 317 1133 l 509 1387 "},"⬔":{"x_min":4,"x_max":831.734375,"ha":836,"o":"m 81 24 l 754 24 l 81 696 l 81 24 m 4 -53 l 4 774 l 831 774 l 831 -53 l 4 -53 "},"მ":{"x_min":68,"x_max":770,"ha":836,"o":"m 571 347 q 560 445 571 406 q 530 508 549 484 q 482 542 510 532 q 418 552 453 552 q 354 541 382 552 q 306 508 326 531 q 275 447 286 484 q 265 356 265 410 q 308 195 265 246 q 428 145 352 145 q 532 195 494 145 q 571 347 571 246 m 770 319 q 748 187 770 246 q 684 86 727 128 q 578 22 641 44 q 429 0 514 0 q 68 362 68 0 q 90 515 68 452 q 155 619 112 578 q 265 677 199 659 q 418 696 331 696 q 503 681 465 696 q 568 631 540 667 l 568 782 q 527 877 568 845 q 411 909 486 909 q 321 891 354 909 q 289 837 289 873 l 289 770 l 81 770 l 81 837 q 164 998 81 944 q 411 1052 248 1052 q 678 985 587 1052 q 770 785 770 919 l 770 319 "},"꜋":{"x_min":186,"x_max":650,"ha":836,"o":"m 316 209 l 186 209 l 186 337 l 316 337 l 316 209 m 523 0 l 523 963 l 650 963 l 650 0 l 523 0 "},"↖":{"x_min":104,"x_max":724.71875,"ha":836,"o":"m 104 526 l 184 607 l 463 607 l 463 480 l 336 480 l 724 92 l 618 -13 l 231 374 l 231 247 l 104 247 l 104 526 "},"⅞":{"x_min":18,"x_max":780,"ha":836,"o":"m 18 1125 l 456 1125 l 456 1045 l 221 558 l 81 558 l 307 1027 l 18 1027 l 18 1125 m 57 339 l 32 419 l 750 597 l 775 516 l 57 339 m 629 46 q 554 70 600 70 q 479 46 508 70 q 451 -16 451 23 q 479 -79 451 -55 q 554 -103 508 -103 q 628 -78 599 -103 q 657 -16 657 -54 q 629 46 657 23 m 452 118 q 372 165 399 133 q 346 242 346 196 q 401 354 346 314 q 554 395 457 395 q 706 354 651 395 q 763 242 763 312 q 736 165 763 196 q 658 118 709 133 q 748 65 715 103 q 780 -22 780 29 q 721 -148 780 -105 q 554 -193 662 -193 q 386 -148 445 -193 q 328 -22 328 -104 q 361 66 328 27 q 452 118 394 103 m 467 233 q 490 180 467 200 q 554 161 513 161 q 618 180 595 161 q 642 233 642 200 q 618 285 642 266 q 554 305 595 305 q 490 285 514 305 q 467 233 467 266 "},"₣":{"x_min":0,"x_max":756.515625,"ha":836,"o":"m 115 257 l 115 1013 l 756 1013 l 756 816 l 353 816 l 353 627 l 732 627 l 732 430 l 353 430 l 353 257 l 473 257 l 473 197 l 353 197 l 353 0 l 115 0 l 115 197 l 0 197 l 0 257 l 115 257 "},"Ṯ":{"x_min":61,"x_max":775,"ha":836,"o":"m 518 0 l 318 0 l 318 838 l 61 838 l 61 1013 l 775 1013 l 775 838 l 518 838 l 518 0 m 204 -147 l 632 -147 l 632 -275 l 204 -275 l 204 -147 "},"ວ":{"x_min":54,"x_max":776,"ha":836,"o":"m 204 231 q 163 187 163 231 q 207 144 163 144 q 249 187 249 144 q 204 231 249 231 m 70 543 q 422 778 98 778 q 776 576 776 778 l 776 180 q 436 -19 776 -19 q 153 34 252 -19 q 54 184 54 87 q 209 328 54 328 q 355 160 374 328 q 436 141 396 141 q 579 256 579 141 l 579 507 q 421 621 579 621 q 265 518 277 621 l 70 543 "},"♯":{"x_min":211.265625,"x_max":625.984375,"ha":836,"o":"m 514 986 l 544 986 l 548 982 l 548 788 l 623 826 l 625 825 l 625 735 q 548 692 623 730 l 548 453 l 625 488 l 625 402 q 548 356 625 399 l 548 166 l 544 164 l 514 164 l 512 166 l 512 341 l 327 252 l 327 30 l 323 28 l 297 28 l 294 30 l 294 235 l 211 197 l 211 288 q 294 330 211 292 l 294 573 l 292 573 l 211 537 l 211 625 l 294 668 l 294 851 l 297 854 l 323 854 l 327 851 l 327 683 l 512 769 l 512 982 l 514 986 m 327 587 l 327 345 l 512 434 l 512 672 l 327 587 "},"ῤ":{"x_min":102,"x_max":775.703125,"ha":836,"o":"m 527 1000 q 309 825 527 825 l 309 907 q 433 1000 433 893 l 309 1000 l 309 1119 l 527 1119 l 527 1000 m 440 778 q 703 673 631 778 q 775 379 775 569 q 702 83 775 186 q 494 -20 629 -20 q 385 11 433 -20 q 300 107 336 43 l 300 -289 l 102 -289 l 102 374 q 440 778 102 778 m 540 208 q 577 380 577 270 q 540 552 577 490 q 439 615 503 615 q 337 552 374 615 q 300 380 300 490 q 337 208 300 270 q 439 146 374 146 q 540 208 503 146 "},"Њ":{"x_min":14,"x_max":830,"ha":836,"o":"m 558 160 l 563 160 q 627 192 588 160 q 667 310 667 225 q 627 427 667 394 q 563 460 588 460 l 558 460 l 558 160 m 395 0 l 395 451 l 177 451 l 177 0 l 14 0 l 14 1013 l 177 1013 l 177 627 l 395 627 l 395 1013 l 558 1013 l 558 619 l 572 619 q 738 544 647 619 q 830 309 830 469 q 738 74 830 149 q 572 0 646 0 l 395 0 "},"▵":{"x_min":148.515625,"x_max":686.984375,"ha":836,"o":"m 264 169 l 571 169 l 417 475 l 264 169 m 148 92 l 417 630 l 686 92 l 148 92 "}," ":{"x_min":0,"x_max":0,"ha":836},"<":{"x_min":60,"x_max":777,"ha":836,"o":"m 777 628 l 237 434 l 777 242 l 777 73 l 60 355 l 60 515 l 777 797 l 777 628 "},"⸤":{"x_min":286,"x_max":630.125,"ha":836,"o":"m 466 -54 l 630 -54 l 630 -183 l 286 -183 l 286 312 l 466 312 l 466 -54 "},"☣":{"x_min":24,"x_max":813,"ha":836,"o":"m 496 198 q 547 254 529 218 q 563 328 566 290 q 598 337 580 334 q 572 230 604 281 q 499 161 540 179 q 496 198 491 180 m 488 445 q 414 462 455 462 q 343 439 373 462 q 318 464 328 450 q 423 495 363 495 q 518 466 483 495 q 488 445 506 451 m 280 316 q 301 244 280 279 q 356 194 323 210 q 347 159 356 176 q 268 235 297 182 q 245 332 239 288 q 280 316 265 330 m 729 45 q 596 5 676 5 q 550 8 574 5 q 426 107 470 25 l 426 106 q 339 31 397 64 q 248 8 294 8 q 126 44 188 8 q 258 34 196 12 q 349 103 321 56 q 359 271 390 182 l 392 292 q 453 291 425 269 l 484 272 q 498 117 453 189 q 581 42 528 62 q 729 45 635 22 m 510 726 q 633 589 589 694 q 608 434 657 513 l 610 434 q 718 396 661 429 q 813 210 813 334 l 813 205 q 758 323 810 280 q 652 366 707 366 q 499 292 563 366 l 466 312 q 436 364 470 351 l 436 400 q 564 490 523 415 q 587 601 597 545 q 510 726 578 657 m 26 197 q 24 220 24 208 q 82 370 24 292 q 230 428 137 428 l 229 427 q 211 540 211 474 q 347 725 211 671 q 251 609 263 675 q 264 495 238 543 q 406 403 313 421 l 406 364 q 375 312 369 347 l 344 294 q 202 362 288 362 q 95 325 139 362 q 26 197 52 289 "},"Ἁ":{"x_min":-22,"x_max":815.28125,"ha":836,"o":"m -22 1000 l -22 1119 l 195 1119 l 195 1000 l 72 1000 q 196 907 72 893 l 196 825 q -22 1000 -22 825 m 419 829 l 324 415 l 514 415 l 419 829 m 297 1012 l 541 1012 l 815 0 l 615 0 l 552 250 l 284 250 l 223 0 l 23 0 l 297 1012 "},"̼":{"x_min":144,"x_max":694.046875,"ha":836,"o":"m 144 -331 q 226 -146 144 -190 q 303 -130 259 -130 q 418 -177 376 -130 q 532 -130 460 -130 q 686 -259 655 -130 q 694 -331 694 -292 l 597 -331 q 531 -234 584 -238 q 468 -320 478 -234 q 466 -331 467 -326 l 369 -331 q 304 -234 357 -238 q 242 -307 256 -234 q 239 -331 239 -320 l 144 -331 "},"t":{"x_min":75,"x_max":727.4375,"ha":836,"o":"m 467 975 l 467 760 l 727 760 l 727 607 l 467 607 l 467 247 q 492 175 467 197 q 574 153 517 153 l 727 153 l 727 0 l 560 0 q 329 54 389 0 q 269 257 269 109 l 269 607 l 75 607 l 75 760 l 269 760 l 269 975 l 467 975 "},"◬":{"x_min":4.1875,"x_max":832.484375,"ha":836,"o":"m 327 245 q 353 308 327 282 q 418 335 379 335 q 482 308 456 335 q 509 245 509 282 q 482 181 509 207 q 417 155 455 155 q 353 181 379 155 q 327 245 327 207 m 120 24 l 716 24 l 418 619 l 120 24 m 4 -53 l 418 773 l 832 -53 l 4 -53 "},"̮":{"x_min":193,"x_max":644,"ha":836,"o":"m 193 -132 l 286 -132 q 327 -203 294 -178 q 418 -229 361 -229 q 508 -204 474 -229 q 549 -132 541 -179 l 644 -132 q 584 -281 644 -229 q 418 -333 525 -333 q 252 -281 311 -333 q 193 -132 193 -229 "},"ù":{"x_min":108,"x_max":719,"ha":836,"o":"m 108 264 l 108 759 l 306 759 l 306 295 q 329 178 306 213 q 406 143 352 143 q 490 190 459 143 q 520 323 520 237 l 520 760 l 719 760 l 719 0 l 520 0 l 520 112 q 448 14 499 49 q 327 -20 398 -20 q 163 51 218 -20 q 108 264 108 123 m 325 1110 l 517 856 l 384 856 l 134 1110 l 325 1110 "},"◅":{"x_min":4.265625,"x_max":832,"ha":836,"o":"m 197 360 l 755 207 l 755 514 l 197 360 m 4 360 l 832 630 l 832 91 l 4 360 "},"⍵":{"x_min":43,"x_max":793,"ha":836,"o":"m 504 450 q 553 141 504 141 q 584 159 575 141 q 602 376 602 196 q 542 759 602 557 l 720 759 q 793 350 793 588 q 714 36 793 112 q 570 -20 657 -20 q 417 101 451 -20 q 265 -20 384 -20 q 121 36 179 -20 q 43 350 43 112 q 115 759 43 588 l 293 759 q 234 376 234 557 q 251 159 234 196 q 281 141 260 141 q 331 450 331 141 l 504 450 "},"ὰ":{"x_min":37,"x_max":790,"ha":836,"o":"m 326 1111 l 518 855 l 384 855 l 135 1111 l 326 1111 m 565 686 q 339 776 496 776 q 113 671 211 776 q 37 376 37 589 q 112 82 37 188 q 307 -17 184 -17 q 480 11 445 -17 q 542 76 509 35 q 557 56 545 69 q 720 0 612 0 l 790 0 l 790 153 l 734 153 q 668 264 688 153 l 650 368 l 781 760 l 589 760 l 565 686 m 471 399 l 404 193 q 343 149 390 149 q 258 201 295 149 q 219 375 219 257 q 258 551 219 489 q 342 613 298 613 q 451 510 432 613 l 471 399 "},"ⱹ":{"x_min":125.796875,"x_max":709,"ha":836,"o":"m 709 738 l 709 0 l 511 0 l 511 118 q 421 17 481 52 q 280 -18 360 -18 q 200 -8 239 -18 q 125 20 161 1 l 125 209 q 202 164 158 179 q 298 150 246 150 q 408 172 361 150 q 481 236 455 194 q 504 298 497 261 q 511 409 511 333 l 511 737 q 482 864 511 827 q 388 902 454 902 l 229 902 l 229 1055 l 443 1055 q 647 982 586 1055 q 709 738 709 909 "},"◖":{"x_min":212,"x_max":626,"ha":836,"o":"m 626 -57 q 418 2 521 -57 q 212 361 212 122 q 418 719 212 599 q 626 779 521 779 l 626 -57 "},"˝":{"x_min":201.421875,"x_max":735.8125,"ha":836,"o":"m 579 1111 l 735 1111 l 551 856 l 433 856 l 579 1111 m 333 1111 l 480 1111 l 312 856 l 201 856 l 333 1111 "}}}
